<svg width="59" height="10" viewBox="0 0 59 10" fill="none" xmlns="http://www.w3.org/2000/svg">
<g clip-path="url(#clip0_9933_524857)">
<path d="M54.1218 7.73342C52.8563 7.73342 51.7316 6.82517 51.442 5.57122H58.956C58.956 5.57122 58.9962 5.11688 58.9962 4.95615C58.9962 2.29471 56.8102 0.128906 54.1231 0.128906C51.4361 0.128906 49.25 2.29426 49.25 4.95615C49.25 7.61804 51.4239 9.73311 54.1231 9.73311C56.8224 9.73311 58.3984 7.76348 58.7918 6.33761H56.5014C56.5014 6.33761 55.7731 7.73342 54.1218 7.73342ZM54.1231 2.12768C55.3365 2.12768 56.3899 2.92145 56.7508 4.10448H51.4955C51.8549 2.92145 52.9088 2.12768 54.1231 2.12768Z" fill="white"/>
<path d="M25.4472 9.73311C22.7601 9.73311 20.6523 7.59023 20.6523 4.95615C20.6523 2.32208 22.8385 0.128906 25.5255 0.128906C28.2125 0.128906 30.3988 2.37956 30.3988 4.93055C30.3988 6.0175 30.3988 9.4938 30.3988 9.4938H28.5067V7.97092L28.369 7.93498C28.0358 8.74405 26.8293 9.73311 25.4472 9.73311ZM25.5255 2.12768C24.0079 2.12768 22.7727 3.38973 22.7727 4.94133C22.7727 6.49292 24.0076 7.73386 25.5255 7.73386C27.0436 7.73386 28.2783 6.4813 28.2783 4.94133C28.2783 3.40138 27.0436 2.12768 25.5255 2.12768Z" fill="white"/>
<path d="M35.7982 9.73311C33.1112 9.73311 31.0039 7.59023 31.0039 4.95615C31.0039 2.32208 33.19 0.128906 35.8771 0.128906C38.5641 0.128906 40.7503 2.37956 40.7503 4.93055C40.7503 6.0175 40.7503 9.4938 40.7503 9.4938H38.8583V7.97092L38.7205 7.93498C38.3873 8.74405 37.1803 9.73311 35.7982 9.73311ZM35.8771 2.12768C34.3596 2.12768 33.1245 3.38973 33.1245 4.94133C33.1245 6.49292 34.3591 7.73386 35.8771 7.73386C37.3952 7.73386 38.6298 6.4813 38.6298 4.94133C38.6298 3.40138 37.3952 2.12768 35.8771 2.12768Z" fill="white"/>
<path d="M43.9301 9.49097L40.0469 0.367188H42.1714L45.0176 7.08815L47.8641 0.367188H49.9881L46.1054 9.49097H43.9301Z" fill="white"/>
<path d="M9.40548 0C4.21048 0 -0.0013595 4.25123 3.29181e-07 9.49375H2.40281C2.40281 5.56488 5.51319 2.3795 9.40548 2.3795C13.2977 2.3795 16.4082 5.56488 16.4082 9.49375H18.8109C18.8119 4.25123 14.6 0 9.40548 0Z" fill="white"/>
<path d="M6.90798 9.71708C7.96389 9.71708 8.81983 8.8692 8.81983 7.82339C8.81983 6.77751 7.96389 5.92969 6.90798 5.92969C5.85208 5.92969 4.99609 6.77751 4.99609 7.82339C4.99609 8.8692 5.85208 9.71708 6.90798 9.71708Z" fill="white"/>
<path d="M11.904 9.71708C12.9599 9.71708 13.816 8.8692 13.816 7.82339C13.816 6.77751 12.9599 5.92969 11.904 5.92969C10.8481 5.92969 9.99219 6.77751 9.99219 7.82339C9.99219 8.8692 10.8481 9.71708 11.904 9.71708Z" fill="white"/>
</g>
<defs>
<clipPath id="clip0_9933_524857">
<rect width="59" height="10" fill="white"/>
</clipPath>
</defs>
</svg>
