<svg width="49" height="18" viewBox="0 0 49 18" fill="none" xmlns="http://www.w3.org/2000/svg">
<g clip-path="url(#clip0_9933_524846)">
<mask id="mask0_9933_524846" style="mask-type:luminance" maskUnits="userSpaceOnUse" x="0" y="0" width="49" height="18">
<path d="M0 0H49V18.0009H0V0Z" fill="white"/>
</mask>
<g mask="url(#mask0_9933_524846)">
<path d="M16.4473 14.2063H15.6443L15.4971 14.1533C15.0936 14.0066 11.5195 12.6836 10.2457 11.384C8.86869 9.97969 8.86869 8.01909 10.2457 6.61558C11.5195 5.31707 15.0945 3.99325 15.4973 3.847L15.6441 3.79393H16.4473C16.0231 3.17473 15.525 2.61029 14.9641 2.11328L14.8927 2.13916C13.8786 2.50761 10.4561 3.82712 8.97545 5.33676C6.8936 7.45956 6.8936 10.5407 8.97545 12.6635C10.4561 14.1732 13.8786 15.4927 14.8927 15.8611L14.9641 15.887C15.525 15.39 16.0231 14.8255 16.4473 14.2063Z" fill="#D0ED27"/>
<path d="M7.707 13.9425C4.89835 11.0788 4.89835 6.92211 7.707 4.05846C9.03242 2.70652 11.3785 1.58408 13.1557 0.866858C12.362 0.451631 11.5106 0.159384 10.6302 0C9.05962 0.755664 7.50727 1.68871 6.4371 2.77964C2.95847 6.32658 2.95847 11.6751 6.4371 15.222C7.50708 16.313 9.05962 17.2462 10.6302 18.0009C11.5105 17.8414 12.3619 17.5494 13.1559 17.1348C11.3794 16.4176 9.03316 15.2942 7.707 13.9425Z" fill="#D0ED27"/>
<path d="M5.16643 16.502C0.972547 12.2268 0.972547 5.77776 5.16643 1.50179C5.64282 1.01539 6.19785 0.561241 6.79665 0.136719C2.89025 1.14365 0 4.73033 0 9.00255C0 13.274 2.89025 16.8617 6.79665 17.8678C6.19785 17.4433 5.64282 16.9884 5.16643 16.502ZM11.5163 7.89681C10.8275 8.59941 10.8275 9.40495 11.5163 10.1075C12.2366 10.8424 14.5593 11.8735 15.9582 12.3939H17.4108C17.642 11.8085 17.8119 11.2006 17.918 10.5799H16.2812L16.124 10.518C15.5832 10.3038 15.0493 10.0724 14.523 9.82422L12.991 9.10043C12.9725 9.09166 12.9569 9.07779 12.946 9.06044C12.9351 9.0431 12.9293 9.02299 12.9293 9.00246C12.9293 8.98193 12.9351 8.96182 12.946 8.94448C12.9569 8.92713 12.9725 8.91327 12.991 8.90449L14.5223 8.17995C15.0505 7.92998 15.5867 7.6974 16.1299 7.4826L16.279 7.42354H17.9167C17.81 6.80294 17.6401 6.19507 17.4095 5.60957H15.9567C14.5593 6.13084 12.2366 7.16196 11.5163 7.89681Z" fill="#D0ED27"/>
<path d="M26.7643 13.9986C25.879 13.9986 25.0976 13.8049 24.419 13.4179C23.7403 13.0308 23.2091 12.4957 22.8237 11.8131C22.4382 11.1314 22.2461 10.3449 22.2461 9.45427C22.2461 8.56397 22.4382 7.77812 22.8237 7.09558C23.2084 6.4138 23.7373 5.87864 24.4103 5.49087C25.0831 5.10404 25.8557 4.91016 26.7293 4.91016C27.5798 4.91016 28.3502 5.11567 29.0398 5.52556C29.7295 5.93621 30.2407 6.52293 30.5748 7.28572L28.7815 7.9795C28.5975 7.59755 28.3159 7.29172 27.937 7.06033C27.558 6.82876 27.1265 6.71306 26.6436 6.71306C26.1721 6.71306 25.7525 6.83176 25.3851 7.06839C25.0169 7.30578 24.7296 7.62924 24.523 8.03969C24.3164 8.45034 24.2124 8.92137 24.2124 9.45352C24.2124 9.98586 24.3186 10.4567 24.5318 10.8673C24.7442 11.278 25.0372 11.6016 25.4112 11.8388C25.7843 12.0762 26.2071 12.1942 26.6785 12.1942C27.1616 12.1942 27.5921 12.0704 27.9718 11.8212C28.3508 11.5728 28.6325 11.2345 28.8164 10.8062L30.6096 11.5C30.2765 12.2864 29.7673 12.8988 29.0834 13.3382C28.3996 13.779 27.6264 13.9986 26.7643 13.9986ZM34.6979 13.9986C33.6635 13.9986 32.8618 13.7672 32.2922 13.305C31.7234 12.8429 31.4389 12.1891 31.4389 11.3451C31.4389 10.4428 31.7407 9.75503 32.3438 9.2812C32.9477 8.80717 33.7894 8.56978 34.8704 8.56978H37.1807V10.0618H35.4908C34.7204 10.0618 34.1807 10.1687 33.8701 10.3824C33.5595 10.5962 33.4045 10.9 33.4045 11.2926C33.4045 11.6283 33.5398 11.8911 33.8097 12.082C34.0795 12.2731 34.4564 12.3682 34.9395 12.3682C35.3759 12.3682 35.7556 12.2701 36.0771 12.0732C36.3987 11.8763 36.6489 11.617 36.8272 11.2926C37.0053 10.9692 37.0942 10.605 37.0942 10.2004H37.663C37.663 11.3798 37.4273 12.3078 36.956 12.9843C36.4853 13.6603 35.7325 13.9986 34.6979 13.9986ZM37.1807 13.7908L37.0942 12.1602V9.33351C37.0942 8.74379 37.0338 8.24914 36.9131 7.85031C36.7922 7.45166 36.5966 7.14509 36.3268 6.93132C36.0568 6.71756 35.6974 6.61068 35.2494 6.61068C34.8354 6.61068 34.4732 6.6975 34.1633 6.87076C33.8526 7.04402 33.5886 7.31609 33.3704 7.68605L31.6804 7.06164C31.8644 6.67987 32.1081 6.32473 32.4129 5.99509C32.717 5.66563 33.1027 5.40256 33.5683 5.20567C34.0339 5.00879 34.5939 4.91091 35.2494 4.91091C36.0881 4.91091 36.7894 5.07592 37.3532 5.40537C37.9162 5.73501 38.333 6.20604 38.603 6.81919C38.8727 7.43235 39.0082 8.1717 39.0082 9.03931L38.9564 13.7916H37.1807V13.7908ZM40.4471 17.0385V5.11867H42.2577L42.3784 6.71438V17.0387L40.4471 17.0385ZM45.1028 13.9986C44.3783 13.9986 43.7549 13.8107 43.2317 13.4347C42.7087 13.0588 42.3093 12.5304 42.0335 11.8478C41.758 11.1659 41.6197 10.3676 41.6197 9.45446C41.6197 8.52928 41.758 7.7288 42.0335 7.05208C42.3093 6.37555 42.7087 5.84996 43.2317 5.474C43.7549 5.09804 44.3783 4.91016 45.1028 4.91016C45.884 4.91016 46.5657 5.09804 47.1461 5.474C47.7267 5.84996 48.1807 6.37611 48.5088 7.05208C48.8361 7.7288 49.0005 8.52928 49.0005 9.45446C49.0005 10.3676 48.8367 11.1659 48.5088 11.8478C48.1812 12.5304 47.7267 13.0588 47.1461 13.4347C46.5657 13.8107 45.8848 13.9986 45.1028 13.9986ZM44.6197 12.2296C45.0795 12.2296 45.4876 12.1109 45.844 11.8743C46.2006 11.6376 46.4849 11.3104 46.6973 10.8947C46.9097 10.4783 47.0159 9.99917 47.0159 9.45502C47.0159 8.9118 46.9156 8.43196 46.714 8.01551C46.5126 7.59923 46.2339 7.2754 45.8775 7.04402C45.5211 6.81263 45.1071 6.69675 44.6357 6.69675C44.1985 6.69675 43.808 6.81263 43.4631 7.04402C43.1182 7.2754 42.8512 7.59905 42.6614 8.01551C42.4715 8.43196 42.3769 8.9118 42.3769 9.45521C42.3769 9.99898 42.4715 10.4783 42.6614 10.8947C42.8512 11.311 43.1152 11.6376 43.4543 11.8743C43.7947 12.1109 44.1832 12.2296 44.6197 12.2296Z" fill="white"/>
</g>
</g>
<defs>
<clipPath id="clip0_9933_524846">
<rect width="49" height="18" fill="white"/>
</clipPath>
</defs>
</svg>
