<svg width="32" height="12" viewBox="0 0 32 12" fill="none" xmlns="http://www.w3.org/2000/svg">
<g clip-path="url(#clip0_9933_524855)">
<path fill-rule="evenodd" clip-rule="evenodd" d="M30.359 1.61556C27.1899 1.61619 21.659 1.61712 19.554 1.61712L19.97 0.738281H15.9531C15.9531 0.738281 15.8148 1.03133 15.5383 1.61712C13.043 1.61712 8.87772 1.6165 6.46927 1.61619C5.33386 1.61619 4.30148 2.26415 3.82144 3.27827L2.28621 6.52184C1.83977 7.46535 2.53891 8.54665 3.59538 8.54633L7.47596 8.54571L7.22136 8.9956C7.06409 9.2599 6.832 9.4233 6.53966 9.4233H1.57629L0.347656 11.8533L7.37101 11.8552C8.89293 11.8552 9.86031 11.5509 10.6352 9.91412L13.4108 4.04777H14.3934C13.9762 4.93192 13.1511 6.67524 12.4932 8.06458C12.0439 9.0134 12.7469 10.1006 13.8094 10.1006H17.8235L18.9722 7.66905H17.3066C17.0191 7.66905 16.8288 7.37506 16.9502 7.11825C17.4128 6.14037 18.3358 4.18992 18.4034 4.04777H21.5097L19.6101 8.06177C19.1605 9.01184 19.8644 10.1003 20.9282 10.1003H28.2096L29.3723 7.66905H24.5351C24.2371 7.66905 24.044 7.366 24.1657 7.09763C24.2437 6.92549 24.2872 6.8202 24.3005 6.79146H28.3453C29.4592 6.79146 30.4725 6.15537 30.9431 5.1603C31.0572 4.91911 31.359 4.27615 31.6637 3.63225C32.1086 2.69248 31.4123 1.61525 30.3596 1.61556H30.359ZM8.41416 6.1135H7.13289C6.8377 6.1135 6.64271 5.8117 6.76732 5.54802L7.47723 4.04777H9.392L8.41416 6.1135ZM26.0846 5.91355H24.6464L25.5294 4.04777L27.4455 4.04683L26.7638 5.48741C26.7035 5.61473 26.6076 5.72246 26.4874 5.79795C26.3671 5.87344 26.2275 5.91354 26.085 5.91355H26.0846Z" fill="white"/>
</g>
<defs>
<clipPath id="clip0_9933_524855">
<rect width="32" height="12" fill="white"/>
</clipPath>
</defs>
</svg>
