<svg width="73" height="20" viewBox="0 0 73 20" fill="none" xmlns="http://www.w3.org/2000/svg">
<g clip-path="url(#clip0_9933_524866)">
<path d="M5.54042 0.433594C4.80914 0.437225 4.08572 0.584986 3.41149 0.868465C2.73727 1.15194 2.12545 1.5656 1.61096 2.08576C1.09648 2.60592 0.689415 3.22242 0.413015 3.90005C0.136615 4.57768 -0.00369921 5.30316 7.41296e-05 6.03508V7.8853H4.50165V5.20471C4.5016 5.07882 4.52633 4.95416 4.57443 4.83784C4.62254 4.72152 4.69307 4.61583 4.782 4.5268C4.87093 4.43778 4.97652 4.36719 5.09273 4.31902C5.20894 4.27085 5.3335 4.24608 5.45928 4.2461H5.62157C5.74736 4.24608 5.87192 4.27086 5.98814 4.31902C6.10437 4.36719 6.20996 4.43778 6.29891 4.5268C6.38786 4.61583 6.45842 4.72152 6.50654 4.83784C6.55467 4.95416 6.57942 5.07881 6.5794 5.20471V12.3907C7.17054 12.3907 7.75595 12.2742 8.30211 12.0478C8.84827 11.8214 9.34453 11.4895 9.76258 11.0712C10.1806 10.6528 10.5121 10.1561 10.7384 9.6095C10.9646 9.06283 11.081 8.47696 11.081 7.8853V6.03508C11.0841 4.55213 10.5007 3.1282 9.45812 2.0745C8.94652 1.55453 8.33667 1.14166 7.66406 0.859945C6.99146 0.57823 6.26955 0.433289 5.54042 0.433594Z" fill="white"/>
<path d="M5.62178 16.0311H5.4595C5.33373 16.0312 5.20919 16.0064 5.093 15.9583C4.9768 15.9101 4.87122 15.8395 4.78229 15.7505C4.69336 15.6615 4.62282 15.5558 4.57471 15.4395C4.52659 15.3232 4.50184 15.1985 4.50186 15.0727V7.88672C3.91069 7.88672 3.3253 8.00319 2.77912 8.22959C2.23294 8.45599 1.73668 8.78785 1.31866 9.20619C0.900639 9.62459 0.569051 10.1213 0.342844 10.6679C0.116637 11.2146 0.000239636 11.8005 0.000290507 12.3921V14.2166C-0.00720899 14.9495 0.130561 15.6767 0.405631 16.3561C0.680702 17.0355 1.08761 17.6535 1.60284 18.1745C2.11806 18.6954 2.73137 19.109 3.40729 19.3913C4.08321 19.6735 4.80834 19.8188 5.54074 19.8188C6.27313 19.8188 6.99829 19.6735 7.67418 19.3913C8.35013 19.109 8.9634 18.6954 9.47861 18.1745C9.99383 17.6535 10.4008 17.0355 10.6758 16.3561C10.9509 15.6767 11.0887 14.9495 11.0812 14.2166V12.3921H6.57962V15.0727C6.57962 15.1986 6.55484 15.3232 6.5067 15.4395C6.45856 15.5558 6.388 15.6615 6.29906 15.7505C6.21011 15.8395 6.10452 15.9101 5.98831 15.9583C5.8721 16.0064 5.74756 16.0312 5.62178 16.0311Z" fill="white"/>
<path d="M18.7809 6.12109H17.2031V14.1318H21.8339V12.6215H18.7811L18.7809 6.12109Z" fill="white"/>
<path d="M26.8845 9.08442C26.662 8.80762 26.377 8.58756 26.0531 8.44236C25.729 8.29716 25.3753 8.23089 25.0207 8.24902C24.6503 8.24609 24.2836 8.32276 23.9453 8.47382C23.607 8.62489 23.305 8.84682 23.0598 9.12469C22.5332 9.71522 22.2422 10.479 22.2422 11.2705C22.2422 12.062 22.5332 12.8258 23.0598 13.4163C23.3051 13.694 23.6071 13.9159 23.9454 14.0669C24.2836 14.2179 24.6504 14.2945 25.0207 14.2916C25.8212 14.2916 26.4424 14.0132 26.8845 13.4562V14.1315H28.3596V8.40969H26.8845V9.08442ZM26.4331 12.4319C26.2843 12.581 26.1066 12.6979 25.9109 12.7756C25.7152 12.8534 25.5058 12.8902 25.2954 12.8838C25.0858 12.8906 24.877 12.8539 24.6822 12.7762C24.4874 12.6984 24.3107 12.5812 24.1632 12.4319C23.8761 12.1132 23.7172 11.6993 23.7172 11.2702C23.7172 10.8411 23.8761 10.4272 24.1632 10.1086C24.3108 9.95936 24.4874 9.84229 24.6823 9.76449C24.877 9.68676 25.0858 9.65009 25.2954 9.65676C25.5058 9.65049 25.7152 9.68736 25.9109 9.76502C26.1065 9.84276 26.2842 9.95962 26.4331 10.1086C26.7235 10.4256 26.8845 10.8401 26.8845 11.2702C26.8845 11.7003 26.7235 12.1148 26.4331 12.4319Z" fill="white"/>
<path d="M32.162 12.256L30.6708 8.41016H29.0586L31.4019 13.9492C31.3038 14.2797 31.111 14.5742 30.8472 14.796C30.5702 14.9841 30.2376 15.0729 29.9037 15.048V16.4214C30.5548 16.4816 31.2057 16.3047 31.7367 15.9231C32.2273 15.5525 32.6214 14.9588 32.919 14.1418L35.0033 8.41049H33.4254L32.162 12.256Z" fill="white"/>
<path d="M38.1942 8.24789C37.7921 8.23376 37.3914 8.30322 37.0175 8.45195C36.6436 8.60075 36.3046 8.82556 36.022 9.11216C35.4762 9.69936 35.1736 10.4723 35.1758 11.2743C35.1779 12.0764 35.4843 12.8476 36.0332 13.432C36.605 14.0041 37.3635 14.2902 38.3087 14.2903C39.406 14.2903 40.237 13.8822 40.8013 13.0661L39.6122 12.3792C39.461 12.5712 39.2655 12.7237 39.0424 12.8234C38.8193 12.923 38.5753 12.967 38.3315 12.9514C37.4548 12.9514 36.9173 12.5928 36.7192 11.8758H41.0299C41.0668 11.6756 41.0859 11.4726 41.0871 11.269C41.109 10.472 40.8151 9.69869 40.2697 9.11756C40.0055 8.83316 39.6837 8.60836 39.3258 8.45842C38.9678 8.30842 38.5821 8.23669 38.1942 8.24789ZM36.6965 10.7313C36.7617 10.3951 36.944 10.093 37.2108 9.87849C37.4946 9.66855 37.8414 9.56162 38.194 9.57536C38.5164 9.57116 38.8314 9.67162 39.0919 9.86162C39.3689 10.0752 39.5548 10.3859 39.612 10.7312L36.6965 10.7313Z" fill="white"/>
<path d="M43.5962 9.39147V8.40707H42.1211V14.1291H43.5962V11.3941C43.5962 10.8448 43.7734 10.4518 44.1278 10.2153C44.4827 9.97867 44.9121 9.88094 45.3343 9.9406V8.29314C44.9635 8.2884 44.5983 8.3832 44.2765 8.56774C43.9588 8.75227 43.7175 9.04447 43.5962 9.39147Z" fill="white"/>
<path d="M52.5263 7.36003V6.12109H47.2797V7.63177H50.5272L47.1953 12.8702V14.1316H52.59V12.6213H49.194L52.5263 7.36003Z" fill="white"/>
<path d="M56.0695 8.24789C55.6673 8.23376 55.2666 8.30322 54.8927 8.45195C54.5188 8.60075 54.1797 8.82556 53.8971 9.11216C53.3512 9.69936 53.0486 10.4723 53.0508 11.2744C53.0529 12.0764 53.3595 12.8478 53.9084 13.432C54.4803 14.0041 55.2387 14.2902 56.1838 14.2903C57.2811 14.2903 58.112 13.8822 58.6765 13.0661L57.4872 12.3792C57.3361 12.5712 57.1405 12.7236 56.9175 12.8233C56.6944 12.923 56.4506 12.967 56.2068 12.9514C55.3299 12.9514 54.7925 12.5928 54.5946 11.8758H58.9054C58.9421 11.6756 58.9611 11.4726 58.9623 11.269C58.9842 10.472 58.6903 9.69869 58.1449 9.11756C57.8807 8.83316 57.559 8.60836 57.201 8.45842C56.8431 8.30842 56.4573 8.23662 56.0695 8.24789ZM54.5717 10.7313C54.637 10.395 54.8193 10.0929 55.0863 9.87849C55.37 9.66849 55.7168 9.56149 56.0695 9.57536C56.3918 9.57102 56.7068 9.67149 56.9673 9.86162C57.2443 10.0751 57.4302 10.3859 57.4872 10.7312L54.5717 10.7313Z" fill="white"/>
<path d="M61.4673 9.39147V8.40707H59.9922V14.1291H61.4673V11.3941C61.4673 10.8448 61.6445 10.4518 61.9989 10.2152C62.3537 9.97867 62.7831 9.88093 63.2052 9.9406V8.29313C62.8345 8.28847 62.4693 8.38327 62.1476 8.56773C61.8298 8.75227 61.5885 9.0444 61.4673 9.39147Z" fill="white"/>
<path d="M66.5655 8.24686C65.8734 8.25452 65.2054 8.50166 64.6747 8.94639C64.144 9.39106 63.7834 10.0059 63.6542 10.6864C63.5251 11.3669 63.6352 12.0713 63.9659 12.6797C64.2967 13.2883 64.8277 13.7634 65.4687 14.0245C66.1098 14.2857 66.8214 14.3167 67.4828 14.1124C68.1438 13.908 68.7144 13.4809 69.0968 12.9035C69.4792 12.3261 69.65 11.6341 69.5804 10.9449C69.5107 10.2557 69.2053 9.61179 68.7151 9.12259C68.4358 8.83706 68.1009 8.61199 67.7313 8.46132C67.3616 8.31072 66.9647 8.23772 66.5655 8.24686ZM67.6743 12.4011C67.5297 12.5473 67.3569 12.6622 67.166 12.7389C66.9751 12.8155 66.771 12.8523 66.5655 12.8469C66.3608 12.8527 66.1571 12.8161 65.9671 12.7394C65.7771 12.6627 65.6051 12.5475 65.4617 12.4011C65.1786 12.0918 65.0216 11.6875 65.0216 11.2681C65.0216 10.8486 65.1786 10.4444 65.4617 10.1351C65.6051 9.98872 65.7771 9.87352 65.9671 9.79686C66.1571 9.72012 66.3608 9.68346 66.5655 9.68926C66.771 9.68386 66.9751 9.72072 67.166 9.79739C67.3569 9.87406 67.5297 9.98892 67.6743 10.1351C67.961 10.4426 68.1204 10.8475 68.1204 11.2681C68.1204 11.6887 67.961 12.0936 67.6743 12.4011Z" fill="white"/>
<path d="M72.6901 12.3711H70.8945V14.1335H72.6901V12.3711Z" fill="white"/>
</g>
<defs>
<clipPath id="clip0_9933_524866">
<rect width="73" height="20" fill="white"/>
</clipPath>
</defs>
</svg>
