<svg width="80" height="10" viewBox="0 0 80 10" fill="none" xmlns="http://www.w3.org/2000/svg">
<g clip-path="url(#clip0_9933_524830)">
<mask id="mask0_9933_524830" style="mask-type:luminance" maskUnits="userSpaceOnUse" x="0" y="0" width="80" height="10">
<path d="M80 0H0V10H80V0Z" fill="white"/>
</mask>
<g mask="url(#mask0_9933_524830)">
<path d="M77.7892 2.33769H77.7845L77.408 1.23828H76.9102V2.81364C76.9958 2.76864 77.0931 2.73034 77.199 2.69969V1.71615L77.2039 1.58974L77.6449 2.62786C77.7017 2.62307 77.718 2.62115 77.7767 2.62115C77.8355 2.62115 77.8509 2.62403 77.9077 2.62786L78.3488 1.57825L78.3535 1.70466V2.69969C78.4586 2.73034 78.5557 2.76864 78.6424 2.81364V1.23828H78.1446L77.7883 2.33769H77.7892Z" fill="white"/>
<path d="M77.3772 3.41233C77.484 3.41233 77.5707 3.32614 77.5707 3.21983C77.5707 3.11353 77.484 3.02734 77.3772 3.02734C77.2703 3.02734 77.1836 3.11353 77.1836 3.21983C77.1836 3.32614 77.2703 3.41233 77.3772 3.41233Z" fill="white"/>
<path d="M78.174 3.41233C78.2808 3.41233 78.3675 3.32614 78.3675 3.21983C78.3675 3.11353 78.2808 3.02734 78.174 3.02734C78.067 3.02734 77.9805 3.11353 77.9805 3.21983C77.9805 3.32614 78.067 3.41233 78.174 3.41233Z" fill="white"/>
<path d="M77.7752 0C76.5483 0 75.5508 0.992145 75.5508 2.21222C75.5508 3.4323 76.5483 4.42445 77.7752 4.42445C79.0019 4.42445 79.9995 3.4323 79.9995 2.21222C79.9995 0.992145 79.0019 0 77.7752 0ZM77.7752 4.12948C76.7121 4.12948 75.8473 3.26949 75.8473 2.21222C75.8473 1.15495 76.7121 0.294963 77.7752 0.294963C78.8382 0.294963 79.7029 1.15495 79.7029 2.21222C79.7029 3.26949 78.8382 4.12948 77.7752 4.12948Z" fill="white"/>
<path d="M10.7675 2.45018V9.98804H6.64997V7.47316L5.37795 8.97956L4.11651 7.48369V9.98804H0V2.45018H4.11748V2.46071L5.37891 3.95659L6.65094 2.45496V2.44922H10.7684L10.7675 2.45018Z" fill="white"/>
<path d="M15.719 3.95564V5.4678H21.1027V6.97422H15.719V8.48064H21.1027V9.98708H11.6016V2.44922H21.1027V3.95564H15.719Z" fill="white"/>
<path d="M31.3001 2.46094V3.96736H26.7031C26.4845 3.97118 26.2996 4.04588 26.1485 4.19336C25.9934 4.33989 25.9164 4.51706 25.9164 4.72391C25.9164 4.73062 25.9144 5.77544 25.9116 7.85741C25.9183 8.0499 25.9885 8.20216 26.1224 8.31422C26.2524 8.42244 26.4248 8.47894 26.6395 8.48181H27.1836V5.47952H31.3011V9.99974H22.6607C22.4248 9.99974 22.2226 9.91928 22.054 9.75837C21.8855 9.60128 21.8008 9.40883 21.8008 9.18092V3.28071C21.8008 3.05278 21.8855 2.86125 22.054 2.70323C22.2226 2.54235 22.4248 2.4619 22.6607 2.4619H31.3011L31.3001 2.46094Z" fill="white"/>
<path d="M38.4044 8.48064H36.5046L36.1878 9.98708H32.0703L33.6533 2.44922H41.2537L42.8368 9.98708H38.7193L38.4025 8.48064H38.4044ZM38.0877 6.97422L37.4541 3.95564L36.8204 6.97422H38.0877Z" fill="white"/>
<path d="M47.7268 3.95564V5.4678H53.1106V6.97422H47.7268V8.48064H53.1106V9.98708H43.6094V2.44922H53.1106V3.95564H47.7268Z" fill="white"/>
<path d="M63.3293 3.95564H60.637V9.98708H56.5204V3.95564H53.8281V2.44922H63.3293V3.95564Z" fill="white"/>
<path d="M74.8338 2.44922V9.98708H70.7174V6.97422H68.1838V9.98708H64.0664V2.44922H68.1838V5.4678H70.7174V2.44922H74.8338Z" fill="white"/>
</g>
</g>
<defs>
<clipPath id="clip0_9933_524830">
<rect width="80" height="10" fill="white"/>
</clipPath>
</defs>
</svg>
