<svg xmlns="http://www.w3.org/2000/svg" width="24" height="24" viewBox="0 0 24 24" fill="none">
<path d="M0 4C0 2.89543 0.895431 2 2 2H22C23.1046 2 24 2.89543 24 4V20C24 21.1046 23.1046 22 22 22H2C0.89543 22 0 21.1046 0 20V4Z" fill="white"/>
<path d="M14.435 7.62726H9.56921V16.3702H14.435V7.62726Z" fill="#FF5F00"/>
<path d="M9.87818 11.9987C9.87818 10.2995 10.666 8.67759 11.9944 7.6272C9.58469 5.72722 6.07823 6.14429 4.17825 8.56946C2.29372 10.9792 2.71079 14.4702 5.13596 16.3702C7.15951 17.9612 9.98631 17.9612 12.0099 16.3702C10.666 15.3198 9.87818 13.6979 9.87818 11.9987Z" fill="#EB001B"/>
<path d="M21 11.9987C21 15.0726 18.5131 17.5596 15.4391 17.5596C14.1879 17.5596 12.983 17.1425 12.0099 16.3702C14.4196 14.4702 14.8367 10.9792 12.9367 8.55401C12.6587 8.21418 12.3497 7.88979 12.0099 7.6272C14.4196 5.72722 17.9261 6.14429 19.8106 8.56946C20.583 9.54262 21 10.7475 21 11.9987Z" fill="#F79E1B"/>
</svg>