<svg xmlns="http://www.w3.org/2000/svg" width="24" height="24" viewBox="0 0 24 24" fill="none">
<path d="M0 4C0 2.89543 0.895431 2 2 2H22C23.1046 2 24 2.89543 24 4V20C24 21.1046 23.1046 22 22 22H2C0.89543 22 0 21.1046 0 20V4Z" fill="#1534CB"/>
<path d="M12.3435 10.8361C12.3321 11.7358 13.1453 12.2378 13.7579 12.5363C14.3873 12.8426 14.5987 13.039 14.5962 13.3129C14.5915 13.732 14.0941 13.917 13.6288 13.9242C12.8168 13.9368 12.3447 13.705 11.9694 13.5297L11.6769 14.8983C12.0534 15.0719 12.7507 15.2232 13.4738 15.2298C15.171 15.2298 16.2814 14.392 16.2874 13.093C16.2941 11.4444 14.0071 11.3532 14.0227 10.6163C14.0281 10.3929 14.2413 10.1544 14.7085 10.0938C14.9398 10.0632 15.5781 10.0398 16.3019 10.373L16.5859 9.04881C16.1967 8.9071 15.6965 8.77139 15.0737 8.77139C13.4762 8.77139 12.3526 9.62061 12.3435 10.8361ZM19.3155 8.88546C19.0055 8.88546 18.7444 9.06624 18.6278 9.34366L16.2034 15.1326H17.8994L18.2369 14.1998H20.3094L20.5052 15.1326H22L20.6955 8.88546H19.3155ZM19.5527 10.573L20.0422 12.9189H18.7017L19.5527 10.573ZM10.2872 8.88553L8.95031 15.1325H10.5665L11.9027 8.88538L10.2872 8.88553ZM7.89633 8.88553L6.21414 13.1375L5.53367 9.5221C5.45383 9.1185 5.13852 8.88546 4.78836 8.88546H2.03852L2 9.06686C2.56453 9.18936 3.20594 9.38694 3.59453 9.59835C3.83234 9.72749 3.90016 9.84038 3.97828 10.1473L5.26711 15.1326H6.975L9.59344 8.88546L7.89633 8.88553Z" fill="white"/>
</svg>