<svg xmlns="http://www.w3.org/2000/svg" width="24" height="24" viewBox="0 0 24 24" fill="none">
  <path d="M12.866 3.00002L22.392 19.5C22.4797 19.652 22.5259 19.8245 22.5259 20C22.5259 20.1755 22.4797 20.348 22.392 20.5C22.3042 20.652 22.178 20.7783 22.026 20.866C21.8739 20.9538 21.7015 21 21.526 21H2.47397C2.29844 21 2.126 20.9538 1.97398 20.866C1.82197 20.7783 1.69573 20.652 1.60797 20.5C1.5202 20.348 1.474 20.1755 1.474 20C1.474 19.8245 1.52021 19.652 1.60797 19.5L11.134 3.00002C11.2217 2.84801 11.348 2.72178 11.5 2.63402C11.652 2.54626 11.8244 2.50006 12 2.50006C12.1755 2.50006 12.3479 2.54626 12.5 2.63402C12.652 2.72178 12.7782 2.84801 12.866 3.00002ZM4.20597 19H19.794L12 5.50002L4.20597 19ZM11 16H13V18H11V16ZM11 9.00002H13V14H11V9.00002Z" fill="currentColor"/>
</svg>
