<svg xmlns="http://www.w3.org/2000/svg" width="24" height="24" viewBox="0 0 24 24" fill="none">
<path fill-rule="evenodd" clip-rule="evenodd" d="M2 14V20H22V14C21.4513 14.0013 20.9807 13.8057 20.588 13.413C20.1953 13.0203 19.9993 12.5493 20 12C20.0007 11.4507 20.1967 10.98 20.588 10.588C20.9793 10.196 21.45 10 22 10V4H2V10C2.55133 10.0013 3.02233 10.1973 3.413 10.588C3.80367 10.9787 3.99933 11.4493 4 12C4.00067 12.5507 3.805 13.0217 3.413 13.413C3.021 13.8043 2.55 14 2 14ZM20 18H4V15.45C4.618 15.0847 5.10567 14.5973 5.463 13.988C5.82033 13.3787 5.99933 12.716 6 12C6.00067 11.284 5.82167 10.6217 5.463 10.013C5.10433 9.40433 4.61667 8.91667 4 8.55V6H20V8.55C19.3833 8.918 18.896 9.40567 18.538 10.013C18.18 10.6203 18.0007 11.2827 18 12C17.9993 12.7173 18.1783 13.38 18.537 13.988C18.8957 14.596 19.3833 15.0833 20 15.45V18Z" fill="white"/>
<path d="M12.175 13H8V11H12.175L11.1 9.9L12.5 8.5L16 12L12.5 15.5L11.075 14.075L12.175 13Z" fill="currentColor"/>
</svg>
