<svg xmlns="http://www.w3.org/2000/svg" width="24" height="24" viewBox="0 0 24 24" fill="none">
  <path d="M11.025 21V18.85C10.1417 18.65 9.37935 18.2667 8.73801 17.7C8.09668 17.1333 7.62568 16.3333 7.32501 15.3L9.17501 14.55C9.42501 15.35 9.79601 15.9583 10.288 16.375C10.78 16.7917 11.4257 17 12.225 17C12.9083 17 13.4877 16.846 13.963 16.538C14.4383 16.23 14.6757 15.7507 14.675 15.1C14.675 14.5167 14.4917 14.0543 14.125 13.713C13.7583 13.3717 12.9083 12.984 11.575 12.55C10.1417 12.1 9.15835 11.5627 8.62501 10.938C8.09168 10.3133 7.82501 9.55067 7.82501 8.65C7.82501 7.56667 8.17501 6.725 8.87501 6.125C9.57501 5.525 10.2917 5.18333 11.025 5.1V3H13.025V5.1C13.8583 5.23333 14.546 5.53767 15.088 6.013C15.63 6.48833 16.0257 7.06733 16.275 7.75L14.425 8.55C14.225 8.01667 13.9417 7.61667 13.575 7.35C13.2083 7.08333 12.7083 6.95 12.075 6.95C11.3417 6.95 10.7833 7.11267 10.4 7.438C10.0167 7.76333 9.82501 8.16733 9.82501 8.65C9.82501 9.2 10.075 9.63333 10.575 9.95C11.075 10.2667 11.9417 10.6 13.175 10.95C14.325 11.2833 15.196 11.8127 15.788 12.538C16.38 13.2633 16.6757 14.1007 16.675 15.05C16.675 16.2333 16.325 17.1333 15.625 17.75C14.925 18.3667 14.0583 18.75 13.025 18.9V21H11.025Z" fill="currentColor"/>
</svg>
