<svg width="24" height="24" viewBox="0 0 24 24" fill="currentColor" xmlns="http://www.w3.org/2000/svg">
<path d="M6 20C5.45 20 4.97933 19.8043 4.588 19.413C4.19667 19.0217 4.00067 18.5507 4 18V14C4 13.45 4.196 12.9793 4.588 12.588C4.98 12.1967 5.45067 12.0007 6 12C6.54933 11.9993 7.02033 12.1953 7.413 12.588C7.80567 12.9807 8.00133 13.4513 8 14V18C8 18.55 7.80433 19.021 7.413 19.413C7.02167 19.805 6.55067 20.0007 6 20ZM12 20C11.45 20 10.9793 19.8043 10.588 19.413C10.1967 19.0217 10.0007 18.5507 10 18V6C10 5.45 10.196 4.97933 10.588 4.588C10.98 4.19667 11.4507 4.00067 12 4C12.5493 3.99934 13.0203 4.19533 13.413 4.588C13.8057 4.98067 14.0013 5.45133 14 6V18C14 18.55 13.8043 19.021 13.413 19.413C13.0217 19.805 12.5507 20.0007 12 20ZM18 20C17.45 20 16.9793 19.8043 16.588 19.413C16.1967 19.0217 16.0007 18.5507 16 18V11C16 10.45 16.196 9.97934 16.588 9.588C16.98 9.19667 17.4507 9.00067 18 9C18.5493 8.99934 19.0203 9.19534 19.413 9.588C19.8057 9.98067 20.0013 10.4513 20 11V18C20 18.55 19.8043 19.021 19.413 19.413C19.0217 19.805 18.5507 20.0007 18 20Z" />
</svg>
