<svg width="24" height="24" viewBox="0 0 24 24" fill="none" xmlns="http://www.w3.org/2000/svg">
<path d="M21.9739 11.2993C21.9893 11.5262 22 11.7537 22 11.9848C22.0003 13.8322 21.4906 15.6437 20.5272 17.2189C19.5638 18.794 18.1841 20.0713 16.5411 20.9096C14.898 21.7479 13.0553 22.1146 11.2172 21.9688C9.37903 21.8232 7.61697 21.1708 6.12592 20.084C11.5793 19.3073 18.3221 16.7562 21.9739 11.2993Z" fill="black"/>
<path d="M11.8724 2.00071C13.2629 1.98415 14.6417 2.25856 15.9203 2.80647C17.1989 3.35437 18.3491 4.16375 19.2977 5.18263C20.2461 6.20152 20.972 7.40756 21.4286 8.72358C21.505 8.94637 21.5251 9.18463 21.4873 9.41713C21.4494 9.64966 21.3547 9.86927 21.2117 10.0562C20.2254 11.344 18.9825 12.4151 17.7561 13.3055V7.26055C17.7561 7.03519 17.6668 6.81898 17.5078 6.65953C17.3488 6.50008 17.1331 6.41052 16.9081 6.41029H15.4935C15.2685 6.41035 15.0526 6.4999 14.8935 6.65937C14.7344 6.81884 14.6451 7.03507 14.6451 7.26055V14.6014C14.6449 14.7408 14.6038 14.8771 14.5269 14.9933C14.45 15.1094 14.3406 15.2003 14.2125 15.2546C13.8704 15.3994 13.5189 15.5419 13.5134 15.5442V9.3865C13.5134 9.16098 13.4239 8.94465 13.2648 8.78517C13.1056 8.62566 12.8897 8.53614 12.6646 8.53609H11.2485C11.0234 8.53614 10.8075 8.62567 10.6483 8.78517C10.4892 8.94465 10.3997 9.16098 10.3997 9.3865V16.0209C10.3997 16.1805 10.3458 16.3355 10.2469 16.4607C10.1479 16.5858 10.0097 16.6738 9.85456 16.7104C9.63063 16.7632 9.42704 16.8136 9.26804 16.8608V11.512C9.26803 11.2865 9.17859 11.0703 9.01943 10.9108C8.86027 10.7513 8.64447 10.6617 8.41939 10.6617L7.00755 10.657C6.89593 10.6565 6.7853 10.6781 6.68203 10.7206C6.57875 10.763 6.48487 10.8255 6.40574 10.9044C6.32664 10.9832 6.26387 11.0769 6.22102 11.1802C6.18351 11.2706 6.16195 11.3667 6.15714 11.4643L6.15665 11.506V16.8149C6.15647 16.9887 6.09254 17.1565 5.97692 17.2861C5.86132 17.4157 5.70212 17.4981 5.52974 17.5178C5.13366 17.5643 4.80048 17.5977 4.5329 17.6213C4.29335 17.6427 4.05257 17.5954 3.83904 17.4846C3.62551 17.3737 3.44801 17.204 3.32735 16.9956C2.63475 15.7874 2.20151 14.4478 2.05534 13.0622C1.90918 11.6767 2.05332 10.2758 2.47854 8.94929C2.90376 7.62275 3.60065 6.39971 4.52469 5.35852C5.44875 4.31732 6.57969 3.48091 7.84494 2.90271C9.11015 2.32452 10.4819 2.01727 11.8724 2.00071Z" fill="black"/>
</svg>
