<svg xmlns="http://www.w3.org/2000/svg" width="24" height="24" viewBox="0 0 24 24" fill="none">
  <path d="M7.5 22C6.53333 22 5.70833 21.6583 5.025 20.975C4.34167 20.2917 4 19.4667 4 18.5V5.5C4 4.53333 4.34167 3.70833 5.025 3.025C5.70833 2.34167 6.53333 2 7.5 2H20V17C19.5833 17 19.2293 17.146 18.938 17.438C18.6467 17.73 18.5007 18.084 18.5 18.5C18.4993 18.916 18.6453 19.2703 18.938 19.563C19.2307 19.8557 19.5847 20.0013 20 20V22H7.5ZM6 15.325C6.23333 15.2083 6.475 15.125 6.725 15.075C6.975 15.025 7.23333 15 7.5 15H8V4H7.5C7.08333 4 6.72933 4.146 6.438 4.438C6.14667 4.73 6.00067 5.084 6 5.5V15.325ZM10 15H18V4H10V15ZM7.5 20H16.825C16.725 19.7667 16.646 19.5293 16.588 19.288C16.53 19.0467 16.5007 18.784 16.5 18.5C16.5 18.2333 16.525 17.975 16.575 17.725C16.625 17.475 16.7083 17.2333 16.825 17H7.5C7.06667 17 6.70833 17.146 6.425 17.438C6.14167 17.73 6 18.084 6 18.5C6 18.9333 6.14167 19.2917 6.425 19.575C6.70833 19.8583 7.06667 20 7.5 20Z" fill="currentColor"/>
</svg>
