<svg width="24" height="24" viewBox="0 0 24 24" fill="currentColor" xmlns="http://www.w3.org/2000/svg">
<path d="M12.1884 2C16.7699 2 20.6468 4.96809 21.9285 9.05341C22.0168 9.33605 22.1284 9.81295 21.5476 10.2348C20.9404 10.6705 20.2432 10.9647 19.5075 11.0954L19.5051 11.0783C19.4426 10.7341 19.3429 10.3939 19.2097 10.0638C19.8169 9.97233 20.3942 9.73961 20.895 9.38398L20.8901 9.36688C20.6062 8.46342 20.1792 7.61121 19.6247 6.84367C19.0723 6.07967 18.4038 5.40671 17.644 4.84888C16.0607 3.68332 14.1734 3.06742 12.1876 3.06742C10.9722 3.06504 9.768 3.30347 8.64526 3.76926C7.56676 4.21543 6.58425 4.86536 5.75149 5.68344C4.92244 6.49405 4.2599 7.45919 3.80088 8.52418C3.32676 9.62469 3.08557 10.7944 3.08557 12.0016C3.08358 13.1972 3.32726 14.3806 3.80088 15.4783C4.25988 16.5432 4.92243 17.5084 5.75149 18.319C6.58425 19.1371 7.56677 19.787 8.64526 20.2332C9.76678 20.6984 10.9594 20.935 12.1876 20.935C14.1503 20.9425 16.064 20.3178 17.644 19.1527C18.4033 18.5947 19.0711 17.9211 19.6231 17.1571C20.1777 16.3898 20.6052 15.5381 20.8893 14.6347C20.8909 14.6289 20.8917 14.6227 20.8942 14.6177C20.393 14.2622 19.8154 14.0296 19.208 13.9378C19.3416 13.611 19.4406 13.2706 19.5042 12.9233L19.5075 12.907C20.2428 13.0375 20.9398 13.3315 21.5468 13.7668C22.1283 14.1895 22.016 14.6656 21.9277 14.9466C20.646 19.0318 16.7707 22 12.1876 22C6.56135 21.9998 2.00005 17.5225 2 12.0008C2 6.47824 6.5613 2.00103 12.1884 2Z" />
<path d="M13.2504 5.03778C15.1452 5.03778 16.8974 6.0302 17.845 7.64159L18.8784 9.39863C19.0021 9.60886 19.1112 9.8277 19.204 10.0532L19.2097 10.0663H19.208C18.9751 10.103 18.7391 10.1209 18.5033 10.1208C16.9594 10.1208 16.3788 9.61585 15.708 9.03143C15.0606 8.4687 14.2546 7.76788 12.7882 7.76779H11.9117C10.8511 7.76787 9.8869 8.14586 9.197 8.83195C8.52301 9.50142 8.1513 10.4184 8.1513 11.413V12.5903C8.15134 13.5806 8.52027 14.4937 9.18886 15.1624C9.19198 15.1655 9.19469 15.169 9.19781 15.1721C9.88779 15.8583 10.8526 16.2355 11.9134 16.2355H12.7882C14.2555 16.2354 15.0614 15.5346 15.708 14.971C16.3803 14.3867 16.9604 13.8833 18.5049 13.8832C18.7404 13.8832 18.9762 13.9019 19.2088 13.9386L19.204 13.9516C19.1123 14.1751 19.0034 14.3936 18.8784 14.6063L17.845 16.3625C16.8967 17.9733 15.1453 18.9663 13.2504 18.9663H11.1842C9.28847 18.9663 7.53551 17.9741 6.58805 16.3625L5.55456 14.6063C5.08921 13.8176 4.84414 12.9183 4.84413 12.0024C4.84413 11.0866 5.08923 10.1873 5.55456 9.39863L6.58805 7.64159C7.53637 6.03091 9.28854 5.03778 11.1842 5.03778H13.2504Z" />
<path d="M12.7882 8.83521C15.1387 8.83533 14.9547 11.1873 18.5041 11.1874C18.8405 11.1877 19.1765 11.158 19.5075 11.0979C19.6152 11.6961 19.6152 12.3088 19.5075 12.907C19.1801 12.847 18.844 12.8166 18.5033 12.8166C14.9547 12.8168 15.1387 15.1695 12.7874 15.1697H11.9126C10.2985 15.1697 9.23774 14.0384 9.23769 12.5911V11.4138C9.23769 9.9664 10.2993 8.83521 11.9126 8.83521H12.7882Z" fill="white"/>
</svg>
