<svg xmlns="http://www.w3.org/2000/svg" width="24" height="24" viewBox="0 0 24 24" fill="none">
  <path d="M12.225 12.5L14.5 11.125L16.775 12.5L16.175 9.9L18.175 8.175L15.55 7.95L14.5 5.5L13.45 7.95L10.825 8.175L12.825 9.9L12.225 12.5ZM5.7 21.875C5.15 21.9583 4.65434 21.8293 4.213 21.488C3.77167 21.1467 3.51734 20.7007 3.45 20.15L2.125 9.225C2.05834 8.675 2.19167 8.18333 2.525 7.75C2.85834 7.31667 3.3 7.06667 3.85 7L5 6.85V15C5 16.1 5.39167 17.0417 6.175 17.825C6.95834 18.6083 7.9 19 9 19H18.3C18.2 19.4 18 19.746 17.7 20.038C17.4 20.33 17.0333 20.5007 16.6 20.55L5.7 21.875ZM9 17C8.45 17 7.97934 16.8043 7.588 16.413C7.19667 16.0217 7.00067 15.5507 7 15V4C7 3.45 7.196 2.97933 7.588 2.588C7.98 2.19667 8.45067 2.00067 9 2H20C20.55 2 21.021 2.196 21.413 2.588C21.805 2.98 22.0007 3.45067 22 4V15C22 15.55 21.8043 16.021 21.413 16.413C21.0217 16.805 20.5507 17.0007 20 17H9Z" fill="currentColor"/>
</svg>
