<svg width="24" height="24" viewBox="0 0 24 24" fill="currentColor" xmlns="http://www.w3.org/2000/svg">
<path d="M8.99997 17C8.99986 16.4696 8.78907 15.961 8.41397 15.586C8.08673 15.2589 7.65619 15.0553 7.19569 15.01C6.7352 14.9647 6.27325 15.0805 5.88856 15.3377C5.50386 15.5948 5.22023 15.9774 5.08599 16.4202C4.95175 16.863 4.9752 17.3387 5.15235 17.7661C5.32951 18.1936 5.6494 18.5464 6.05752 18.7644C6.46564 18.9825 6.93674 19.0523 7.39054 18.9619C7.84435 18.8716 8.25279 18.6266 8.54626 18.2689C8.83973 17.9112 9.00007 17.4627 8.99997 17ZM19 17C19 16.4696 18.7893 15.9609 18.4142 15.5858C18.0391 15.2107 17.5304 15 17 15C16.4695 15 15.9608 15.2107 15.5858 15.5858C15.2107 15.9609 15 16.4696 15 17C15 17.5304 15.2107 18.0391 15.5858 18.4142C15.9608 18.7893 16.4695 19 17 19C17.5304 19 18.0391 18.7893 18.4142 18.4142C18.7893 18.0391 19 17.5304 19 17ZM8.99997 7C8.99997 6.46957 8.78926 5.96086 8.41419 5.58579C8.03911 5.21071 7.53041 5 6.99997 5C6.46954 5 5.96083 5.21071 5.58576 5.58579C5.21069 5.96086 4.99997 6.46957 4.99997 7C4.99997 7.53043 5.21069 8.03914 5.58576 8.41421C5.96083 8.78929 6.46954 9 6.99997 9C7.53041 9 8.03911 8.78929 8.41419 8.41421C8.78926 8.03914 8.99997 7.53043 8.99997 7ZM19 7C19 6.46957 18.7893 5.96086 18.4142 5.58579C18.0391 5.21071 17.5304 5 17 5C16.4695 5 15.9608 5.21071 15.5858 5.58579C15.2107 5.96086 15 6.46957 15 7C15 7.53043 15.2107 8.03914 15.5858 8.41421C15.9608 8.78929 16.4695 9 17 9C17.5304 9 18.0391 8.78929 18.4142 8.41421C18.7893 8.03914 19 7.53043 19 7ZM21 17C21 18.0609 20.5785 19.0783 19.8284 19.8284C19.0783 20.5786 18.0608 21 17 21C15.9391 21 14.9217 20.5786 14.1715 19.8284C13.4214 19.0783 13 18.0609 13 17C13 15.9391 13.4214 14.9217 14.1715 14.1716C14.9217 13.4214 15.9391 13 17 13C18.0608 13 19.0783 13.4214 19.8284 14.1716C20.5785 14.9217 21 15.9391 21 17ZM11 7C11 8.06087 10.5785 9.07828 9.8284 9.82843C9.07826 10.5786 8.06084 11 6.99997 11C5.93911 11 4.92169 10.5786 4.17155 9.82843C3.4214 9.07828 2.99997 8.06087 2.99997 7C2.99997 5.93913 3.4214 4.92172 4.17155 4.17157C4.92169 3.42143 5.93911 3 6.99997 3C8.06084 3 9.07826 3.42143 9.8284 4.17157C10.5785 4.92172 11 5.93913 11 7ZM21 7C20.9999 7.70525 20.8134 8.39795 20.4593 9.00787C20.1052 9.61778 19.5961 10.1232 18.9837 10.473C18.3713 10.8228 17.6773 11.0044 16.9721 10.9995C16.2668 10.9946 15.5754 10.8033 14.968 10.445L10.445 14.968C10.9395 15.8067 11.1111 16.7969 10.9277 17.753C10.7444 18.7092 10.2186 19.5657 9.44888 20.1619C8.67921 20.7581 7.71851 21.0531 6.74686 20.9917C5.77521 20.9302 4.85934 20.5165 4.17091 19.8281C3.48248 19.1396 3.06876 18.2238 3.00731 17.2521C2.94586 16.2805 3.24089 15.3198 3.8371 14.5501C4.43332 13.7804 5.28977 13.2546 6.24594 13.0712C7.2021 12.8879 8.19232 13.0595 9.03097 13.554L13.554 9.031C13.2417 8.50112 13.0558 7.90635 13.0107 7.29294C12.9657 6.67952 13.0627 6.06398 13.2942 5.49416C13.5258 4.92433 13.8856 4.41559 14.3458 4.00745C14.8059 3.59932 15.354 3.30281 15.9474 3.14095C16.5408 2.97909 17.1635 2.95626 17.7671 3.07423C18.3708 3.19219 18.9391 3.44777 19.4279 3.82111C19.9167 4.19445 20.3128 4.67548 20.5855 5.22681C20.8581 5.77815 21 6.38493 21 7Z" />
</svg>
