<svg width="24" height="24" viewBox="0 0 24 24" fill="none" xmlns="http://www.w3.org/2000/svg">
<path d="M18.0913 6.45737C18.5947 7.45297 18.856 8.44513 18.856 9.56107L18.855 11.332L18.8648 12.2502C18.9013 14.504 19.3946 16.7843 20.5124 18.8712L18.1734 17.0074L16.5179 19.6613L14.7793 18.0439L12.0012 22.5L9.22313 18.0439L7.48451 19.6613L5.82901 17.0074L3.48999 18.8712C4.60779 16.7843 5.1011 14.504 5.13767 12.2502L5.14745 11.332L5.14647 9.56107C5.14647 8.44491 5.40839 7.45303 5.91213 6.45737L6.06859 6.16597C6.37658 6.59415 6.75934 7.074 7.19409 7.50758L7.05817 7.78627C6.79445 8.32746 6.70715 8.93275 6.91247 9.50826C7.04494 9.87902 7.28725 10.1974 7.59892 10.4402C7.90148 10.6757 8.25963 10.8349 8.63447 10.9183C8.87863 10.9726 9.12757 10.9944 9.3747 10.9868C9.31701 11.3099 9.29125 11.6456 9.28963 11.9871L7.0836 13.2466L8.78604 14.1892C8.92212 14.2646 9.05157 14.3519 9.17326 14.4484C10.577 15.6939 11.4212 19.3782 12.0012 21.1779C12.5812 19.3782 13.4254 15.694 14.8292 14.4484C14.9508 14.3519 15.0803 14.2646 15.2164 14.1892L16.9188 13.2466L14.7128 11.9871C14.7112 11.6456 14.6854 11.3099 14.6277 10.9868C14.8748 10.9944 15.1238 10.9726 15.368 10.9183C15.7429 10.8349 16.1019 10.6759 16.4045 10.4402C16.716 10.1975 16.9576 9.87894 17.09 9.50826C17.2953 8.93274 17.2079 8.32754 16.9443 7.78627L16.8083 7.50758C17.2431 7.07401 17.6268 6.5942 17.9348 6.16597L18.0913 6.45737Z" fill="black"/>
<path d="M12.0012 9.43492C12.2248 9.43492 12.4516 9.5135 12.6593 9.66961C13.2386 10.106 13.6683 10.8016 13.5932 12.3734C13.5892 12.457 13.6122 12.54 13.6587 12.61C13.7052 12.68 13.7731 12.7339 13.8523 12.7635L14.6737 13.2319C12.9982 14.1599 12.5423 15.8834 12.0012 17.5618C11.4602 15.8835 11.0049 14.16 9.32972 13.2319L10.1501 12.7635C10.2294 12.7339 10.2972 12.68 10.3438 12.61C10.3903 12.54 10.4132 12.4571 10.4093 12.3734C10.3341 10.8016 10.7638 10.106 11.3431 9.66961C11.5508 9.51347 11.7776 9.43493 12.0012 9.43492Z" fill="black"/>
<path d="M8.05851 8.26248C8.84817 8.87856 9.63787 9.32796 10.2577 9.63343C9.80465 9.88642 9.30527 9.9427 8.87795 9.84758C8.65281 9.79766 8.44953 9.70453 8.28635 9.57769C8.13583 9.46031 8.02063 9.31315 7.95975 9.14352C7.87404 8.90275 7.89203 8.60417 8.05851 8.26248Z" fill="black"/>
<path d="M15.9439 8.26248C16.1104 8.60419 16.1285 8.90275 16.0427 9.14352C15.9819 9.31298 15.8674 9.46036 15.717 9.57769C15.5539 9.70459 15.3497 9.79765 15.1245 9.84758C14.6972 9.94265 14.1987 9.88631 13.7457 9.63343C14.3655 9.32796 15.1544 8.87838 15.9439 8.26248Z" fill="black"/>
<path d="M12.0012 2.5C12.9496 2.52516 13.9003 2.70737 14.7255 3.06129C15.297 3.30674 15.8307 3.63089 16.3135 4.0186C16.5315 4.19361 16.7113 4.36277 16.909 4.5574C17.4425 4.57545 18.2222 3.98958 18.5841 3.44167C17.9613 5.45962 15.1189 7.8434 13.1512 8.75532L13.1492 8.75336C12.7961 8.48688 12.3985 8.3544 12.0012 8.3544C11.604 8.3544 11.2064 8.48688 10.8532 8.75336L10.8513 8.75532C8.88342 7.84337 6.04116 5.45959 5.41831 3.44167C5.78012 3.98957 6.55994 4.57543 7.09337 4.5574C7.29119 4.36284 7.47095 4.1936 7.68889 4.0186C8.17173 3.63089 8.70545 3.30674 9.27692 3.06129C10.1022 2.70736 11.0529 2.52517 12.0012 2.5Z" fill="black"/>
</svg>
