<svg xmlns="http://www.w3.org/2000/svg" width="24" height="24" viewBox="0 0 24 24" fill="none">
  <path d="M10.054 2.09399C10.5969 1.63133 11.2868 1.37721 12 1.37721C12.7133 1.37721 13.4032 1.63133 13.946 2.09399L15.294 3.24299C15.4544 3.37977 15.6539 3.46237 15.864 3.47899L17.629 3.61899C18.34 3.6757 19.0075 3.98385 19.5118 4.48818C20.0162 4.99251 20.3243 5.66002 20.381 6.37099L20.521 8.13699C20.5379 8.34677 20.6204 8.54589 20.757 8.706L21.906 10.054C22.3687 10.5968 22.6228 11.2867 22.6228 12C22.6228 12.7132 22.3687 13.4032 21.906 13.946L20.757 15.294C20.6204 15.4541 20.5379 15.6532 20.521 15.863L20.381 17.628C20.3243 18.339 20.0162 19.0065 19.5118 19.5108C19.0075 20.0151 18.34 20.3233 17.629 20.38L15.863 20.52C15.6531 20.5371 15.454 20.6201 15.294 20.757L13.946 21.905C13.4032 22.3677 12.7133 22.6218 12 22.6218C11.2868 22.6218 10.5969 22.3677 10.054 21.905L8.70602 20.757C8.54591 20.6204 8.34679 20.5378 8.13702 20.521L6.37202 20.38C5.66105 20.3233 4.99353 20.0151 4.4892 19.5108C3.98487 19.0065 3.67672 18.339 3.62002 17.628L3.48002 15.863C3.46311 15.6528 3.38015 15.4532 3.24302 15.293L2.09502 13.945C1.63262 13.4022 1.37866 12.7125 1.37866 11.9995C1.37866 11.2865 1.63262 10.5968 2.09502 10.054L3.24302 8.706C3.37979 8.54562 3.46239 8.34612 3.47902 8.13599L3.62002 6.37099C3.67695 5.6602 3.9852 4.99293 4.48951 4.4888C4.99382 3.98467 5.6612 3.67667 6.37202 3.61999L8.13702 3.47999C8.34714 3.46337 8.54664 3.38077 8.70702 3.24399L10.054 2.09399ZM12.649 3.61599C12.4681 3.46186 12.2382 3.37721 12.0005 3.37721C11.7628 3.37721 11.5329 3.46186 11.352 3.61599L10.004 4.76599C9.52317 5.1752 8.92546 5.42227 8.29602 5.47199L6.53102 5.61299C6.29414 5.63196 6.07176 5.73466 5.90372 5.9027C5.73569 6.07073 5.63298 6.29312 5.61402 6.52999L5.47302 8.29599C5.4228 8.9252 5.1754 9.52254 4.76602 10.003L3.61602 11.351C3.46189 11.5319 3.37723 11.7618 3.37723 11.9995C3.37723 12.2372 3.46189 12.4671 3.61602 12.648L4.76602 13.996C5.1754 14.4764 5.4228 15.0738 5.47302 15.703L5.61302 17.469C5.63202 17.706 5.73486 17.9285 5.9031 18.0966C6.07134 18.2647 6.29396 18.3673 6.53102 18.386L8.29602 18.527C8.92558 18.577 9.52329 18.8244 10.004 19.234L11.352 20.384C11.5329 20.5381 11.7628 20.6228 12.0005 20.6228C12.2382 20.6228 12.4681 20.5381 12.649 20.384L13.997 19.234C14.4775 18.8246 15.0748 18.5772 15.704 18.527L17.469 18.387C17.7062 18.3682 17.929 18.2655 18.0972 18.0972C18.2655 17.929 18.3682 17.7062 18.387 17.469L18.527 15.703C18.577 15.074 18.825 14.477 19.235 13.996L20.384 12.648C20.5382 12.4671 20.6228 12.2372 20.6228 11.9995C20.6228 11.7618 20.5382 11.5319 20.384 11.351L19.234 10.003C18.825 9.52241 18.578 8.92509 18.528 8.29599L18.387 6.52999C18.368 6.29296 18.2652 6.07045 18.0969 5.90239C17.9287 5.73434 17.7061 5.63173 17.469 5.61299L15.704 5.47299C15.0747 5.42249 14.4773 5.17473 13.997 4.76499L12.649 3.61599ZM14.829 7.75699L16.243 9.17099L9.17202 16.243L7.75702 14.828L14.829 7.75699ZM10.232 10.232C10.0936 10.3753 9.92813 10.4895 9.74512 10.5681C9.56212 10.6468 9.36529 10.6881 9.16612 10.6899C8.96695 10.6916 8.76943 10.6536 8.58509 10.5782C8.40074 10.5028 8.23326 10.3914 8.09243 10.2506C7.95159 10.1097 7.84021 9.94227 7.76479 9.75793C7.68936 9.57358 7.65141 9.37606 7.65314 9.17689C7.65487 8.97772 7.69625 8.78089 7.77487 8.59789C7.85348 8.41488 7.96775 8.24936 8.11102 8.11099C8.39392 7.83776 8.77282 7.68657 9.16612 7.68998C9.55941 7.6934 9.93563 7.85116 10.2137 8.12927C10.4919 8.40738 10.6496 8.7836 10.653 9.17689C10.6564 9.57019 10.5053 9.94909 10.232 10.232ZM13.768 15.889C13.9064 16.0323 14.0719 16.1465 14.2549 16.2251C14.4379 16.3038 14.6347 16.3451 14.8339 16.3469C15.0331 16.3486 15.2306 16.3106 15.4149 16.2352C15.5993 16.1598 15.7668 16.0484 15.9076 15.9076C16.0484 15.7667 16.1598 15.5993 16.2353 15.4149C16.3107 15.2306 16.3486 15.0331 16.3469 14.8339C16.3452 14.6347 16.3038 14.4379 16.2252 14.2549C16.1466 14.0719 16.0323 13.9064 15.889 13.768C15.6053 13.4995 15.2281 13.3523 14.8375 13.3576C14.4469 13.363 14.0739 13.5205 13.7976 13.7966C13.5213 14.0727 13.3637 14.4457 13.3582 14.8363C13.3526 15.2268 13.4997 15.6042 13.768 15.888" fill="currentColor"/>
</svg>
