<svg width="17" height="21" viewBox="0 0 17 21" fill="currentColor" xmlns="http://www.w3.org/2000/svg">
<path d="M2.71875 20.2734C2.16875 20.2734 1.69792 20.0776 1.30625 19.6859C0.914583 19.2943 0.71875 18.8234 0.71875 18.2734V2.27344C0.71875 1.72344 0.914583 1.2526 1.30625 0.860938C1.69792 0.469271 2.16875 0.273438 2.71875 0.273438H9.89375C10.1604 0.273438 10.4146 0.323438 10.6562 0.423438C10.8979 0.523438 11.1104 0.665104 11.2937 0.848437L16.1438 5.69844C16.3271 5.88177 16.4688 6.09427 16.5688 6.33594C16.6688 6.5776 16.7188 6.83177 16.7188 7.09844V18.2734C16.7188 18.8234 16.5229 19.2943 16.1313 19.6859C15.7396 20.0776 15.2688 20.2734 14.7188 20.2734H2.71875ZM9.71875 6.27344V2.27344H2.71875V18.2734H14.7188V7.27344H10.7188C10.4354 7.27344 10.1979 7.1776 10.0063 6.98594C9.81458 6.79427 9.71875 6.55677 9.71875 6.27344Z" />
</svg>

