<svg xmlns="http://www.w3.org/2000/svg" width="24" height="24" viewBox="0 0 24 24" fill="none">
  <path d="M9 20C8.45 20 7.97933 19.8043 7.588 19.413C7.19667 19.0217 7.00067 18.5507 7 18C6.99934 17.4493 7.19533 16.9787 7.588 16.588C7.98067 16.1973 8.45133 16.0013 9 16C9.54867 15.9987 10.0197 16.1947 10.413 16.588C10.8063 16.9813 11.002 17.452 11 18C10.998 18.548 10.8023 19.019 10.413 19.413C10.0237 19.807 9.55267 20.0027 9 20ZM15 20C14.45 20 13.9793 19.8043 13.588 19.413C13.1967 19.0217 13.0007 18.5507 13 18C12.9993 17.4493 13.1953 16.9787 13.588 16.588C13.9807 16.1973 14.4513 16.0013 15 16C15.5487 15.9987 16.0197 16.1947 16.413 16.588C16.8063 16.9813 17.002 17.452 17 18C16.998 18.548 16.8023 19.019 16.413 19.413C16.0237 19.807 15.5527 20.0027 15 20ZM9 14C8.45 14 7.97933 13.8043 7.588 13.413C7.19667 13.0217 7.00067 12.5507 7 12C6.99934 11.4493 7.19533 10.9787 7.588 10.588C7.98067 10.1973 8.45133 10.0013 9 10C9.54867 9.99867 10.0197 10.1947 10.413 10.588C10.8063 10.9813 11.002 11.452 11 12C10.998 12.548 10.8023 13.019 10.413 13.413C10.0237 13.807 9.55267 14.0027 9 14ZM15 14C14.45 14 13.9793 13.8043 13.588 13.413C13.1967 13.0217 13.0007 12.5507 13 12C12.9993 11.4493 13.1953 10.9787 13.588 10.588C13.9807 10.1973 14.4513 10.0013 15 10C15.5487 9.99867 16.0197 10.1947 16.413 10.588C16.8063 10.9813 17.002 11.452 17 12C16.998 12.548 16.8023 13.019 16.413 13.413C16.0237 13.807 15.5527 14.0027 15 14ZM9 8.00001C8.45 8.00001 7.97933 7.80434 7.588 7.41301C7.19667 7.02167 7.00067 6.55067 7 6.00001C6.99934 5.44934 7.19533 4.97867 7.588 4.58801C7.98067 4.19734 8.45133 4.00134 9 4.00001C9.54867 3.99867 10.0197 4.19467 10.413 4.58801C10.8063 4.98134 11.002 5.45201 11 6.00001C10.998 6.54801 10.8023 7.01901 10.413 7.41301C10.0237 7.80701 9.55267 8.00267 9 8.00001ZM15 8.00001C14.45 8.00001 13.9793 7.80434 13.588 7.41301C13.1967 7.02167 13.0007 6.55067 13 6.00001C12.9993 5.44934 13.1953 4.97867 13.588 4.58801C13.9807 4.19734 14.4513 4.00134 15 4.00001C15.5487 3.99867 16.0197 4.19467 16.413 4.58801C16.8063 4.98134 17.002 5.45201 17 6.00001C16.998 6.54801 16.8023 7.01901 16.413 7.41301C16.0237 7.80701 15.5527 8.00267 15 8.00001Z" fill="currentColor"/>
</svg>
