<svg xmlns="http://www.w3.org/2000/svg" width="24" height="24" viewBox="0 0 24 24" fill="none">
  <path d="M5.38889 10.0889C5.58889 10.5167 6.07222 11.35 6.07222 11.35L11.6833 2L6.21111 5.85556C5.88333 6.07778 5.61667 6.37222 5.43334 6.71667C5.18387 7.24265 5.05123 7.81641 5.04452 8.39852C5.0378 8.98063 5.15718 9.55729 5.39445 10.0889H5.38889ZM3.17222 13.1667C3.2333 14.0591 3.48271 14.9284 3.90404 15.7174C4.32537 16.5065 4.90906 17.1973 5.61667 17.7444L11.6778 22C11.6778 22 7.89445 16.5 4.7 11.0167C4.37544 10.4379 4.15717 9.80572 4.05556 9.15C4.01086 8.85353 4.01086 8.55203 4.05556 8.25556L3.81111 8.72778C3.48889 9.39444 3.26667 10.1056 3.16111 10.8389C3.09445 11.6167 3.10556 12.3944 3.17778 13.1722L3.17222 13.1667ZM18.6111 13.9111C18.397 13.4835 18.1691 13.0629 17.9278 12.65L12.3222 22L17.7944 18.15C18.1167 17.9278 18.3833 17.6333 18.5722 17.2833C18.8208 16.7569 18.9525 16.183 18.9583 15.6009C18.964 15.0188 18.8437 14.4423 18.6056 13.9111H18.6111ZM20.8278 10.8333C20.7667 9.94094 20.5173 9.07161 20.096 8.28258C19.6746 7.49355 19.0909 6.80271 18.3833 6.25556L12.3222 2C12.3222 2 16.1056 7.5 19.3 12.9833C19.6226 13.5625 19.839 14.1946 19.9389 14.85C19.9833 15.1444 19.9833 15.45 19.9389 15.7444L20.1833 15.2722C20.5111 14.6056 20.7278 13.8944 20.8389 13.1611C20.9056 12.3833 20.8944 11.6056 20.8222 10.8278L20.8278 10.8333Z" fill="currentColor"/>
</svg>
