<svg width="24" height="24" viewBox="0 0 24 24" fill="currentColor" xmlns="http://www.w3.org/2000/svg">
<path d="M17.883 19.297C16.1239 20.4127 14.0831 21.0035 12 21C6.60801 21 2.12201 17.12 1.18201 12C1.61292 9.67178 2.78359 7.54473 4.52001 5.93501L1.39401 2.80801L2.80801 1.39401L22.607 21.192L21.193 22.607L17.883 19.297ZM5.93601 7.35001C4.5769 8.58567 3.6299 10.2088 3.22301 12C3.5353 13.3665 4.16227 14.6412 5.05401 15.7226C5.94575 16.8041 7.07763 17.6624 8.35956 18.2293C9.64149 18.7962 11.0381 19.0561 12.4381 18.9881C13.8381 18.9202 15.203 18.5264 16.424 17.838L14.396 15.81C13.5327 16.3538 12.5102 16.5881 11.4962 16.4745C10.4823 16.3608 9.53705 15.9059 8.81558 15.1844C8.09411 14.463 7.63923 13.5177 7.52557 12.5038C7.4119 11.4898 7.64619 10.4673 8.19001 9.60401L5.93601 7.35001ZM12.914 14.328L9.67201 11.087C9.49407 11.5399 9.45219 12.035 9.55151 12.5114C9.65083 12.9877 9.88702 13.4248 10.2311 13.7689C10.5752 14.113 11.0123 14.3492 11.4887 14.4485C11.9651 14.5478 12.4611 14.5059 12.914 14.328ZM20.806 16.593L19.375 15.162C20.045 14.2099 20.5217 13.1356 20.778 12C20.5063 10.8096 19.9953 9.68694 19.2761 8.70021C18.5569 7.71348 17.6446 6.88331 16.5945 6.26017C15.5445 5.63704 14.3787 5.23395 13.168 5.07542C11.9573 4.9169 10.7271 5.00624 9.55201 5.33801L7.97401 3.76001C9.22101 3.27001 10.58 3.00001 12 3.00001C17.392 3.00001 21.878 6.88001 22.819 12C22.5126 13.666 21.8229 15.2382 20.806 16.593ZM11.723 7.50901C11.8143 7.50301 11.9067 7.50001 12 7.50001C12.6144 7.49993 13.2223 7.62567 13.7863 7.86949C14.3503 8.1133 14.8583 8.47002 15.2792 8.91767C15.7 9.36532 16.0248 9.89441 16.2334 10.4723C16.4419 11.0503 16.53 11.6648 16.492 12.278L11.723 7.50901Z" />
</svg>
