<svg width="24" height="24" viewBox="0 0 24 24" fill="currentColor" xmlns="http://www.w3.org/2000/svg">
<path d="M18.506 5.37819H21.8795L21.3976 8.02879H20.5542V18.1493L20.5914 18.1502C20.9733 18.1695 21.2771 18.4854 21.2771 18.8721V19.4746L21.3143 19.4755C21.6962 19.4948 22 19.8107 22 20.1974V20.7999H15.253V20.1974C15.253 19.8107 15.5567 19.4948 15.9387 19.4755L15.9759 19.4746V18.8721C15.9759 18.4854 16.2796 18.1695 16.6616 18.1502L16.6988 18.1493V13.2095C16.6988 10.6144 14.5951 8.51072 12 8.51072C9.40495 8.51072 7.3012 10.6144 7.3012 13.2095V18.1493L7.33838 18.1502C7.72034 18.1695 8.02409 18.4854 8.02409 18.8721V19.4746L8.06127 19.4755C8.44323 19.4948 8.747 19.8107 8.747 20.1974V20.7999H2V20.1974C2 19.8107 2.30375 19.4948 2.68571 19.4755L2.72289 19.4746V18.8721C2.72289 18.4854 3.02664 18.1695 3.4086 18.1502L3.44578 18.1493V8.02879H2.60241L2.12048 5.37819H5.49397V3.33H18.506V5.37819Z" />
</svg>
