<svg width="24" height="24" viewBox="0 0 24 24" fill="currentColor" xmlns="http://www.w3.org/2000/svg">
<path d="M15.005 2.003C15.7071 2.00302 16.3969 2.18785 17.005 2.53893C17.613 2.89002 18.118 3.39497 18.469 4.00304C18.8201 4.61112 19.0049 5.30089 19.0049 6.00302C19.0049 6.70516 18.8201 7.39493 18.469 8.003H23.005V10.003H21.005V20.003C21.005 20.2682 20.8996 20.5226 20.7121 20.7101C20.5246 20.8976 20.2702 21.003 20.005 21.003H4.005C3.73979 21.003 3.48543 20.8976 3.2979 20.7101C3.11036 20.5226 3.005 20.2682 3.005 20.003V10.003H1.005V8.003H5.54C5.04269 7.14375 4.88269 6.13026 5.09111 5.15959C5.29952 4.18892 5.86146 3.33045 6.66767 2.75108C7.47387 2.17171 8.46672 1.91285 9.45318 2.02484C10.4396 2.13683 11.3492 2.61165 12.005 3.357C12.3795 2.93054 12.8408 2.58909 13.358 2.35556C13.8753 2.12203 14.4365 2.00182 15.004 2.003M11.004 10.003H5.004V19.003H11.004V10.003ZM19.004 10.003H13.004V19.003H19.004V10.003ZM9.004 4.003C8.48739 4.00422 7.99128 4.2053 7.61961 4.56413C7.24794 4.92295 7.02953 5.41168 7.01014 5.92793C6.99076 6.44419 7.17189 6.94792 7.5156 7.33361C7.85931 7.7193 8.33893 7.95703 8.854 7.997L9.004 8.003H11.004V6.003C11.004 5.52506 10.8329 5.06291 10.5216 4.70026C10.2103 4.3376 9.77943 4.09841 9.307 4.026L9.153 4.008L9.004 4.003ZM15.004 4.003C14.4994 4.00284 14.0134 4.1934 13.6435 4.5365C13.2735 4.87959 13.0468 5.34984 13.009 5.853L13.004 6.003V8.003H15.004C15.5084 8.00291 15.9942 7.81223 16.3639 7.46916C16.7337 7.1261 16.9602 6.65598 16.998 6.153L17.004 6.003C17.004 5.47256 16.7933 4.96386 16.4182 4.58878C16.0431 4.21371 15.5344 4.003 15.004 4.003Z" />
</svg>
