<svg xmlns="http://www.w3.org/2000/svg" width="24" height="24" viewBox="0 0 24 24" fill="none">
<path d="M21.9905 12.1871C21.9905 11.3677 21.9224 10.7698 21.7752 10.1497H12.1992V13.848H17.8201C17.7068 14.7671 17.0948 16.1512 15.7349 17.0813L15.7159 17.2051L18.7436 19.4969L18.9534 19.5174C20.8798 17.7789 21.9905 15.2211 21.9905 12.1871Z" fill="#4285F4"/>
<path d="M12.1992 21.9313C14.953 21.9313 17.2648 21.0454 18.9534 19.5174L15.7349 17.0813C14.8737 17.6682 13.7177 18.0779 12.1992 18.0779C9.50211 18.0779 7.21297 16.3395 6.39695 13.9366L6.27734 13.9466L3.12906 16.3273L3.08789 16.4391C4.76508 19.6945 8.21016 21.9313 12.1992 21.9313Z" fill="#34A853"/>
<path d="M6.39695 13.9366C6.18164 13.3166 6.05703 12.6521 6.05703 11.9656C6.05703 11.2791 6.18164 10.6147 6.38562 9.99466L6.37992 9.8626L3.19219 7.44366L3.08789 7.49214C2.39664 8.84305 2 10.3601 2 11.9656C2 13.5712 2.39664 15.0882 3.08789 16.4391L6.39695 13.9366Z" fill="#FBBC05"/>
<path d="M12.1992 5.85336C14.1144 5.85336 15.4062 6.66168 16.1429 7.33718L19.0213 4.59107C17.2535 2.9855 14.953 2 12.1992 2C8.21016 2 4.76508 4.23672 3.08789 7.49214L6.38563 9.99466C7.21297 7.59183 9.50211 5.85336 12.1992 5.85336Z" fill="#EB4335"/>
</svg>
