<?xml version="1.0" encoding="UTF-8"?>
<svg width="24px" height="24px" viewBox="0 0 24 24" version="1.1" xmlns="http://www.w3.org/2000/svg" xmlns:xlink="http://www.w3.org/1999/xlink">
    <rect width="24" height="24" fill="none" />
    <path d="M16.0915 11.1819H14.4553C14.4553 10.6927 13.2993 10.0718 12.001 10.0718C10.7027 10.0718 9.54673 10.6927 9.54673 11.1819H7.91055C7.91055 10.0529 8.85217 9.21277 10.0613 8.77591C9.49682 8.25151 9.13768 7.51114 9.13768 6.68241C9.13768 5.10349 10.4221 3.81909 12.001 3.81909C13.5799 3.81909 14.8643 5.10349 14.8643 6.68241C14.8643 7.51114 14.5052 8.25151 13.9407 8.77591C15.1498 9.21277 16.0915 10.0529 16.0915 11.1819ZM13.2281 6.68241C13.2281 6.00585 12.6776 5.45527 12.001 5.45527C11.3244 5.45527 10.7739 6.00585 10.7739 6.68241C10.7739 7.35897 11.3244 7.90955 12.001 7.90955C12.6776 7.90955 13.2281 7.35897 13.2281 6.68241ZM9.03215 17.7749C9.59663 17.2505 9.95577 16.5101 9.95577 15.6814C9.95577 14.1025 8.67137 12.8181 7.09245 12.8181C5.51354 12.8181 4.22914 14.1025 4.22914 15.6814C4.22914 16.5101 4.58828 17.2505 5.15276 17.7749C3.94362 18.2118 3.002 19.0519 3.002 20.1809H4.63818C4.63818 19.6917 5.79414 19.0708 7.09245 19.0708C8.39076 19.0708 9.54673 19.6925 9.54673 20.1809H11.1829C11.1829 19.0519 10.2413 18.2118 9.03215 17.7749ZM7.09245 14.4543C7.76901 14.4543 8.31959 15.0048 8.31959 15.6814C8.31959 16.358 7.76901 16.9085 7.09245 16.9085C6.41589 16.9085 5.86532 16.358 5.86532 15.6814C5.86532 15.0048 6.41589 14.4543 7.09245 14.4543ZM18.8492 17.7749C19.4137 17.2505 19.7729 16.5101 19.7729 15.6814C19.7729 14.1025 18.4885 12.8181 16.9095 12.8181C15.3306 12.8181 14.0462 14.1025 14.0462 15.6814C14.0462 16.5101 14.4054 17.2505 14.9699 17.7749C13.7607 18.2118 12.8191 19.0528 12.8191 20.1809H14.4553C14.4553 19.6917 15.6112 19.0708 16.9095 19.0708C18.2079 19.0708 19.3638 19.6925 19.3638 20.1809H21C21 19.0519 20.0584 18.2118 18.8492 17.7749ZM16.9095 14.4543C17.5861 14.4543 18.1367 15.0048 18.1367 15.6814C18.1367 16.358 17.5861 16.9085 16.9095 16.9085C16.233 16.9085 15.6824 16.358 15.6824 15.6814C15.6824 15.0048 16.233 14.4543 16.9095 14.4543Z" fill="var(--icon-fill)"></path>
</svg>
