<svg xmlns="http://www.w3.org/2000/svg" width="24" height="24" viewBox="0 0 24 24" fill="currentColor">
  <path fill-rule="evenodd" clip-rule="evenodd" d="M8.80001 18.15L12 21L15.2 18.15C16.4007 17.0667 17.43 16.1 18.288 15.25C19.146 14.4 19.8543 13.6 20.413 12.85C20.9717 12.1 21.38 11.375 21.638 10.675C21.896 9.975 22.025 9.24167 22.025 8.475C22.025 6.909 21.5 5.605 20.45 4.563C19.4 3.521 18.0917 3 16.525 3C15.6583 3 14.8333 3.18333 14.05 3.55C13.2667 3.91667 12.5833 4.43333 12 5.1C11.4167 4.43333 10.7333 3.91667 9.95001 3.55C9.16667 3.18333 8.34167 3 7.47501 3C5.90834 3.00067 4.60001 3.52167 3.55001 4.563C2.50001 5.60433 1.97501 6.90833 1.97501 8.475C1.97434 9.24167 2.10368 9.975 2.36301 10.675C2.62234 11.375 3.03068 12.1 3.58801 12.85C4.14534 13.6 4.85334 14.4 5.71201 15.25C6.57067 16.1 7.60001 17.0667 8.80001 18.15ZM7.44621 5.0001C6.38756 5.00687 5.60384 5.34291 4.95835 5.98306C3.91376 7.01904 3.74088 8.63717 4.23845 9.9802C4.4177 10.464 4.72206 11.0229 5.19331 11.6571C5.67594 12.3066 6.31253 13.0303 7.11903 13.8286C7.71864 14.4222 8.40924 15.0794 9.19222 15.8011C9.42093 16.0154 9.66126 16.2351 9.91319 16.46C9.9865 16.5265 10.0605 16.5935 10.1353 16.661L12 18.3218L13.865 16.6608C13.9151 16.6156 13.9649 16.5706 14.0144 16.5258C14.3006 16.2714 14.5721 16.0236 14.8286 15.7822C15.6033 15.0681 16.2868 14.4173 16.8804 13.8292C17.6867 13.0304 18.3244 12.3059 18.8091 11.6553C19.2809 11.0219 19.584 10.4646 19.7614 9.98334C20.2574 8.63761 20.0879 7.0213 19.0412 5.98261C18.3956 5.34193 17.6129 5.00614 16.5543 5.00008C16.1243 4.99732 15.7094 5.06328 15.3154 5.19905C14.6538 5.42073 14.054 5.8176 13.5751 6.339C13.3008 6.60457 13.0412 6.90059 12.7964 7.22707L12.5575 7.5H11.4425L11.2063 7.23014C10.9576 6.89753 10.6936 6.5966 10.4142 6.32733C9.9304 5.8045 9.32471 5.40815 8.65716 5.18994C8.27164 5.06071 7.86522 4.99742 7.44621 5.0001Z" fill="white"/>
</svg>
