<svg xmlns="http://www.w3.org/2000/svg" width="24" height="24" viewBox="0 0 24 24" fill="currentColor">
  <path d="M12 21L8.8 18.15C7.6 17.0667 6.57067 16.1 5.712 15.25C4.85333 14.4 4.14533 13.6 3.588 12.85C3.03067 12.1 2.62233 11.375 2.363 10.675C2.10367 9.975 1.97433 9.24167 1.975 8.475C1.975 6.90833 2.5 5.60433 3.55 4.563C4.6 3.52167 5.90833 3.00067 7.475 3C8.34167 3 9.16667 3.18333 9.95 3.55C10.7333 3.91667 11.4167 4.43333 12 5.1C12.5833 4.43333 13.2667 3.91667 14.05 3.55C14.8333 3.18333 15.6583 3 16.525 3C18.0917 3 19.4 3.521 20.45 4.563C21.5 5.605 22.025 6.909 22.025 8.475C22.025 9.24167 21.896 9.975 21.638 10.675C21.38 11.375 20.9717 12.1 20.413 12.85C19.8543 13.6 19.146 14.4 18.288 15.25C17.43 16.1 16.4007 17.0667 15.2 18.15L12 21Z" fill="white"/>
</svg>
