<svg xmlns="http://www.w3.org/2000/svg" width="32" height="32" viewBox="0 0 32 32" fill="none">
<path d="M2.66797 29.3333L9.33464 10.6667L21.3346 22.6667L2.66797 29.3333ZM7.06797 24.9333L16.468 21.6L10.4013 15.5333L7.06797 24.9333ZM19.4013 16.7333L18.0013 15.3333L25.468 7.86667C26.1791 7.15556 27.0346 6.8 28.0346 6.8C29.0346 6.8 29.8902 7.15556 30.6013 7.86667L31.4013 8.66667L30.0013 10.0667L29.2013 9.26667C28.8902 8.95556 28.5013 8.8 28.0346 8.8C27.568 8.8 27.1791 8.95556 26.868 9.26667L19.4013 16.7333ZM14.068 11.4L12.668 10L13.468 9.2C13.7791 8.88889 13.9346 8.51111 13.9346 8.06667C13.9346 7.62222 13.7791 7.24444 13.468 6.93333L12.6013 6.06667L14.0013 4.66667L14.868 5.53333C15.5791 6.24444 15.9346 7.08889 15.9346 8.06667C15.9346 9.04445 15.5791 9.88889 14.868 10.6L14.068 11.4ZM16.7346 14.0667L15.3346 12.6667L20.1346 7.86667C20.4457 7.55556 20.6013 7.16667 20.6013 6.7C20.6013 6.23333 20.4457 5.84444 20.1346 5.53333L18.0013 3.4L19.4013 2L21.5346 4.13333C22.2457 4.84444 22.6013 5.7 22.6013 6.7C22.6013 7.7 22.2457 8.55556 21.5346 9.26667L16.7346 14.0667ZM22.068 19.4L20.668 18L22.8013 15.8667C23.5124 15.1556 24.368 14.8 25.368 14.8C26.368 14.8 27.2235 15.1556 27.9346 15.8667L30.068 18L28.668 19.4L26.5346 17.2667C26.2235 16.9556 25.8346 16.8 25.368 16.8C24.9013 16.8 24.5124 16.9556 24.2013 17.2667L22.068 19.4Z" fill="currentColor"/>
</svg>
