<svg xmlns="http://www.w3.org/2000/svg" width="24" height="24" viewBox="0 0 24 24" fill="none">
<path d="M6 17H18L14.25 12L11.25 16L9 13L6 17ZM3 21V3H21V21H3ZM5 19H19V5H5V19ZM8.5 10C8.91667 10 9.271 9.85433 9.563 9.563C9.855 9.27167 10.0007 8.91733 10 8.5C9.99933 8.08267 9.85367 7.72867 9.563 7.438C9.27233 7.14733 8.918 7.00133 8.5 7C8.082 6.99867 7.728 7.14467 7.438 7.438C7.148 7.73133 7.002 8.08533 7 8.5C6.998 8.91467 7.144 9.269 7.438 9.563C7.732 9.857 8.086 10.0027 8.5 10Z" fill="currentColor"/>
</svg>
