<svg width="24" height="24" viewBox="0 0 24 24" fill="currentColor" xmlns="http://www.w3.org/2000/svg">
<path d="M12 8L7 13L8.4 14.4L11 11.825V22H13V11.825L15.6 14.4L17 13L12 8ZM3.65 17.5C3.11667 16.6833 2.70833 15.8083 2.425 14.875C2.14167 13.9417 2 12.9833 2 12C2 10.6167 2.26267 9.31667 2.788 8.1C3.31333 6.88334 4.02567 5.825 4.925 4.925C5.82433 4.025 6.88267 3.31267 8.1 2.788C9.31733 2.26333 10.6173 2.00067 12 2C13.3827 1.99933 14.6827 2.262 15.9 2.788C17.1173 3.314 18.1757 4.02633 19.075 4.925C19.9743 5.82367 20.687 6.882 21.213 8.1C21.739 9.318 22.0013 10.618 22 12C22 12.9833 21.8583 13.9417 21.575 14.875C21.2917 15.8083 20.8833 16.6833 20.35 17.5L18.9 16.05C19.2667 15.4333 19.5417 14.7833 19.725 14.1C19.9083 13.4167 20 12.7167 20 12C20 9.76667 19.225 7.875 17.675 6.325C16.125 4.775 14.2333 4 12 4C9.76667 4 7.875 4.775 6.325 6.325C4.775 7.875 4 9.76667 4 12C4 12.7167 4.09167 13.4167 4.275 14.1C4.45833 14.7833 4.73333 15.4333 5.1 16.05L3.65 17.5Z" />
</svg>
