<svg width="24" height="24" viewBox="0 0 24 24" fill="currentColor" xmlns="http://www.w3.org/2000/svg">
<path d="M8 12H16V10H8V12ZM8 8H16V6H8V8ZM19.95 20.475L15.9 15.2C15.6167 14.8167 15.2667 14.521 14.85 14.313C14.4333 14.105 13.9833 14.0007 13.5 14H4V4C4 3.45 4.196 2.97933 4.588 2.588C4.98 2.19667 5.45067 2.00067 6 2H18C18.55 2 19.021 2.196 19.413 2.588C19.805 2.98 20.0007 3.45067 20 4V20C20 20.0833 19.996 20.1627 19.988 20.238C19.98 20.3133 19.9673 20.3923 19.95 20.475ZM6 22C5.45 22 4.97933 21.8043 4.588 21.413C4.19667 21.0217 4.00067 20.5507 4 20V16H13.5C13.6667 16 13.821 16.0377 13.963 16.113C14.105 16.1883 14.2257 16.2923 14.325 16.425L18.525 21.925C18.4417 21.9583 18.3543 21.9793 18.263 21.988C18.1717 21.9967 18.084 22.0007 18 22H6Z" />
</svg>
