<svg width="48" height="48" viewBox="0 0 48 48" fill="none" xmlns="http://www.w3.org/2000/svg">
<path fill-rule="evenodd" clip-rule="evenodd" d="M28.1667 34C30.9281 34 33.1667 36.2386 33.1667 39C33.1667 41.7614 30.9281 44 28.1667 44C25.4052 44 23.1667 41.7614 23.1667 39C23.1667 36.2386 25.4052 34 28.1667 34ZM11.5 21.5C15.6421 21.5 19 24.8579 19 29C19 33.1421 15.6421 36.5 11.5 36.5C7.35786 36.5 4 33.1421 4 29C4 24.8579 7.35786 21.5 11.5 21.5ZM32.75 4C38.9632 4 44 9.0368 44 15.25C44 21.4632 38.9632 26.5 32.75 26.5C26.5368 26.5 21.5 21.4632 21.5 15.25C21.5 9.0368 26.5368 4 32.75 4Z" fill="currentColor" />
</svg>
