<svg width="24" height="24" viewBox="0 0 24 24" fill="none" xmlns="http://www.w3.org/2000/svg">
<path fill-rule="evenodd" clip-rule="evenodd" d="M12 2C17.5228 2 22 6.47715 22 12C22 14.0399 21.3875 15.9359 20.3389 17.5176C20.7439 17.8836 21 18.4111 21 19C21 20.1046 20.1046 21 19 21C18.4111 21 17.8836 20.7439 17.5176 20.3389C15.9359 21.3875 14.0399 22 12 22C6.47715 22 2 17.5228 2 12C2 9.96004 2.61143 8.06315 3.66016 6.48145C3.25577 6.11548 3 5.58836 3 5C3 3.89543 3.89543 3 5 3C5.58836 3 6.11548 3.25577 6.48145 3.66016C8.06315 2.61143 9.96004 2 12 2ZM10.5 10.5L6 12L10.5 13.5L12 18L13.5 13.5L18 12L13.5 10.5L12 6L10.5 10.5Z" fill="black"/>
</svg>
