<svg width="24" height="24" viewBox="0 0 24 24" fill="currentColor" xmlns="http://www.w3.org/2000/svg">
<path d="M12.0008 2.50004C6.7624 2.50004 2.50004 6.7624 2.50004 12.0008C2.50004 17.2384 6.76231 21.5 12.0008 21.5C17.2394 21.5 21.5016 17.2384 21.5016 12.0008C21.5016 6.7624 17.2393 2.50004 12.0008 2.50004ZM18.722 8.33386H17.3301C17.0955 8.33386 16.862 8.2271 16.7124 8.02342C16.3412 7.51804 15.3351 5.99967 14.7303 5.08409C14.5312 4.78282 14.5715 4.42154 14.7681 4.17851C14.9686 3.93074 15.3249 3.81665 15.6665 3.97308C17.1784 4.66564 18.4602 5.77156 19.3684 7.14643C19.721 7.68006 19.3092 8.33386 18.722 8.33386ZM6.50038 12.0008C6.50038 8.96691 8.96691 6.50038 12.0008 6.50038C15.0348 6.50038 17.5013 8.96691 17.5013 12.0008C17.5013 15.0348 15.0348 17.5013 12.0008 17.5013C8.96691 17.5013 6.50038 15.0348 6.50038 12.0008ZM12.8953 3.52696L13.6548 4.66514C13.8562 4.96691 13.8049 5.31344 13.6468 5.54688C13.4906 5.7774 13.1988 5.94791 12.8581 5.89766C12.5767 5.85624 12.2908 5.83365 12.0008 5.83365C11.711 5.83365 11.4253 5.85624 11.144 5.89774C10.8031 5.94808 10.5112 5.77757 10.3549 5.54705C10.1967 5.31369 10.1452 4.967 10.3467 4.66497L11.1061 3.52696C11.243 3.32169 11.4664 3.1966 11.7054 3.18002L11.711 3.1796C11.794 3.17385 11.8953 3.16676 12.0008 3.16676C12.1031 3.16676 12.2017 3.17343 12.282 3.17885L12.2931 3.1796C12.5324 3.1956 12.7574 3.32019 12.8953 3.52696ZM9.27011 5.08542C8.66522 6.00092 7.66022 7.51821 7.28927 8.02334C7.13968 8.2271 6.90616 8.33386 6.67156 8.33386H5.27969C4.69247 8.33386 4.28069 7.68006 4.63322 7.14643C5.54113 5.77206 6.82224 4.66647 8.33353 3.97383C8.67547 3.81707 9.03209 3.93174 9.23244 4.17952C9.42879 4.42245 9.46946 4.78382 9.27011 5.08542ZM4.25552 9.00058H5.41003C5.97283 9.00058 6.31903 9.5588 6.15426 10.0486C5.94741 10.6633 5.83365 11.3193 5.83365 12.0008C5.83365 12.683 5.94741 13.3388 6.1541 13.9528C6.31894 14.4425 5.97275 15.0011 5.40987 15.0011H4.25552C3.91841 15.0011 3.60905 14.782 3.51146 14.444C3.28727 13.6678 3.16676 12.8477 3.16676 12.0008C3.16676 11.1547 3.28727 10.334 3.51146 9.55763C3.60905 9.21969 3.91841 9.00058 4.25552 9.00058ZM5.27986 15.6678H6.67156C6.90616 15.6678 7.13968 15.7746 7.28927 15.9783C7.66014 16.4834 8.66472 18 9.26936 18.9152C9.46862 19.2169 9.42795 19.5783 9.23144 19.8212C9.031 20.0689 8.67439 20.1833 8.33253 20.0266C6.82224 19.3339 5.54188 18.2294 4.63355 16.8554C4.28077 16.3219 4.69256 15.6678 5.27986 15.6678ZM11.1063 20.4738L10.3475 19.3364C10.1462 19.0347 10.1975 18.6882 10.3556 18.4547C10.5119 18.2242 10.8036 18.0538 11.1443 18.104C11.4254 18.1454 11.711 18.168 12.0008 18.168C12.2906 18.168 12.576 18.1455 12.8568 18.1039C13.1978 18.0536 13.4897 18.224 13.646 18.4545C13.8042 18.6879 13.8558 19.0346 13.6543 19.3366L12.8956 20.4739C12.7588 20.6789 12.535 20.8052 12.2935 20.8207C12.2084 20.8261 12.1073 20.8324 12.0017 20.8324C11.8982 20.8324 11.7983 20.8263 11.715 20.8212L11.7116 20.821C11.4698 20.8062 11.2441 20.6804 11.1063 20.4738ZM14.7323 18.9152C15.3369 18 16.3415 16.4834 16.7124 15.9783C16.862 15.7746 17.0955 15.6678 17.3301 15.6678H18.7218C19.3091 15.6678 19.7209 16.3219 19.3681 16.8554C18.4598 18.2294 17.1794 19.3339 15.6691 20.0266C15.3273 20.1833 14.9707 20.0689 14.7702 19.8212C14.5737 19.5783 14.533 19.2169 14.7323 18.9152ZM19.7462 15.0011H18.5918C18.0288 15.0011 17.6827 14.4425 17.8476 13.9528C18.0543 13.3388 18.168 12.683 18.168 12.0008C18.168 11.3193 18.0543 10.6633 17.8474 10.0486C17.6826 9.5588 18.0288 9.00058 18.5916 9.00058H19.7462C20.0833 9.00058 20.3927 9.21969 20.4902 9.55763C20.7144 10.334 20.8349 11.1547 20.8349 12.0008C20.8349 12.8477 20.7144 13.6678 20.4902 14.444C20.3927 14.782 20.0833 15.0011 19.7462 15.0011ZM2 12.0008C2 6.48621 6.48621 2 12.0008 2C17.5155 2 22.0017 6.48621 22.0017 12.0008C22.0017 17.5146 17.5155 22 12.0008 22C6.48621 22 2 17.5146 2 12.0008ZM18.722 7.83382C18.937 7.83382 19.0698 7.60147 18.9512 7.42212C18.0941 6.12451 16.8844 5.08101 15.4583 4.4277C15.2159 4.31661 15.0006 4.58605 15.1476 4.80848C15.7569 5.73089 16.7536 7.23494 17.1154 7.72739C17.1654 7.79557 17.2454 7.83382 17.3301 7.83382H18.722ZM12.0008 7.00042C9.2431 7.00042 7.00042 9.2431 7.00042 12.0008C7.00042 14.7586 9.2431 17.0013 12.0008 17.0013C14.7586 17.0013 17.0013 14.7586 17.0013 12.0008C17.0013 9.2431 14.7586 7.00042 12.0008 7.00042ZM12.4794 3.80448C12.43 3.73048 12.3484 3.68447 12.2597 3.67847L12.2534 3.67806C12.1697 3.67247 12.0859 3.66681 12.0008 3.66681C11.913 3.66681 11.8267 3.67281 11.7401 3.67881C11.652 3.68497 11.571 3.73098 11.522 3.80448L10.7626 4.9425C10.6209 5.15501 10.8182 5.44045 11.0709 5.40312C11.3748 5.3582 11.685 5.33361 12.0008 5.33361C12.3169 5.33361 12.6271 5.3582 12.9309 5.40295C13.1835 5.4402 13.3806 5.1551 13.2389 4.94266L12.4794 3.80448ZM8.85299 4.80982C9.00008 4.58713 8.7844 4.31719 8.54188 4.42837C7.11634 5.08176 5.90733 6.12501 5.05042 7.42212C4.93191 7.60147 5.06467 7.83382 5.27969 7.83382H6.67156C6.75623 7.83382 6.83615 7.79557 6.88624 7.72739C7.24777 7.2351 8.24344 5.73231 8.85299 4.80982ZM4.25552 9.50063C4.13376 9.50063 4.02567 9.57946 3.99183 9.69639C3.78057 10.4284 3.66681 11.2023 3.66681 12.0008C3.66681 12.8001 3.78057 13.5735 3.99183 14.3053C4.02567 14.4222 4.13376 14.501 4.25552 14.501H5.40987C5.60788 14.501 5.7434 14.3001 5.68014 14.1124C5.4567 13.4486 5.33361 12.739 5.33361 12.0008C5.33361 11.2633 5.45679 10.5535 5.68031 9.88916C5.74348 9.70148 5.60805 9.50063 5.41003 9.50063H4.25552ZM5.27986 16.1678C5.06476 16.1678 4.93208 16.4003 5.05067 16.5797C5.90791 17.8764 7.11634 18.9186 8.54105 19.572C8.78357 19.6833 8.99925 19.4135 8.85215 19.1908C8.24294 18.2686 7.24769 16.7664 6.88624 16.2744C6.83615 16.2061 6.75623 16.1678 6.67156 16.1678H5.27986ZM11.5223 20.1964C11.5716 20.2704 11.6533 20.3164 11.7421 20.3219C11.8282 20.3271 11.9144 20.3324 12.0017 20.3324C12.0893 20.3324 12.1753 20.3271 12.2615 20.3216C12.3497 20.3159 12.4306 20.2699 12.4796 20.1964L13.2384 19.0592C13.3801 18.8466 13.1828 18.5612 12.93 18.5986C12.6265 18.6435 12.3167 18.6681 12.0008 18.6681C11.6849 18.6681 11.3749 18.6435 11.0715 18.5987C10.8189 18.5615 10.6218 18.8466 10.7636 19.0589L11.5223 20.1964ZM15.1495 19.1908C15.0024 19.4135 15.2181 19.6833 15.4606 19.572C16.8853 18.9186 18.0938 17.8764 18.951 16.5797C19.0696 16.4003 18.9369 16.1678 18.7218 16.1678H17.3301C17.2454 16.1678 17.1654 16.2061 17.1154 16.2744C16.754 16.7664 15.7587 18.2686 15.1495 19.1908ZM19.7462 14.501C19.8679 14.501 19.976 14.4222 20.0098 14.3053C20.2211 13.5735 20.3349 12.8001 20.3349 12.0008C20.3349 11.2023 20.2211 10.4284 20.0098 9.69639C19.976 9.57946 19.8679 9.50063 19.7462 9.50063H18.5916C18.3936 9.50063 18.2582 9.70148 18.3214 9.88916C18.5449 10.5535 18.6681 11.2633 18.6681 12.0008C18.6681 12.739 18.5449 13.4486 18.3215 14.1124C18.2583 14.3001 18.3938 14.501 18.5918 14.501H19.7462ZM14.1721 10.0611L14.1742 10.0639C14.3922 10.3679 14.4115 10.7692 14.2375 11.0914L14.2079 11.1462L14.2289 11.2047C14.3365 11.5055 14.3812 11.8292 14.3626 12.1454V12.1458C14.331 12.7054 14.1026 13.2534 13.6773 13.6788C13.252 14.1044 12.7045 14.3328 12.1475 14.3625H12.1468C11.8302 14.3812 11.509 14.3383 11.207 14.2289L11.148 14.2075L11.0929 14.2375C10.7692 14.4132 10.3663 14.3922 10.0643 14.1758L10.0615 14.1738C10.0202 14.1458 9.97958 14.1121 9.94016 14.0725C9.90058 14.033 9.86691 13.9925 9.83882 13.951L9.83682 13.9482C9.6188 13.6442 9.59938 13.2431 9.77515 12.9189L9.80507 12.8638L9.78382 12.805C9.67439 12.5025 9.62972 12.1793 9.65014 11.8574V11.8565C9.68181 11.301 9.90999 10.757 10.3335 10.3332C10.7571 9.90949 11.3009 9.68114 11.856 9.64955H11.8562C12.1767 9.63089 12.4982 9.67381 12.8044 9.78332L12.8631 9.80432L12.9179 9.77456C13.2417 9.5988 13.6446 9.61997 13.9466 9.83624L13.9465 9.83632L13.9493 9.83815C13.9908 9.86641 14.0313 9.90007 14.0708 9.93958C14.1103 9.97917 14.1439 10.0197 14.1721 10.0611Z" />
</svg>
