<svg width="24" height="24" viewBox="0 0 24 24" xmlns="http://www.w3.org/2000/svg">
<path fill-rule="evenodd" clip-rule="evenodd" d="M14.0833 17C15.464 17 16.5833 18.1193 16.5833 19.5C16.5833 20.8807 15.464 22 14.0833 22C12.7026 22 11.5833 20.8807 11.5833 19.5C11.5833 18.1193 12.7026 17 14.0833 17ZM5.75 10.75C7.82107 10.75 9.5 12.4289 9.5 14.5C9.5 16.5711 7.82107 18.25 5.75 18.25C3.67893 18.25 2 16.5711 2 14.5C2 12.4289 3.67893 10.75 5.75 10.75ZM16.375 2C19.4816 2 22 4.5184 22 7.625C22 10.7316 19.4816 13.25 16.375 13.25C13.2684 13.25 10.75 10.7316 10.75 7.625C10.75 4.5184 13.2684 2 16.375 2Z" />
</svg>
