<svg xmlns="http://www.w3.org/2000/svg" width="24" height="24" viewBox="0 0 24 24" fill="none">
<path fill-rule="evenodd" clip-rule="evenodd" d="M15.7889 9.17445C16.4465 8.55655 17.3143 8.21178 18.2167 8.21C18.7137 8.21015 19.2059 8.30822 19.6651 8.49861C20.1243 8.689 20.5414 8.96798 20.8927 9.31962C21.2441 9.67126 21.5227 10.0887 21.7127 10.548C21.9027 11.0073 22.0003 11.4996 22 11.9967C22 13.8056 20.21 15.3522 19.7622 15.7089C17.6689 17.3756 14.9422 18.35 12 18.35C9.05778 18.35 6.33111 17.3756 4.23778 15.7089C3.79333 15.3533 2 13.8033 2 11.9967C1.99971 11.4997 2.09731 11.0075 2.28722 10.5483C2.47714 10.089 2.75566 9.67163 3.10687 9.32001C3.45808 8.96839 3.87511 8.68938 4.33415 8.49892C4.79319 8.30847 5.28524 8.21029 5.78222 8.21C6.68493 8.2115 7.55327 8.55629 8.21111 9.17445L8.27667 9.14111C8.42444 7.18889 10.0111 5.65 12 5.65C13.9889 5.65 15.5756 7.18889 15.7233 9.14111L15.7889 9.17445ZM16.5444 12.9389C16.8322 13.2256 17.0378 13.5722 17.1522 13.9511H17.1556C17.1672 13.9925 17.17 14.0359 17.1638 14.0784C17.1575 14.121 17.1424 14.1617 17.1193 14.198C17.0962 14.2343 17.0658 14.2653 17.0299 14.289C16.994 14.3127 16.9535 14.3286 16.9111 14.3356C16.8377 14.3469 16.7626 14.3312 16.6998 14.2914C16.6371 14.2515 16.5909 14.1902 16.57 14.1189C16.4825 13.8358 16.3272 13.5784 16.1178 13.3689C15.941 13.1916 15.7296 13.0527 15.4968 12.9607C15.2639 12.8688 15.0146 12.8258 14.7644 12.8344L14.7089 12.8367C14.8515 12.9021 14.9718 13.0079 15.055 13.1409C15.1382 13.274 15.1806 13.4285 15.1769 13.5853C15.1733 13.7422 15.1238 13.8946 15.0346 14.0236C14.9453 14.1527 14.8203 14.2528 14.6748 14.3116C14.5293 14.3704 14.3698 14.3853 14.216 14.3545C14.0621 14.3236 13.9207 14.2484 13.8091 14.1381C13.6975 14.0278 13.6206 13.8872 13.588 13.7337C13.5554 13.5803 13.5685 13.4206 13.6256 13.2744C13.5893 13.3041 13.5544 13.3356 13.5211 13.3689C13.3078 13.5822 13.1544 13.8389 13.0678 14.1189C13.0475 14.1904 13.0017 14.2519 12.939 14.2919C12.8763 14.3318 12.8012 14.3474 12.7278 14.3356C12.6853 14.3286 12.6449 14.3127 12.609 14.289C12.5731 14.2653 12.5426 14.2343 12.5196 14.198C12.4965 14.1617 12.4813 14.121 12.4751 14.0784C12.4689 14.0359 12.4717 13.9925 12.4833 13.9511C12.5978 13.5722 12.8033 13.2256 13.0911 12.9389C13.5492 12.4811 14.1702 12.2237 14.8178 12.2233C15.4689 12.2233 16.0844 12.4789 16.5444 12.9389ZM9.12889 12.8344L9.18444 12.8322C9.57561 12.8305 9.95696 12.9546 10.2721 13.1863C10.5873 13.418 10.8195 13.745 10.9344 14.1189C10.9554 14.1902 11.0015 14.2515 11.0643 14.2914C11.127 14.3312 11.2021 14.3469 11.2756 14.3356C11.318 14.3286 11.3585 14.3127 11.3943 14.289C11.4302 14.2653 11.4607 14.2343 11.4838 14.198C11.5068 14.1617 11.522 14.121 11.5282 14.0784C11.5345 14.0359 11.5317 13.9925 11.52 13.9511C11.4028 13.569 11.1938 13.2214 10.9111 12.9389C10.4531 12.4811 9.83206 12.2237 9.18444 12.2233C8.53333 12.2233 7.91778 12.4789 7.45778 12.9389C7.17 13.2256 6.96444 13.5722 6.85 13.9511C6.83833 13.9925 6.83552 14.0359 6.84176 14.0784C6.84801 14.121 6.86316 14.1617 6.88623 14.198C6.90931 14.2343 6.93978 14.2653 6.97566 14.289C7.01154 14.3127 7.05201 14.3286 7.09444 14.3356C7.16782 14.3474 7.24298 14.3318 7.30565 14.2919C7.36832 14.2519 7.41415 14.1904 7.43444 14.1189C7.53691 13.7904 7.73029 13.4976 7.99222 13.2744C7.93479 13.4208 7.92151 13.5808 7.95402 13.7346C7.98653 13.8884 8.0634 14.0294 8.17514 14.14C8.28688 14.2506 8.42857 14.326 8.58272 14.357C8.73687 14.3879 8.89671 14.373 9.04248 14.3141C9.18825 14.2552 9.31357 14.1549 9.40294 14.0255C9.4923 13.8962 9.54181 13.7435 9.54533 13.5863C9.54884 13.4291 9.50622 13.2743 9.42273 13.1411C9.33924 13.0079 9.21855 12.902 9.07556 12.8367H9.07333L9.12889 12.8344ZM12.0022 15.7733C12.4711 15.7733 12.8978 15.5956 13.2244 15.3056C13.2806 15.2548 13.3533 15.2262 13.429 15.2252C13.5046 15.2242 13.5781 15.2508 13.6356 15.3C13.6676 15.3276 13.6935 15.3616 13.7114 15.3999C13.7294 15.4382 13.739 15.4799 13.7398 15.5221C13.7405 15.5644 13.7323 15.6064 13.7157 15.6453C13.6991 15.6842 13.6744 15.7191 13.6433 15.7478C13.1953 16.1578 12.6101 16.3852 12.0028 16.3852C11.3955 16.3852 10.8102 16.1578 10.3622 15.7478C10.3312 15.7191 10.3065 15.6842 10.2899 15.6453C10.2733 15.6064 10.265 15.5644 10.2658 15.5221C10.2665 15.4799 10.2762 15.4382 10.2941 15.3999C10.3121 15.3616 10.338 15.3276 10.37 15.3C10.4272 15.2501 10.5007 15.223 10.5766 15.2241C10.6525 15.2251 10.7253 15.2541 10.7811 15.3056C11.1044 15.5944 11.5344 15.7722 12.0033 15.7722" fill="currentColor"/>
</svg>
