<svg width="24" height="24" viewBox="0 0 24 24" fill="currentColor" xmlns="http://www.w3.org/2000/svg">
<path d="M1 12C1.0001 11.0507 1.27044 10.121 1.77942 9.31972C2.2884 8.5184 3.01498 7.87853 3.87421 7.47493C4.73344 7.07133 5.68981 6.92067 6.63151 7.04057C7.57321 7.16046 8.46132 7.54597 9.192 8.152C9.94031 7.41401 10.949 7.00019 12 7C13.095 7 14.086 7.44 14.808 8.152C15.7614 7.36213 16.974 6.95409 18.211 7.00688C19.448 7.05967 20.6214 7.56953 21.5041 8.43776C22.3867 9.30599 22.9159 10.4708 22.9891 11.7068C23.0623 12.9427 22.6743 14.1619 21.9002 15.1282C21.1262 16.0945 20.0211 16.7393 18.799 16.9377C17.5769 17.1361 16.3246 16.874 15.2847 16.2022C14.2447 15.5303 13.491 14.4965 13.1694 13.3009C12.8478 12.1053 12.9813 10.8329 13.544 9.73C13.3565 9.50188 13.1208 9.31812 12.8538 9.19191C12.5869 9.06569 12.2953 9.00015 12 9C11.38 9 10.823 9.283 10.456 9.73C10.7988 10.4035 10.9845 11.1459 10.9991 11.9015C11.0137 12.6571 10.8568 13.4061 10.5402 14.0924C10.2237 14.7786 9.75573 15.3841 9.1715 15.8635C8.58727 16.3428 7.90197 16.6835 7.16714 16.8599C6.4323 17.0363 5.66703 17.0439 4.92886 16.882C4.19069 16.7201 3.49882 16.393 2.90526 15.9252C2.3117 15.4575 1.83188 14.8613 1.50189 14.1814C1.17189 13.5015 1.00029 12.7557 1 12Z" />
</svg>
