<svg xmlns="http://www.w3.org/2000/svg" width="24" height="24" viewBox="0 0 24 24" fill="none">
<path d="M12 3.5C12 2.67157 12.6753 1.98849 13.4944 2.11229C14.5523 2.27217 15.5809 2.60128 16.5399 3.08993C17.946 3.80638 19.1626 4.84543 20.0902 6.12215C21.0178 7.39886 21.63 8.87698 21.8769 10.4357C22.1238 11.9943 21.9982 13.5893 21.5106 15.0902C21.0229 16.591 20.187 17.9552 19.0711 19.0711C17.9552 20.187 16.591 21.0229 15.0902 21.5106C13.5893 21.9982 11.9943 22.1238 10.4357 21.8769C9.37257 21.7085 8.34695 21.3702 7.39715 20.8777C6.66169 20.4964 6.51689 19.5469 7.00383 18.8766C7.49076 18.2064 8.42545 18.0753 9.18388 18.4085C9.73166 18.6493 10.3099 18.8196 10.905 18.9138C11.996 19.0866 13.1125 18.9988 14.1631 18.6574C15.2137 18.316 16.1686 17.7309 16.9497 16.9497C17.7309 16.1686 18.316 15.2137 18.6574 14.1631C18.9988 13.1125 19.0866 11.996 18.9138 10.905C18.741 9.81389 18.3124 8.7792 17.6631 7.8855C17.0138 6.9918 16.1622 6.26446 15.1779 5.76295C14.6411 5.48945 14.0732 5.28734 13.4886 5.1601C12.6791 4.98394 12 4.32843 12 3.5Z" fill="white"/>
</svg>