<svg xmlns="http://www.w3.org/2000/svg" width="24" height="24" viewBox="0 0 24 24" fill="none">
  <path d="M6 14C5.45 14 4.97933 13.8043 4.588 13.413C4.19667 13.0217 4.00067 12.5507 4 12C3.99934 11.4493 4.19533 10.9787 4.588 10.588C4.98067 10.1973 5.45133 10.0013 6 10C6.54867 9.99867 7.01967 10.1947 7.413 10.588C7.80634 10.9813 8.002 11.452 8 12C7.998 12.548 7.80234 13.019 7.413 13.413C7.02367 13.807 6.55267 14.0027 6 14ZM12 14C11.45 14 10.9793 13.8043 10.588 13.413C10.1967 13.0217 10.0007 12.5507 10 12C9.99934 11.4493 10.1953 10.9787 10.588 10.588C10.9807 10.1973 11.4513 10.0013 12 10C12.5487 9.99867 13.0197 10.1947 13.413 10.588C13.8063 10.9813 14.002 11.452 14 12C13.998 12.548 13.8023 13.019 13.413 13.413C13.0237 13.807 12.5527 14.0027 12 14ZM18 14C17.45 14 16.9793 13.8043 16.588 13.413C16.1967 13.0217 16.0007 12.5507 16 12C15.9993 11.4493 16.1953 10.9787 16.588 10.588C16.9807 10.1973 17.4513 10.0013 18 10C18.5487 9.99867 19.0197 10.1947 19.413 10.588C19.8063 10.9813 20.002 11.452 20 12C19.998 12.548 19.8023 13.019 19.413 13.413C19.0237 13.807 18.5527 14.0027 18 14Z" fill="currentColor"/>
</svg>
