<svg xmlns="http://www.w3.org/2000/svg" width="24" height="24" viewBox="0 0 24 24" fill="none">
<path d="M12 20C11.45 20 10.9793 19.8043 10.588 19.413C10.1967 19.0217 10.0007 18.5507 10 18C9.99934 17.4493 10.1953 16.9787 10.588 16.588C10.9807 16.1973 11.4513 16.0013 12 16C12.5487 15.9987 13.0197 16.1947 13.413 16.588C13.8063 16.9813 14.002 17.452 14 18C13.998 18.548 13.8023 19.019 13.413 19.413C13.0237 19.807 12.5527 20.0027 12 20ZM12 14C11.45 14 10.9793 13.8043 10.588 13.413C10.1967 13.0217 10.0007 12.5507 10 12C9.99934 11.4493 10.1953 10.9787 10.588 10.588C10.9807 10.1973 11.4513 10.0013 12 10C12.5487 9.99867 13.0197 10.1947 13.413 10.588C13.8063 10.9813 14.002 11.452 14 12C13.998 12.548 13.8023 13.019 13.413 13.413C13.0237 13.807 12.5527 14.0027 12 14ZM12 8C11.45 8 10.9793 7.80433 10.588 7.413C10.1967 7.02167 10.0007 6.55067 10 6C9.99934 5.44933 10.1953 4.97867 10.588 4.588C10.9807 4.19733 11.4513 4.00133 12 4C12.5487 3.99867 13.0197 4.19467 13.413 4.588C13.8063 4.98133 14.002 5.452 14 6C13.998 6.548 13.8023 7.019 13.413 7.413C13.0237 7.807 12.5527 8.00267 12 8Z" fill="currentColor"/>
</svg>
