<svg width="24" height="24" viewBox="0 0 24 24" fill="none" xmlns="http://www.w3.org/2000/svg">
<path d="M4.05395 4.49001C2.70728 4.49001 2 5.31179 2 6.54395V17.4535C2 18.6857 2.70728 19.5074 4.05395 19.5074H19.9461C21.2927 19.5074 22 18.6857 22 17.4535V6.54395C22 5.31179 21.2927 4.49001 19.9461 4.49001H4.05395Z" fill="#D9D6CC"/>
<path d="M4.21609 5.33203C3.15014 5.33203 2.8327 5.97086 2.8327 6.76438V11.9865L7.53692 11.9952C8.79372 11.9975 9.3083 12.5031 9.83201 13.2106C9.9654 13.3908 10.1276 13.635 10.2861 13.7935C10.7592 14.2671 11.3796 14.5037 12 14.5037C12.6204 14.5037 13.2408 14.2671 13.7139 13.7935C13.8723 13.635 14.0346 13.3908 14.168 13.2106C14.6917 12.5031 15.2063 11.9975 16.463 11.9952L21.1673 11.9865V6.7644C21.1673 5.97088 20.8498 5.33206 19.7839 5.33206L4.21609 5.33203Z" fill="#F16D5E"/>
<path d="M4.21609 5.33203C3.15014 5.33203 2.8327 5.97086 2.8327 6.76438V8.43744C2.8327 7.64392 3.15014 7.00512 4.21609 7.00512H19.7839C20.8498 7.00512 21.1673 7.64392 21.1673 8.43747V6.7644C21.1673 5.97086 20.8498 5.33203 19.7839 5.33203H4.21609Z" fill="#3295C9"/>
<mask id="mask0_6_83" style="mask-type:luminance" maskUnits="userSpaceOnUse" x="2" y="5" width="20" height="4">
<path d="M4.21609 5.33203C3.15017 5.33203 2.8327 5.97083 2.8327 6.76438V8.43744C2.8327 7.64392 3.15017 7.00512 4.21609 7.00512H19.7839C20.8498 7.00512 21.1673 7.64392 21.1673 8.43744V6.76438C21.1673 5.97083 20.8498 5.33203 19.7839 5.33203H4.21609Z" fill="white"/>
</mask>
<g mask="url(#mask0_6_83)">
<path d="M4.21609 7.0051C3.15017 7.0051 2.8327 7.64395 2.8327 8.43747V10.1106C2.8327 9.31704 3.15017 8.67822 4.21609 8.67822H19.7839C20.8498 8.67822 21.1673 9.31704 21.1673 10.1106V8.4375C21.1673 7.64395 20.8498 7.00515 19.7839 7.00515L4.21609 7.0051Z" fill="black" fill-opacity="0.318"/>
</g>
<path d="M4.21609 7.00513C3.15014 7.00513 2.8327 7.64393 2.8327 8.43747V10.1105C2.8327 9.31702 3.15014 8.67819 4.21609 8.67819H19.7839C20.8498 8.67819 21.1673 9.31702 21.1673 10.1105V8.43747C21.1673 7.64393 20.8498 7.00513 19.7839 7.00513H4.21609Z" fill="#FCAD00"/>
<path d="M4.21609 8.67819C3.15014 8.67819 2.8327 9.31702 2.8327 10.1105V11.7836C2.8327 10.9901 3.15014 10.3513 4.21609 10.3513H19.7839C20.8498 10.3513 21.1673 10.9901 21.1673 11.7836V10.1106C21.1673 9.31702 20.8498 8.67819 19.7839 8.67819H4.21609Z" fill="#50BE3D"/>
<path d="M2 10.7606H2.83272V11.9865H2V10.7606Z" fill="url(#paint0_linear_6_83)"/>
<path d="M21.1673 10.7606H22V11.9865H21.1673V10.7606Z" fill="url(#paint1_linear_6_83)"/>
<defs>
<linearGradient id="paint0_linear_6_83" x1="2" y1="133.345" x2="2" y2="69.8069" gradientUnits="userSpaceOnUse">
<stop stop-color="#CBC9BE"/>
<stop offset="1" stop-color="#C8C5BB" stop-opacity="0"/>
</linearGradient>
<linearGradient id="paint1_linear_6_83" x1="21.1673" y1="133.345" x2="21.1673" y2="69.8069" gradientUnits="userSpaceOnUse">
<stop stop-color="#CBC9BE"/>
<stop offset="1" stop-color="#C8C5BB" stop-opacity="0"/>
</linearGradient>
</defs>
</svg>
