<svg width="24" height="24" viewBox="0 0 24 24" fill="currentColor" xmlns="http://www.w3.org/2000/svg">
<path d="M9 20H5C4.45 20 3.97933 19.8043 3.588 19.413C3.19667 19.0217 3.00067 18.5507 3 18V4C3 3.45 3.196 2.97933 3.588 2.588C3.98 2.19667 4.45067 2.00067 5 2H19C19.55 2 20.021 2.196 20.413 2.588C20.805 2.98 21.0007 3.45067 21 4V18C21 18.55 20.8043 19.021 20.413 19.413C20.0217 19.805 19.5507 20.0007 19 20H15L12.7 22.3C12.6 22.4 12.4917 22.471 12.375 22.513C12.2583 22.555 12.1333 22.5757 12 22.575C11.8667 22.5743 11.7417 22.5537 11.625 22.513C11.5083 22.4723 11.4 22.4013 11.3 22.3L9 20ZM12 12C12.9667 12 13.7917 11.6583 14.475 10.975C15.1583 10.2917 15.5 9.46667 15.5 8.5C15.5 7.53333 15.1583 6.70833 14.475 6.025C13.7917 5.34167 12.9667 5 12 5C11.0333 5 10.2083 5.34167 9.525 6.025C8.84167 6.70833 8.5 7.53333 8.5 8.5C8.5 9.46667 8.84167 10.2917 9.525 10.975C10.2083 11.6583 11.0333 12 12 12ZM5 18H19V16.85C18.1 15.9667 17.0543 15.271 15.863 14.763C14.6717 14.255 13.384 14.0007 12 14C10.616 13.9993 9.32833 14.2537 8.137 14.763C6.94567 15.2723 5.9 15.968 5 16.85V18Z" />
</svg>
