<svg xmlns="http://www.w3.org/2000/svg" width="24" height="24" viewBox="0 0 24 24" fill="none">
<path d="M8.50182 19.3116C8.62382 19.2547 8.75733 19.2297 8.89315 19.2365C9.197 19.2524 9.46862 19.4413 9.60674 19.7326L10.2904 21.1821L11.4736 17.969C11.2917 17.9235 11.1191 17.8529 10.9557 17.7596L10.44 17.4661C10.1799 17.3182 9.88527 17.2385 9.58372 17.2385H8.98983C8.68137 17.2385 8.37522 17.1703 8.09669 17.0383L7.00558 20.0011L8.50182 19.3116Z" fill="#EAC9F8"/>
<path d="M10.3894 21.346C10.3756 21.3847 10.341 21.4097 10.2996 21.4097H10.295C10.2559 21.4097 10.2213 21.3869 10.2052 21.3528L9.46862 19.794C9.35583 19.5551 9.13254 19.3981 8.88394 19.3844C8.77345 19.3776 8.66296 19.4003 8.56397 19.4458L6.95724 20.1854C6.9066 20.2082 6.84675 20.1877 6.82373 20.1376C6.81222 20.1149 6.81222 20.0876 6.82143 20.0625L7.96087 16.9677C7.85269 16.9086 7.7514 16.838 7.65702 16.7606L6.36566 20.2696C6.30581 20.4289 6.39098 20.6064 6.55211 20.6656C6.63037 20.6929 6.71554 20.6906 6.79151 20.6565L8.7182 19.769C8.87473 19.6984 9.05888 19.7644 9.13254 19.9192L10.0303 21.8216C10.1039 21.9763 10.2881 22.0423 10.4446 21.9718C10.5206 21.9376 10.5781 21.8739 10.6058 21.7965L11.9892 18.0327C11.8649 18.0327 11.7429 18.0213 11.6209 17.9986L10.3894 21.346Z" fill="#EAC9F8"/>
<path d="M6.84907 20.1695C6.879 20.1968 6.92273 20.2036 6.95956 20.1854L8.56629 19.4458C8.66527 19.4003 8.77577 19.3776 8.88626 19.3844C9.13256 19.3981 9.35815 19.5551 9.47094 19.794L10.2076 21.3528C10.2237 21.3869 10.2582 21.4097 10.2973 21.4097H10.3019C10.3434 21.4074 10.3779 21.3824 10.3917 21.346L11.6209 17.9986C11.5703 17.9895 11.5219 17.9781 11.4713 17.9667L10.2881 21.1798L9.60445 19.7303C9.46864 19.4413 9.19471 19.2524 8.89086 19.2342C8.75505 19.2274 8.62154 19.2524 8.49954 19.3093L7.0056 19.9965L8.0967 17.0337C8.05067 17.011 8.00463 16.9882 7.96089 16.9654L6.82145 20.0603C6.80764 20.1012 6.81915 20.1422 6.84907 20.1695Z" fill="white"/>
<path d="M14.4292 19.703C14.4799 19.5961 14.5535 19.5005 14.6456 19.4254C14.6571 19.4163 14.6686 19.4072 14.6801 19.3981C14.9218 19.2183 15.2556 19.1887 15.5479 19.323L17.0143 19.9966L15.9186 17.0269C15.6354 17.1634 15.3224 17.234 15.007 17.234H14.4131C14.1116 17.234 13.8169 17.3136 13.5568 17.4615L13.0412 17.7551C12.8846 17.8438 12.7166 17.9144 12.5417 17.9599L13.7294 21.1799L14.4292 19.703Z" fill="#EAC9F8"/>
<path d="M17.2008 20.0603C17.2192 20.1126 17.1939 20.1672 17.1409 20.1877C17.1156 20.1968 17.088 20.1945 17.065 20.1854L15.4858 19.4595C15.2441 19.348 14.9702 19.3708 14.7723 19.5164C14.763 19.5232 14.7515 19.5323 14.7423 19.5392C14.6664 19.6006 14.6065 19.678 14.5651 19.7667L13.817 21.3551C13.8009 21.3892 13.7663 21.412 13.7272 21.412H13.7226C13.6812 21.4097 13.6466 21.3847 13.6328 21.3483L12.3967 17.9963C12.2747 18.0191 12.1527 18.0327 12.0284 18.0327L13.4164 21.7965C13.4763 21.9558 13.6558 22.0378 13.817 21.9786C13.8929 21.9513 13.9574 21.8944 13.9919 21.8193L14.8897 19.9146C14.9633 19.7599 15.1475 19.6939 15.304 19.7644L17.2284 20.6496C17.3849 20.7225 17.5714 20.6542 17.6427 20.4995C17.6773 20.4244 17.6819 20.3402 17.6519 20.2628L16.3583 16.747C16.2639 16.8266 16.1626 16.8972 16.0544 16.9586L17.2008 20.0603Z" fill="#EAC9F8"/>
<path d="M13.7226 21.412H13.7272C13.7663 21.412 13.8008 21.3892 13.8169 21.3551L14.5651 19.7667C14.6065 19.678 14.6663 19.6006 14.7423 19.5392C14.7515 19.5323 14.7607 19.5232 14.7722 19.5164C14.9702 19.3685 15.2441 19.348 15.4858 19.4595L17.0649 20.1854C17.1156 20.2082 17.1754 20.1877 17.1984 20.1376C17.2099 20.1149 17.2099 20.0876 17.2007 20.0625L16.0567 16.9586C16.0129 16.9837 15.9669 17.0064 15.9209 17.0292L17.0166 19.9988L15.5503 19.3253C15.2579 19.191 14.9241 19.2183 14.6824 19.4003C14.6709 19.4095 14.6594 19.4186 14.6479 19.4277C14.5558 19.5028 14.4822 19.5983 14.4315 19.7053L13.7341 21.1821L12.5463 17.9622C12.4979 17.9758 12.4473 17.9872 12.3967 17.9963L13.6328 21.3483C13.6466 21.3847 13.6834 21.4097 13.7226 21.412Z" fill="white"/>
<path d="M19.5027 10.8646C19.8065 10.3412 19.8065 9.69721 19.5027 9.17155L19.2057 8.66182C19.0216 8.34778 18.9249 7.99279 18.9249 7.62869V7.04159C18.9249 6.43628 18.598 5.87876 18.0686 5.57611L17.553 5.28255C17.2353 5.10051 16.9729 4.84109 16.7887 4.52705L16.4918 4.01732C16.1856 3.49393 15.6217 3.17307 15.0093 3.1708H14.4155C14.0495 3.1708 13.6881 3.07522 13.3704 2.89318L12.8548 2.59962C12.3253 2.29925 11.6739 2.29925 11.1421 2.59962L10.6288 2.89318C10.3112 3.07522 9.94976 3.1708 9.58376 3.1708H8.98986C8.37756 3.1708 7.81359 3.49393 7.50744 4.01732L7.21049 4.52705C7.02634 4.84109 6.76392 5.10278 6.44626 5.28255L5.93063 5.57611C5.4012 5.87876 5.07663 6.43628 5.07432 7.04159V7.62869C5.07432 7.99051 4.97764 8.34778 4.79349 8.66182L4.49655 9.17155C4.19269 9.69494 4.19269 10.3389 4.49655 10.8646L4.79349 11.3743C4.97764 11.6884 5.07432 12.0434 5.07432 12.4074V12.9923C5.07432 13.5976 5.4012 14.1551 5.93063 14.4578L6.44626 14.7513C6.76392 14.9334 7.02864 15.1928 7.21049 15.5068L7.50744 16.0165C7.81359 16.5399 8.37756 16.8608 8.98986 16.8631H9.58376C9.94976 16.8631 10.3112 16.9586 10.6288 17.1407L11.1444 17.4342C11.6739 17.7346 12.3253 17.7346 12.8571 17.4342L13.3704 17.1407C13.6881 16.9586 14.0471 16.8631 14.4155 16.8631H15.0093C15.6217 16.8631 16.1856 16.5399 16.4918 16.0165L16.7887 15.5068C16.9729 15.1928 17.2353 14.9311 17.553 14.7513L18.0686 14.4578C18.598 14.1551 18.9249 13.5953 18.9249 12.9923V12.4052C18.9249 12.0434 19.0216 11.6861 19.2057 11.3721L19.5027 10.8646ZM12.2839 11.677L13.2024 8.71415C13.2116 8.68685 13.2254 8.65954 13.2438 8.63906C13.2668 8.61858 13.2967 8.6072 13.3267 8.60948H13.5799C13.6098 8.6072 13.6397 8.61858 13.6627 8.63906C13.6811 8.66182 13.6973 8.68685 13.7042 8.71415L14.6203 11.677C14.6249 11.6929 14.6272 11.7111 14.6272 11.7293C14.6272 11.7544 14.6203 11.7771 14.6042 11.7976C14.5904 11.8158 14.5697 11.8272 14.5467 11.8272H14.3602C14.3326 11.8294 14.3073 11.8181 14.2912 11.7976C14.2796 11.7817 14.2704 11.7635 14.2635 11.7452L14.0817 11.1672C14.0679 11.1263 14.031 11.099 13.9873 11.099H12.9238C12.8801 11.099 12.8433 11.1263 12.8294 11.1672L12.6476 11.7452C12.643 11.7657 12.6338 11.7817 12.62 11.7976C12.6016 11.8181 12.5762 11.8294 12.5486 11.8272H12.3599C12.3368 11.8272 12.3161 11.8158 12.3023 11.7976C12.2862 11.7771 12.2793 11.7544 12.2793 11.7293C12.2816 11.7088 12.2839 11.6929 12.2839 11.677ZM9.67123 9.92932L10.4654 8.65044C10.5275 8.55031 10.6587 8.52073 10.76 8.58217C10.7877 8.60037 10.813 8.62313 10.8291 8.65044L11.6255 9.9316C11.7038 10.059 11.7061 10.2183 11.6325 10.3458L10.8429 11.7111C10.8061 11.7771 10.7347 11.8181 10.6587 11.8181C10.5828 11.8181 10.5137 11.7794 10.4746 11.7134L9.66662 10.348C9.58836 10.2183 9.59066 10.0568 9.67123 9.92932ZM7.47521 10.5733C7.42917 10.5733 7.39004 10.6097 7.39004 10.6575V11.7134C7.39004 11.743 7.38313 11.7703 7.36472 11.793C7.34861 11.8135 7.32329 11.8249 7.29566 11.8249H7.1C7.07238 11.8249 7.04706 11.8135 7.03325 11.793C7.01713 11.7703 7.01023 11.743 7.01023 11.7134V8.90758C7.01023 8.74146 7.14604 8.6072 7.31408 8.6072H8.04378C8.22793 8.6072 8.38907 8.64361 8.52258 8.71871C8.65839 8.7938 8.76888 8.90986 8.83794 9.04867C8.9116 9.19431 8.95073 9.37635 8.95073 9.59481C8.95073 9.81327 8.9139 9.99531 8.83794 10.1387C8.76888 10.2775 8.65839 10.3913 8.52258 10.4664C8.38677 10.5392 8.22563 10.5779 8.04378 10.5779L7.47521 10.5733ZM17.21 10.1364C17.1409 10.2752 17.0304 10.389 16.8946 10.4641C16.7588 10.5369 16.5977 10.5756 16.4158 10.5756H15.8495C15.8035 10.5756 15.7644 10.612 15.7644 10.6598V11.7157C15.7644 11.7452 15.7575 11.7726 15.739 11.7953C15.7229 11.8158 15.6976 11.8272 15.67 11.8272H15.4743C15.4467 11.8272 15.4214 11.8158 15.4053 11.7953C15.3892 11.7726 15.38 11.7452 15.3823 11.7157V8.90758C15.3823 8.74146 15.5181 8.60948 15.6838 8.6072H16.4135C16.5977 8.6072 16.7588 8.64361 16.8923 8.71871C17.0281 8.7938 17.1386 8.90986 17.2077 9.04867C17.2813 9.19431 17.3182 9.37635 17.3182 9.59481C17.3182 9.81327 17.2836 9.99304 17.21 10.1364Z" fill="white"/>
<path d="M15.8495 10.1773H16.3974C16.5769 10.1773 16.7151 10.1273 16.8048 10.0271C16.8946 9.92702 16.9406 9.78138 16.9406 9.59023C16.9406 9.39908 16.8969 9.25571 16.8094 9.15559C16.722 9.05546 16.5838 9.00085 16.3997 9.00085H15.8541C15.8058 9.00085 15.7667 9.03953 15.7667 9.08732V10.0863C15.7621 10.1386 15.8012 10.1773 15.8495 10.1773Z" fill="white"/>
<path d="M8.02071 9.00314H7.47286C7.42452 9.00314 7.38538 9.04183 7.38538 9.08962V10.0886C7.38538 10.1364 7.42452 10.1751 7.47286 10.1751H8.02071C8.20026 10.1751 8.33837 10.125 8.42815 10.0249C8.51792 9.92476 8.56396 9.77912 8.56396 9.59025C8.56396 9.40137 8.52022 9.25573 8.43275 9.15561C8.34528 9.05548 8.20716 9.00314 8.02071 9.00314Z" fill="white"/>
<path d="M13.0112 10.6916H13.8975C13.909 10.6916 13.9205 10.6871 13.9274 10.678C13.9343 10.6689 13.9366 10.6575 13.932 10.6461L13.49 9.20568C13.4831 9.18748 13.4624 9.1761 13.444 9.18293C13.4325 9.18748 13.4256 9.1943 13.421 9.20568L12.9767 10.6461C12.9721 10.6643 12.9836 10.6848 13.002 10.6894C13.0043 10.6894 13.0089 10.6894 13.0112 10.6916Z" fill="white"/>
<path d="M19.8295 8.98495L19.5326 8.47521C19.383 8.21807 19.3024 7.92679 19.3024 7.62869V7.04159C19.3001 6.30429 18.9042 5.62161 18.2573 5.25297L17.744 4.95941C17.4839 4.8115 17.2675 4.59759 17.1179 4.34045L16.821 3.83072C16.4457 3.19355 15.7575 2.79987 15.0117 2.7976H14.4155C14.1139 2.7976 13.8193 2.71795 13.5592 2.57004L13.0435 2.27649C12.3967 1.90784 11.6002 1.90784 10.9534 2.27649L10.4401 2.57004C10.18 2.71795 9.88531 2.7976 9.58376 2.7976H8.98987C8.24405 2.7976 7.55348 3.19127 7.18057 3.83072L6.88363 4.34045C6.734 4.59759 6.51762 4.8115 6.25751 4.95941L5.74188 5.25297C5.09735 5.62161 4.69912 6.30429 4.69682 7.04159V7.62869C4.69682 7.92679 4.61625 8.21807 4.46663 8.47521L4.16968 8.98495C3.79677 9.62439 3.79677 10.4117 4.16968 11.0512L4.46663 11.5586C4.61625 11.8158 4.69682 12.1071 4.69682 12.4052V12.9923C4.69912 13.7296 5.09505 14.4122 5.74188 14.7809L6.25521 15.0767C6.51532 15.2246 6.7317 15.4385 6.88132 15.6957L7.17827 16.2054C7.36472 16.524 7.63405 16.788 7.95862 16.97C8.00235 16.995 8.04839 17.0178 8.09443 17.0383C8.37296 17.1703 8.67911 17.2385 8.98757 17.2385H9.58146C9.88301 17.2385 10.1777 17.3182 10.4378 17.4661L10.9534 17.7596C11.1145 17.8529 11.2895 17.9235 11.4713 17.969C11.5197 17.9827 11.5703 17.9918 11.6209 18.0009C11.7429 18.0236 11.8649 18.035 11.9893 18.035H11.9985H12.0284C12.1527 18.0327 12.2747 18.0213 12.3967 17.9986C12.4473 17.9895 12.4957 17.9781 12.5463 17.9645C12.7213 17.9189 12.8893 17.8484 13.0458 17.7596L13.5615 17.4661C13.8216 17.3182 14.1162 17.2385 14.4178 17.2385H15.0117C15.327 17.2385 15.6378 17.168 15.9232 17.0315C15.9692 17.0087 16.0153 16.9859 16.059 16.9609C16.3767 16.7789 16.6391 16.5194 16.8233 16.2054L17.1202 15.6957C17.2698 15.4385 17.4885 15.2246 17.7486 15.0767L18.2642 14.7832C18.9111 14.4122 19.307 13.7318 19.3093 12.9923V12.4052C19.3093 12.1071 19.3899 11.8158 19.5395 11.5586L19.8364 11.0489C20.2024 10.4117 20.2024 9.62439 19.8295 8.98495ZM18.9249 12.9923C18.9249 13.5976 18.598 14.1551 18.0686 14.4578L17.553 14.7513C17.2353 14.9334 16.9729 15.1928 16.7887 15.5068L16.4918 16.0165C16.1856 16.5399 15.6217 16.8608 15.0094 16.8631H14.4155C14.0495 16.8631 13.6881 16.9586 13.3704 17.1407L12.8548 17.4342C12.3253 17.7346 11.6739 17.7346 11.1422 17.4342L10.6265 17.1407C10.3089 16.9586 9.94746 16.8631 9.58146 16.8631H8.98757C8.37526 16.8631 7.81129 16.5399 7.50514 16.0165L7.20819 15.5068C7.02404 15.1928 6.76163 14.9311 6.44396 14.7513L5.92834 14.4578C5.3989 14.1551 5.07433 13.5953 5.07203 12.9923V12.4052C5.07203 12.0433 4.97535 11.6861 4.7912 11.372L4.49425 10.8623C4.1904 10.3389 4.1904 9.69493 4.49425 9.16927L4.7912 8.65954C4.97535 8.3455 5.07203 7.99051 5.07203 7.62641V7.03931C5.07203 6.434 5.3989 5.87648 5.92834 5.57383L6.44396 5.28027C6.76163 5.09823 7.02634 4.83881 7.20819 4.52478L7.50514 4.01504C7.81129 3.49165 8.37526 3.17079 8.98757 3.16852H9.58146C9.94746 3.16852 10.3089 3.07294 10.6265 2.8909L11.1422 2.59734C11.6716 2.29697 12.323 2.29697 12.8548 2.59734L13.3681 2.8909C13.6858 3.07294 14.0472 3.16852 14.4132 3.16852H15.007C15.6194 3.16852 16.1833 3.49165 16.4895 4.01504L16.7864 4.52478C16.9706 4.83881 17.233 5.1005 17.5507 5.28027L18.0663 5.57383C18.5957 5.87648 18.9203 6.434 18.9226 7.03931V7.62641C18.9226 7.98823 19.0193 8.3455 19.2034 8.65954L19.5004 9.16927C19.8042 9.69266 19.8042 10.3367 19.5004 10.8623L19.2034 11.372C19.0193 11.6861 18.9226 12.0411 18.9226 12.4052V12.9923H18.9249Z" fill="#5E58A5"/>
<path d="M8.52022 10.4641C8.65604 10.389 8.76653 10.2752 8.83559 10.1364C8.90925 9.99302 8.94838 9.81097 8.94838 9.59251C8.94838 9.37406 8.91155 9.19201 8.83559 9.04637C8.76653 8.90756 8.65604 8.7915 8.52022 8.71641C8.38441 8.64359 8.22328 8.6049 8.04143 8.6049H7.31172C7.14369 8.6049 7.00787 8.73916 7.00787 8.90528V11.7134C7.00787 11.7407 7.01478 11.7703 7.03089 11.793C7.04701 11.8135 7.07233 11.8272 7.09765 11.8249H7.29331C7.32093 11.8249 7.34625 11.8135 7.36237 11.793C7.38078 11.7703 7.38769 11.743 7.38769 11.7134V10.6575C7.38769 10.612 7.42452 10.5733 7.47286 10.5733H8.03913C8.22328 10.5733 8.38441 10.5369 8.52022 10.4641ZM8.56626 9.59251C8.56626 9.78139 8.52022 9.9293 8.43045 10.0294C8.34068 10.1296 8.20256 10.1796 8.02301 10.1796H7.47516C7.42682 10.1796 7.38769 10.1409 7.38769 10.0931V9.09416C7.38769 9.04637 7.42682 9.00768 7.47516 9.00768H8.02301C8.20717 9.00768 8.34528 9.06002 8.43275 9.16243C8.52022 9.26483 8.56396 9.40591 8.56626 9.59251Z" fill="#5E58A5"/>
<path d="M12.3621 11.8249H12.5509C12.5785 11.8271 12.6038 11.8158 12.6223 11.7953C12.6361 11.7816 12.6453 11.7634 12.6499 11.7429L12.8317 11.1649C12.8432 11.124 12.8824 11.0967 12.9261 11.0967H13.9873C14.031 11.0967 14.0679 11.124 14.0817 11.1649L14.2635 11.7429C14.2704 11.7612 14.2796 11.7794 14.2911 11.7953C14.3072 11.8158 14.3326 11.8271 14.3602 11.8249H14.5489C14.572 11.8249 14.5927 11.8135 14.6065 11.7953C14.6226 11.7748 14.6295 11.7521 14.6295 11.727C14.6295 11.7088 14.6272 11.6929 14.6226 11.6747L13.7088 8.71185C13.6995 8.68455 13.6857 8.65951 13.6673 8.63676C13.6443 8.61628 13.6144 8.6049 13.5845 8.60717H13.3312C13.3013 8.6049 13.2714 8.61628 13.2484 8.63676C13.23 8.65951 13.2138 8.68455 13.2069 8.71185L12.2885 11.6747C12.2862 11.6906 12.2862 11.7088 12.2839 11.7247C12.2839 11.7498 12.2908 11.7725 12.3069 11.793C12.3184 11.8135 12.3391 11.8249 12.3621 11.8249ZM12.9767 10.6438L13.421 9.20338C13.4279 9.18518 13.4486 9.1738 13.4671 9.18063C13.4786 9.18518 13.4855 9.192 13.4901 9.20338L13.932 10.6438C13.9343 10.6552 13.932 10.6666 13.9274 10.6757C13.9205 10.6848 13.909 10.6893 13.8975 10.6893H13.0113C12.9906 10.6893 12.9744 10.6734 12.9744 10.6529C12.9744 10.6507 12.9767 10.6484 12.9767 10.6438Z" fill="#5E58A5"/>
<path d="M10.4723 11.7134C10.5114 11.7794 10.5805 11.8181 10.6565 11.8181C10.7324 11.8181 10.8038 11.7771 10.8406 11.7111L11.6302 10.3457C11.7038 10.216 11.7015 10.0567 11.6233 9.93159L10.8268 8.65043C10.7646 8.5503 10.6334 8.52072 10.5322 8.58216C10.5045 8.60036 10.4792 8.62312 10.4631 8.65043L9.66894 9.92931C9.58837 10.0567 9.58837 10.2183 9.66433 10.348L10.4723 11.7134ZM10.7025 9.20112L11.278 10.125C11.2895 10.1455 11.2895 10.1705 11.278 10.191L10.7094 11.1741C10.691 11.2059 10.6519 11.215 10.6196 11.1968C10.6104 11.1923 10.6012 11.1832 10.5966 11.1741L10.0142 10.191C10.0027 10.1705 10.0027 10.1455 10.0142 10.125L10.5897 9.20112C10.6081 9.17154 10.6496 9.16243 10.6795 9.18064C10.691 9.18519 10.6979 9.19202 10.7025 9.20112Z" fill="#5E58A5"/>
<path d="M10.592 9.20112L10.0165 10.125C10.005 10.1455 10.005 10.1705 10.0165 10.191L10.5989 11.1741C10.6173 11.2059 10.6564 11.215 10.6887 11.1968C10.6979 11.1923 10.7071 11.1832 10.7117 11.1741L11.2802 10.191C11.2918 10.1705 11.2918 10.1455 11.2802 10.125L10.7048 9.20112C10.6863 9.17154 10.6449 9.16016 10.615 9.18064C10.6035 9.18519 10.5966 9.19202 10.592 9.20112Z" fill="white"/>
<path d="M16.8946 8.7187C16.7587 8.64588 16.5976 8.60719 16.4158 8.60719H15.6861C15.518 8.60719 15.3822 8.74145 15.3822 8.90757V11.7134C15.3799 11.7407 15.3891 11.7703 15.4052 11.793C15.4213 11.8135 15.4467 11.8272 15.4743 11.8249H15.6699C15.6976 11.8249 15.7229 11.8135 15.739 11.793C15.7574 11.7703 15.7643 11.743 15.7643 11.7134V10.6575C15.7643 10.612 15.8011 10.5733 15.8495 10.5733H16.4158C16.5999 10.5733 16.761 10.5369 16.8946 10.4618C17.0304 10.3867 17.1409 10.2729 17.2099 10.1341C17.2836 9.99076 17.3204 9.80871 17.3204 9.59025C17.3204 9.37179 17.2836 9.18975 17.2099 9.04411C17.1409 8.90757 17.0304 8.79379 16.8946 8.7187ZM15.762 9.0919C15.762 9.04411 15.8011 9.00542 15.8495 9.00542H16.3973C16.5815 9.00542 16.7196 9.05776 16.8071 9.16016C16.8946 9.26257 16.9383 9.4082 16.9383 9.5948C16.9383 9.7814 16.8922 9.93159 16.8025 10.0317C16.7127 10.1318 16.5769 10.1819 16.395 10.1819H15.8495C15.8011 10.1819 15.762 10.1432 15.762 10.0954V9.0919Z" fill="#5E58A5"/>
</svg>