<svg width="24" height="24" viewBox="0 0 24 24" fill="currentColor" xmlns="http://www.w3.org/2000/svg">
<path d="M10.904 2.10001L20.804 3.51401L22.218 13.414L13.026 22.606C12.9331 22.699 12.8228 22.7727 12.7014 22.8231C12.58 22.8734 12.4499 22.8993 12.3185 22.8993C12.1871 22.8993 12.057 22.8734 11.9356 22.8231C11.8142 22.7727 11.7039 22.699 11.611 22.606L1.711 12.706C1.52383 12.5185 1.41871 12.2644 1.41871 11.9995C1.41871 11.7346 1.52383 11.4805 1.711 11.293L10.904 2.10001ZM11.611 4.22201L3.833 12L12.318 20.485L20.097 12.707L19.036 5.28201L11.611 4.22201ZM13.733 10.585C13.542 10.4005 13.3896 10.1798 13.2848 9.93582C13.18 9.69181 13.1248 9.42937 13.1225 9.16381C13.1202 8.89825 13.1708 8.63489 13.2714 8.3891C13.3719 8.14331 13.5204 7.92 13.7082 7.73222C13.896 7.54443 14.1193 7.39592 14.3651 7.29536C14.6109 7.1948 14.8742 7.1442 15.1398 7.14651C15.4054 7.14881 15.6678 7.20399 15.9118 7.3088C16.1558 7.41362 16.3765 7.56599 16.561 7.75701C16.9361 8.13202 17.147 8.64071 17.1471 9.17115C17.1471 9.7016 16.9365 10.2104 16.5615 10.5855C16.1865 10.9607 15.6778 11.1715 15.1474 11.1716C14.6169 11.1717 14.1081 10.96 13.733 10.585Z" />
</svg>
