<svg width="36" height="36" viewBox="0 0 36 36" fill="currentColor" xmlns="http://www.w3.org/2000/svg">
<path d="M16.3529 3.14844L31.2029 5.26944L33.3239 20.1194L19.5359 33.9074C19.3966 34.0469 19.2312 34.1575 19.0491 34.233C18.867 34.3085 18.6718 34.3474 18.4747 34.3474C18.2776 34.3474 18.0824 34.3085 17.9003 34.233C17.7182 34.1575 17.5527 34.0469 17.4134 33.9074L2.56343 19.0574C2.28268 18.7762 2.125 18.3951 2.125 17.9977C2.125 17.6003 2.28268 17.2192 2.56343 16.9379L16.3529 3.14844ZM20.5964 15.8774C20.8751 16.156 21.2058 16.3769 21.5698 16.5276C21.9339 16.6783 22.324 16.7558 22.718 16.7558C23.1119 16.7557 23.502 16.678 23.866 16.5272C24.23 16.3764 24.5606 16.1553 24.8392 15.8767C25.1177 15.5981 25.3386 15.2673 25.4893 14.9033C25.64 14.5393 25.7176 14.1491 25.7175 13.7552C25.7174 13.3612 25.6398 12.9711 25.4889 12.6071C25.3381 12.2432 25.1171 11.9125 24.8384 11.6339C24.2757 11.0714 23.5126 10.7555 22.7169 10.7556C21.9212 10.7558 21.1582 11.072 20.5957 11.6347C20.0332 12.1974 19.7172 12.9605 19.7174 13.7562C19.7175 14.5519 20.0337 15.3149 20.5964 15.8774Z" />
</svg>
