<svg width="24" height="24" viewBox="0 0 24 24" fill="currentColor" xmlns="http://www.w3.org/2000/svg">
<path fill-rule="evenodd" clip-rule="evenodd" d="M1.5 12C1.5 11.7348 1.60536 11.4804 1.79289 11.2929C1.98043 11.1054 2.23478 11 2.5 11H21.5C21.7652 11 22.0196 11.1054 22.2071 11.2929C22.3946 11.4804 22.5 11.7348 22.5 12C22.5 12.2652 22.3946 12.5196 22.2071 12.7071C22.0196 12.8946 21.7652 13 21.5 13H2.5C2.23478 13 1.98043 12.8946 1.79289 12.7071C1.60536 12.5196 1.5 12.2652 1.5 12Z" />
<path fill-rule="evenodd" clip-rule="evenodd" d="M2 17C2 16.4477 2.44772 16 3 16H5.375C5.92728 16 6.375 16.4477 6.375 17C6.375 17.5523 5.92728 18 5.375 18H3C2.44772 18 2 17.5523 2 17ZM9.125 17C9.125 16.4477 9.57272 16 10.125 16H14.875C15.4273 16 15.875 16.4477 15.875 17C15.875 17.5523 15.4273 18 14.875 18H10.125C9.57272 18 9.125 17.5523 9.125 17ZM18.625 17C18.625 16.4477 19.0727 16 19.625 16H22C22.5523 16 23 16.4477 23 17C23 17.5523 22.5523 18 22 18H19.625C19.0727 18 18.625 17.5523 18.625 17Z" />
<path fill-rule="evenodd" clip-rule="evenodd" d="M1.5 7C1.5 6.44772 1.94772 6 2.5 6H4.875C5.42728 6 5.875 6.44772 5.875 7C5.875 7.55228 5.42728 8 4.875 8H2.5C1.94772 8 1.5 7.55228 1.5 7ZM8.625 7C8.625 6.44772 9.07272 6 9.625 6H14.375C14.9273 6 15.375 6.44772 15.375 7C15.375 7.55228 14.9273 8 14.375 8H9.625C9.07272 8 8.625 7.55228 8.625 7ZM18.125 7C18.125 6.44772 18.5727 6 19.125 6H21.5C22.0523 6 22.5 6.44772 22.5 7C22.5 7.55228 22.0523 8 21.5 8H19.125C18.5727 8 18.125 7.55228 18.125 7Z" />
</svg>
