<svg width="24" height="24" viewBox="0 0 24 24" xmlns="http://www.w3.org/2000/svg" fill="currentColor">
<path d="M20.6544 16.6027C20.6544 16.7644 20.7353 16.8916 20.897 16.984C21.0588 17.0764 21.2899 17.14 21.5904 17.1747C21.8908 17.2093 22.2433 17.2267 22.6477 17.2267H23.341V18.1453H16.2864V17.2267H17.2397C17.621 17.2267 17.9446 17.2093 18.2104 17.1747C18.4877 17.14 18.6957 17.0764 18.8344 16.984C18.9846 16.8916 19.0597 16.7644 19.0597 16.6027V8.21333L19.337 8.00533C19.2561 8.28267 19.1117 8.52533 18.9037 8.73333C18.7073 8.92978 18.453 9.09733 18.141 9.236C17.8406 9.37467 17.4997 9.47867 17.1184 9.548C16.7486 9.61733 16.3615 9.652 15.957 9.652V8.508C16.3961 8.49644 16.8064 8.46178 17.1877 8.404C17.569 8.34622 17.9099 8.25956 18.2104 8.144C18.5108 8.01689 18.7766 7.86089 19.0077 7.676C19.2388 7.49111 19.4295 7.26578 19.5797 7H20.6544V16.6027Z" />
<path d="M3.50282 11.2864H10.8002V12.3264H3.50282V11.2864ZM0.660156 18.1504V17.1798H0.850823C1.27838 17.1798 1.63082 17.1393 1.90816 17.0584C2.18549 16.9775 2.32416 16.81 2.32416 16.5558V7.43842C2.32416 7.18419 2.18549 7.01664 1.90816 6.93575C1.63082 6.85486 1.27838 6.81442 0.850823 6.81442H0.660156V5.84375H5.60016V6.81442H5.44416C5.28238 6.81442 5.10905 6.82019 4.92416 6.83175C4.75082 6.83175 4.58905 6.84331 4.43882 6.86642C4.2886 6.87797 4.16727 6.89531 4.07482 6.91842C3.98238 6.92997 3.93616 6.94731 3.93616 6.97042V17.0238C3.93616 17.0469 3.98238 17.07 4.07482 17.0931C4.16727 17.1046 4.2886 17.122 4.43882 17.1451C4.58905 17.1566 4.75082 17.1682 4.92416 17.1798C5.10905 17.1798 5.28238 17.1798 5.44416 17.1798H5.60016V18.1504H0.660156ZM8.70282 18.1504V17.1798H8.85882C9.0206 17.1798 9.18816 17.1798 9.36149 17.1798C9.54638 17.1682 9.71393 17.1566 9.86416 17.1451C10.0144 17.122 10.1357 17.1046 10.2282 17.0931C10.3206 17.07 10.3668 17.0469 10.3668 17.0238V6.97042C10.3668 6.94731 10.3206 6.92997 10.2282 6.91842C10.1357 6.89531 10.0144 6.87797 9.86416 6.86642C9.71393 6.84331 9.54638 6.83175 9.36149 6.83175C9.18816 6.82019 9.0206 6.81442 8.85882 6.81442H8.70282V5.84375H13.6428V6.81442H13.4522C13.0246 6.81442 12.6722 6.85486 12.3948 6.93575C12.1175 7.01664 11.9788 7.18419 11.9788 7.43842V16.5558C11.9788 16.81 12.1175 16.9775 12.3948 17.0584C12.6722 17.1393 13.0246 17.1798 13.4522 17.1798H13.6428V18.1504H8.70282Z" />
</svg>
