<svg width="24" height="24" viewBox="0 0 24 24" fill="currentColor" xmlns="http://www.w3.org/2000/svg">
<path d="M8.66669 7H20.6667C21.2167 7 21.6667 6.55 21.6667 6C21.6667 5.45 21.2167 5 20.6667 5H8.66669C8.11669 5 7.66669 5.45 7.66669 6C7.66669 6.55 8.11669 7 8.66669 7ZM20.6667 17H8.66669C8.11669 17 7.66669 17.45 7.66669 18C7.66669 18.55 8.11669 19 8.66669 19H20.6667C21.2167 19 21.6667 18.55 21.6667 18C21.6667 17.45 21.2167 17 20.6667 17ZM20.6667 11H8.66669C8.11669 11 7.66669 11.45 7.66669 12C7.66669 12.55 8.11669 13 8.66669 13H20.6667C21.2167 13 21.6667 12.55 21.6667 12C21.6667 11.45 21.2167 11 20.6667 11ZM5.16669 16H3.16669C2.88669 16 2.66669 16.22 2.66669 16.5C2.66669 16.78 2.88669 17 3.16669 17H4.66669V17.5H4.16669C3.88669 17.5 3.66669 17.72 3.66669 18C3.66669 18.28 3.88669 18.5 4.16669 18.5H4.66669V19H3.16669C2.88669 19 2.66669 19.22 2.66669 19.5C2.66669 19.78 2.88669 20 3.16669 20H5.16669C5.44669 20 5.66669 19.78 5.66669 19.5V16.5C5.66669 16.22 5.44669 16 5.16669 16ZM3.16669 5H3.66669V7.5C3.66669 7.78 3.88669 8 4.16669 8C4.44669 8 4.66669 7.78 4.66669 7.5V4.5C4.66669 4.22 4.44669 4 4.16669 4H3.16669C2.88669 4 2.66669 4.22 2.66669 4.5C2.66669 4.78 2.88669 5 3.16669 5ZM5.16669 10H3.16669C2.88669 10 2.66669 10.22 2.66669 10.5C2.66669 10.78 2.88669 11 3.16669 11H4.46669L2.78669 12.96C2.70958 13.0488 2.66699 13.1624 2.66669 13.28V13.5C2.66669 13.78 2.88669 14 3.16669 14H5.16669C5.44669 14 5.66669 13.78 5.66669 13.5C5.66669 13.22 5.44669 13 5.16669 13H3.86669L5.54669 11.04C5.62379 10.9512 5.66639 10.8376 5.66669 10.72V10.5C5.66669 10.22 5.44669 10 5.16669 10Z" />
</svg>
