<svg width="24" height="24" viewBox="0 0 24 24" fill="currentColor" xmlns="http://www.w3.org/2000/svg">
<path d="M20.0369 16.9039C20.5107 16.9039 20.892 16.8866 21.1809 16.8519C21.4814 16.8173 21.7009 16.7479 21.8396 16.6439C21.9898 16.5399 22.0707 16.3897 22.0823 16.1933L22.2383 14.5986H23.3129V18.1519H15.4609V16.4879C16.1427 15.9679 16.7783 15.4884 17.3676 15.0493C17.9685 14.5986 18.5058 14.171 18.9796 13.7666C19.4649 13.3621 19.8809 12.9577 20.2276 12.5533C20.5743 12.1488 20.84 11.727 21.0249 11.2879C21.2098 10.8488 21.3023 10.3808 21.3023 9.88392C21.3023 9.34081 21.2214 8.91903 21.0596 8.61858C20.8978 8.31814 20.6609 8.11014 20.3489 7.99458C20.0369 7.86747 19.6556 7.80392 19.2049 7.80392C18.8005 7.80392 18.4249 7.8617 18.0783 7.97725C17.7316 8.08125 17.4254 8.22569 17.1596 8.41058C16.8938 8.59547 16.6685 8.80925 16.4836 9.05192C16.4952 8.91325 16.5298 8.78614 16.5876 8.67058C16.6569 8.54347 16.732 8.43369 16.8129 8.34125C16.8938 8.24881 16.9747 8.18525 17.0556 8.15058C17.1365 8.11592 17.2 8.12169 17.2463 8.16792V10.4039H15.6863V8.25458C15.8596 8.04658 16.1196 7.82703 16.4663 7.59592C16.8129 7.36481 17.2232 7.17414 17.6969 7.02392C18.1823 6.86214 18.708 6.78125 19.2743 6.78125C20.06 6.78125 20.7187 6.89681 21.2503 7.12792C21.7934 7.35903 22.2094 7.70569 22.4983 8.16792C22.7872 8.61858 22.9316 9.19636 22.9316 9.90125C22.9316 10.4559 22.7987 10.9933 22.5329 11.5133C22.2672 12.0217 21.9032 12.5244 21.4409 13.0213C20.9903 13.5181 20.4703 14.0035 19.8809 14.4773C19.2916 14.951 18.6676 15.419 18.0089 15.8813C17.3503 16.3435 16.6916 16.8057 16.0329 17.2679C15.9752 17.2795 15.9347 17.2621 15.9116 17.2159C15.8885 17.1581 15.8769 17.1004 15.8769 17.0426C15.8769 16.9848 15.9 16.9386 15.9463 16.9039H20.0369Z" />
<path d="M3.52821 11.2864H10.8255V12.3264H3.52821V11.2864ZM0.685547 18.1504V17.1798H0.876214C1.30377 17.1798 1.65621 17.1393 1.93355 17.0584C2.21088 16.9775 2.34955 16.81 2.34955 16.5558V7.43842C2.34955 7.18419 2.21088 7.01664 1.93355 6.93575C1.65621 6.85486 1.30377 6.81442 0.876214 6.81442H0.685547V5.84375H5.62555V6.81442H5.46955C5.30777 6.81442 5.13444 6.82019 4.94955 6.83175C4.77621 6.83175 4.61444 6.84331 4.46421 6.86642C4.31399 6.87797 4.19266 6.89531 4.10021 6.91842C4.00777 6.92997 3.96155 6.94731 3.96155 6.97042V17.0238C3.96155 17.0469 4.00777 17.07 4.10021 17.0931C4.19266 17.1046 4.31399 17.122 4.46421 17.1451C4.61444 17.1566 4.77621 17.1682 4.94955 17.1798C5.13444 17.1798 5.30777 17.1798 5.46955 17.1798H5.62555V18.1504H0.685547ZM8.72821 18.1504V17.1798H8.88421C9.04599 17.1798 9.21355 17.1798 9.38688 17.1798C9.57177 17.1682 9.73932 17.1566 9.88955 17.1451C10.0398 17.122 10.1611 17.1046 10.2535 17.0931C10.346 17.07 10.3922 17.0469 10.3922 17.0238V6.97042C10.3922 6.94731 10.346 6.92997 10.2535 6.91842C10.1611 6.89531 10.0398 6.87797 9.88955 6.86642C9.73932 6.84331 9.57177 6.83175 9.38688 6.83175C9.21355 6.82019 9.04599 6.81442 8.88421 6.81442H8.72821V5.84375H13.6682V6.81442H13.4775C13.05 6.81442 12.6975 6.85486 12.4202 6.93575C12.1429 7.01664 12.0042 7.18419 12.0042 7.43842V16.5558C12.0042 16.81 12.1429 16.9775 12.4202 17.0584C12.6975 17.1393 13.05 17.1798 13.4775 17.1798H13.6682V18.1504H8.72821Z" />
</svg>
