<svg width="24" height="24" viewBox="0 0 24 24" fill="currentColor" xmlns="http://www.w3.org/2000/svg">
<path d="M3.96045 11.38C4.24045 9.91 5.62045 8.9 7.12045 8.9H10.0504C10.5704 8.9 11.0004 8.47 11.0004 7.95C11.0004 7.43 10.5704 7 10.0504 7H7.22045C4.61045 7 2.28045 8.91 2.03045 11.51C1.96131 12.2042 2.03837 12.9052 2.25666 13.5679C2.47495 14.2305 2.82963 14.8401 3.29785 15.3573C3.76607 15.8745 4.33744 16.2879 4.97516 16.5708C5.61287 16.8537 6.30278 16.9999 7.00045 17H10.0504C10.5704 17 11.0004 16.57 11.0004 16.05C11.0004 15.53 10.5704 15.1 10.0504 15.1H7.00045C6.54112 15.0986 6.08781 14.9954 5.67309 14.798C5.25836 14.6005 4.89253 14.3136 4.60187 13.958C4.31122 13.6023 4.10295 13.1867 3.99205 12.7409C3.88114 12.2952 3.87035 11.8304 3.96045 11.38ZM9.00045 13H15.0004C15.5504 13 16.0004 12.55 16.0004 12C16.0004 11.45 15.5504 11 15.0004 11H9.00045C8.45045 11 8.00045 11.45 8.00045 12C8.00045 12.55 8.45045 13 9.00045 13ZM16.7804 7H13.9504C13.4304 7 13.0004 7.43 13.0004 7.95C13.0004 8.47 13.4304 8.9 13.9504 8.9H16.8804C18.3804 8.9 19.7604 9.91 20.0404 11.38C20.1305 11.8304 20.1198 12.2952 20.0088 12.7409C19.8979 13.1867 19.6897 13.6023 19.399 13.958C19.1084 14.3136 18.7425 14.6005 18.3278 14.798C17.9131 14.9954 17.4598 15.0986 17.0004 15.1H13.9504C13.4304 15.1 13.0004 15.53 13.0004 16.05C13.0004 16.57 13.4304 17 13.9504 17H17.0004C19.9204 17 22.2604 14.49 21.9804 11.51C21.7304 8.91 19.3904 7 16.7804 7Z" />
</svg>
