<svg width="24" height="24" viewBox="0 0 24 24" fill="currentColor" xmlns="http://www.w3.org/2000/svg">
<path d="M18.0008 19C18.2557 19.0003 18.5009 19.0979 18.6862 19.2728C18.8715 19.4478 18.9831 19.687 18.998 19.9414C19.013 20.1958 18.9302 20.4464 18.7666 20.6418C18.603 20.8373 18.3709 20.9629 18.1178 20.993L18.0008 21H6.00085C5.74597 20.9997 5.50081 20.9021 5.31548 20.7272C5.13014 20.5522 5.01861 20.313 5.00367 20.0586C4.98874 19.8042 5.07152 19.5536 5.23511 19.3582C5.3987 19.1627 5.63075 19.0371 5.88384 19.007L6.00085 19H18.0008ZM17.0008 3C17.2458 3.00003 17.4822 3.08996 17.6652 3.25272C17.8483 3.41547 17.9652 3.63975 17.9938 3.883L18.0008 4V12C18.0024 13.5729 17.3863 15.0834 16.2852 16.2065C15.1841 17.3297 13.6859 17.9755 12.1134 18.005C10.5408 18.0345 9.01951 17.4453 7.87703 16.3643C6.73455 15.2832 6.06225 13.7968 6.00485 12.225L6.00085 12V4C6.00113 3.74512 6.09872 3.49997 6.27369 3.31463C6.44866 3.1293 6.6878 3.01777 6.94224 3.00283C7.19668 2.98789 7.44722 3.07067 7.64268 3.23426C7.83813 3.39786 7.96374 3.6299 7.99384 3.883L8.00084 4V12C8.00083 13.0436 8.40863 14.0458 9.13725 14.7929C9.86586 15.54 10.8576 15.9727 11.9008 15.9988C12.944 16.0249 13.9562 15.6423 14.7212 14.9326C15.4863 14.2228 15.9437 13.2422 15.9958 12.2L16.0008 12V4C16.0008 3.73478 16.1062 3.48043 16.2937 3.29289C16.4813 3.10536 16.7356 3 17.0008 3Z" />
</svg>
