<svg width="24" height="24" viewBox="0 0 24 24" fill="currentColor" xmlns="http://www.w3.org/2000/svg">
<path fill-rule="evenodd" clip-rule="evenodd" d="M13.9759 4.0315H10.9984C10.46 4.0315 10.0234 4.46802 10.0234 5.0065C10.0234 5.54498 10.46 5.9815 10.9984 5.9815H12.7059L9.26299 18.0315H6.99844C6.45996 18.0315 6.02344 18.468 6.02344 19.0065C6.02344 19.545 6.45996 19.9815 6.99844 19.9815H9.97691C9.99162 19.9818 10.0063 19.9818 10.0209 19.9815H12.9984C13.5369 19.9815 13.9734 19.545 13.9734 19.0065C13.9734 18.468 13.5369 18.0315 12.9984 18.0315H11.291L14.7339 5.9815H16.9984C17.5369 5.9815 17.9734 5.54498 17.9734 5.0065C17.9734 4.46802 17.5369 4.0315 16.9984 4.0315H14.02C14.0053 4.03117 13.9906 4.03117 13.9759 4.0315Z" />
</svg>
