<svg width="24" height="24" viewBox="0 0 24 24" fill="currentColor" xmlns="http://www.w3.org/2000/svg">
<path d="M3.69355 4H18.079C18.3515 4 18.6128 4.10826 18.8055 4.30096C18.9982 4.49366 19.1065 4.75501 19.1065 5.02753C19.1065 5.30005 18.9982 5.5614 18.8055 5.7541C18.6128 5.9468 18.3515 6.05506 18.079 6.05506H3.69355C3.42103 6.05506 3.15967 5.9468 2.96697 5.7541C2.77427 5.5614 2.66602 5.30005 2.66602 5.02753C2.66602 4.75501 2.77427 4.49366 2.96697 4.30096C3.15967 4.10826 3.42103 4 3.69355 4ZM9.1737 10.8502H20.819C21.0916 10.8502 21.3529 10.9585 21.5456 11.1512C21.7383 11.3439 21.8466 11.6052 21.8466 11.8777C21.8466 12.1502 21.7383 12.4116 21.5456 12.6043C21.3529 12.797 21.0916 12.9053 20.819 12.9053H9.1737C8.90119 12.9053 8.63983 12.797 8.44713 12.6043C8.25443 12.4116 8.14617 12.1502 8.14617 11.8777C8.14617 11.6052 8.25443 11.3439 8.44713 11.1512C8.63983 10.9585 8.90119 10.8502 9.1737 10.8502ZM9.1737 17.7004H20.819C21.0916 17.7004 21.3529 17.8087 21.5456 18.0014C21.7383 18.1941 21.8466 18.4554 21.8466 18.7279C21.8466 19.0004 21.7383 19.2618 21.5456 19.4545C21.3529 19.6472 21.0916 19.7555 20.819 19.7555H9.1737C8.90119 19.7555 8.63983 19.6472 8.44713 19.4545C8.25443 19.2618 8.14617 19.0004 8.14617 18.7279C8.14617 18.4554 8.25443 18.1941 8.44713 18.0014C8.63983 17.8087 8.90119 17.7004 9.1737 17.7004ZM4.72108 11.1927V19.4129C4.72108 19.6855 4.61282 19.9468 4.42012 20.1395C4.22742 20.3322 3.96606 20.4405 3.69355 20.4405C3.42103 20.4405 3.15967 20.3322 2.96697 20.1395C2.77427 19.9468 2.66602 19.6855 2.66602 19.4129V11.1927C2.66602 10.9202 2.77427 10.6588 2.96697 10.4661C3.15967 10.2734 3.42103 10.1652 3.69355 10.1652C3.96606 10.1652 4.22742 10.2734 4.42012 10.4661C4.61282 10.6588 4.72108 10.9202 4.72108 11.1927Z"/>
</svg>
