<svg width="24" height="24" viewBox="0 0 24 24" fill="currentColor" xmlns="http://www.w3.org/2000/svg">
<path d="M8.325 7.94531C8.325 7.32731 8.652 6.69581 9.3375 6.18281C10.0245 5.66681 11.0205 5.32031 12.15 5.32031C13.824 5.32031 15.204 6.10481 15.696 6.89081C15.8541 7.14383 16.1063 7.32366 16.397 7.39076C16.6878 7.45785 16.9932 7.4067 17.2463 7.24856C17.4993 7.09043 17.6791 6.83826 17.7462 6.54753C17.8133 6.2568 17.7621 5.95133 17.604 5.69831C16.5945 4.08581 14.376 3.07031 12.15 3.07031C10.5795 3.07031 9.099 3.54881 7.9875 4.38281C6.873 5.21831 6.075 6.46331 6.075 7.94531C6.075 8.74331 6.3075 9.47831 6.7095 10.1203H10.035C8.874 9.57431 8.325 8.69381 8.325 7.94531ZM3 13.1203C3 12.8219 3.11853 12.5358 3.3295 12.3248C3.54048 12.1138 3.82663 11.9953 4.125 11.9953H19.875C20.1734 11.9953 20.4595 12.1138 20.6705 12.3248C20.8815 12.5358 21 12.8219 21 13.1203C21 13.4187 20.8815 13.7048 20.6705 13.9158C20.4595 14.1268 20.1734 14.2453 19.875 14.2453H17.4225C17.742 14.8318 17.925 15.4873 17.925 16.1953C17.925 17.6773 17.127 18.9208 16.0125 19.7578C14.8995 20.5918 13.4205 21.0703 11.85 21.0703C9.6165 21.0703 7.3695 20.0458 6.366 18.2413C6.29005 18.112 6.24074 17.9687 6.22096 17.82C6.20119 17.6713 6.21136 17.5202 6.25086 17.3754C6.29037 17.2307 6.35841 17.0954 6.451 16.9774C6.54359 16.8593 6.65884 16.761 6.78999 16.6882C6.92114 16.6154 7.06552 16.5695 7.21465 16.5533C7.36378 16.5371 7.51465 16.5509 7.65837 16.5939C7.8021 16.6368 7.93578 16.7081 8.05155 16.8035C8.16732 16.8989 8.26284 17.0165 8.3325 17.1493C8.8305 18.0433 10.1835 18.8203 11.85 18.8203C12.9795 18.8203 13.974 18.4738 14.6625 17.9578C15.348 17.4433 15.675 16.8133 15.675 16.1953C15.675 15.5428 15.2565 14.7898 14.3805 14.2453H4.125C3.97726 14.2453 3.83097 14.2162 3.69448 14.1597C3.55799 14.1031 3.43397 14.0203 3.3295 13.9158C3.22504 13.8113 3.14217 13.6873 3.08564 13.5508C3.0291 13.4143 3 13.268 3 13.1203Z" />
</svg>
