<svg width="24" height="24" viewBox="0 0 24 24" fill="currentColor" xmlns="http://www.w3.org/2000/svg">
<path d="M6 4.75C6 4.06 6.56 3.5 7.25 3.5H12.25C13.1192 3.50067 13.9715 3.7397 14.7143 4.1911C15.457 4.64249 16.0617 5.28895 16.4627 6.06013C16.8636 6.83131 17.0453 7.69768 16.988 8.56495C16.9308 9.43223 16.6368 10.2672 16.138 10.979C17.1653 11.4643 17.9967 12.2849 18.4953 13.3058C18.9939 14.3267 19.1299 15.487 18.881 16.5955C18.632 17.704 18.013 18.6947 17.1258 19.4045C16.2386 20.1142 15.1361 20.5006 14 20.5H7.25C6.56 20.5 6 19.94 6 19.25V4.75ZM8.5 13V18H14C14.663 18 15.2989 17.7366 15.7678 17.2678C16.2366 16.7989 16.5 16.163 16.5 15.5C16.5 14.837 16.2366 14.2011 15.7678 13.7322C15.2989 13.2634 14.663 13 14 13H8.5ZM8.5 10.5H12.251C12.8477 10.4999 13.42 10.2627 13.8418 9.84064C14.2637 9.41859 14.5006 8.84624 14.5005 8.2495C14.5004 7.65276 14.2632 7.08052 13.8411 6.65866C13.4191 6.23679 12.8467 5.99987 12.25 6H8.5V10.5Z" />
</svg>
