<svg xmlns="http://www.w3.org/2000/svg" width="24" height="24" viewBox="0 0 24 24" fill="none">
  <path d="M4 21V16C4 15.45 4.196 14.9793 4.588 14.588C4.98 14.1967 5.45067 14.0007 6 14H18C18.55 14 19.021 14.196 19.413 14.588C19.805 14.98 20.0007 15.4507 20 16V21H4ZM9 13C7.61667 13 6.43767 12.5123 5.463 11.537C4.48833 10.5617 4.00067 9.38267 4 8C3.99933 6.61733 4.487 5.43833 5.463 4.463C6.439 3.48767 7.618 3 9 3H15C16.3833 3 17.5627 3.48767 18.538 4.463C19.5133 5.43833 20.0007 6.61733 20 8C19.9993 9.38267 19.5117 10.562 18.537 11.538C17.5623 12.514 16.3833 13.0013 15 13H9ZM6 19H18V16H6V19ZM9 11H15C15.8333 11 16.5417 10.7083 17.125 10.125C17.7083 9.54167 18 8.83333 18 8C18 7.16667 17.7083 6.45833 17.125 5.875C16.5417 5.29167 15.8333 5 15 5H9C8.16667 5 7.45833 5.29167 6.875 5.875C6.29167 6.45833 6 7.16667 6 8C6 8.83333 6.29167 9.54167 6.875 10.125C7.45833 10.7083 8.16667 11 9 11ZM9 9C9.28333 9 9.521 8.904 9.713 8.712C9.905 8.52 10.0007 8.28267 10 8C9.99933 7.71733 9.90333 7.48 9.712 7.288C9.52067 7.096 9.28333 7 9 7C8.71667 7 8.47933 7.096 8.288 7.288C8.09667 7.48 8.00067 7.71733 8 8C7.99933 8.28267 8.09533 8.52033 8.288 8.713C8.48067 8.90567 8.718 9.00133 9 9ZM15 9C15.2833 9 15.521 8.904 15.713 8.712C15.905 8.52 16.0007 8.28267 16 8C15.9993 7.71733 15.9033 7.48 15.712 7.288C15.5207 7.096 15.2833 7 15 7C14.7167 7 14.4793 7.096 14.288 7.288C14.0967 7.48 14.0007 7.71733 14 8C13.9993 8.28267 14.0953 8.52033 14.288 8.713C14.4807 8.90567 14.718 9.00133 15 9Z" fill="currentColor"/>
</svg>
