<svg xmlns="http://www.w3.org/2000/svg" width="24" height="24" viewBox="0 0 24 24" fill="none">
<path d="M5.65 10.025L7.6 10.85C7.83334 10.3833 8.075 9.93333 8.325 9.5C8.575 9.06667 8.85 8.63333 9.15 8.2L7.75 7.925L5.65 10.025ZM9.2 12.1L12.05 14.925C12.75 14.6583 13.5 14.25 14.3 13.7C15.1 13.15 15.85 12.525 16.55 11.825C17.7167 10.6583 18.6293 9.36267 19.288 7.938C19.9467 6.51333 20.234 5.20067 20.15 4C18.95 3.91667 17.6333 4.20433 16.2 4.863C14.7667 5.52167 13.4667 6.434 12.3 7.6C11.6 8.3 10.975 9.05 10.425 9.85C9.875 10.65 9.46667 11.4 9.2 12.1ZM13.65 10.475C13.2667 10.0917 13.075 9.621 13.075 9.063C13.075 8.505 13.2667 8.034 13.65 7.65C14.0333 7.266 14.5083 7.07433 15.075 7.075C15.6417 7.07566 16.1167 7.26733 16.5 7.65C16.8833 8.03267 17.075 8.50366 17.075 9.063C17.075 9.62233 16.8833 10.093 16.5 10.475C16.1167 10.857 15.6417 11.0487 15.075 11.05C14.5083 11.0513 14.0333 10.8597 13.65 10.475ZM14.125 18.5L16.225 16.4L15.95 15C15.5167 15.3 15.0833 15.5707 14.65 15.812C14.2167 16.0533 13.7667 16.291 13.3 16.525L14.125 18.5ZM21.95 2.175C22.2667 4.19167 22.071 6.15433 21.363 8.063C20.655 9.97166 19.434 11.7923 17.7 13.525L18.2 16C18.2667 16.3333 18.25 16.6583 18.15 16.975C18.05 17.2917 17.8833 17.5667 17.65 17.8L13.45 22L11.35 17.075L7.075 12.8L2.15 10.7L6.325 6.5C6.55834 6.26667 6.83767 6.1 7.163 6C7.48834 5.9 7.81734 5.88333 8.15 5.95L10.625 6.45C12.3583 4.71667 14.175 3.49167 16.075 2.775C17.975 2.05833 19.9333 1.85833 21.95 2.175ZM3.925 15.975C4.50834 15.3917 5.221 15.096 6.063 15.088C6.905 15.08 7.61734 15.3673 8.2 15.95C8.78267 16.5327 9.07034 17.2453 9.063 18.088C9.05567 18.9307 8.75967 19.643 8.175 20.225C7.75834 20.6417 7.06267 21 6.088 21.3C5.11334 21.6 3.76734 21.8667 2.05 22.1C2.28334 20.3833 2.55 19.0373 2.85 18.062C3.15 17.0867 3.50834 16.391 3.925 15.975ZM5.35 17.375C5.18334 17.5417 5.01667 17.846 4.85 18.288C4.68334 18.73 4.56667 19.1757 4.5 19.625C4.95 19.5583 5.396 19.446 5.838 19.288C6.28 19.13 6.584 18.9673 6.75 18.8C6.95 18.6 7.05834 18.3583 7.075 18.075C7.09167 17.7917 7 17.55 6.8 17.35C6.6 17.15 6.35834 17.054 6.075 17.062C5.79167 17.07 5.55 17.1743 5.35 17.375Z" fill="currentColor"/>
</svg>
