<svg width="24" height="24" viewBox="0 0 24 24" fill="currentColor" xmlns="http://www.w3.org/2000/svg">
<path d="M21 9.59766V16.6973L16.6953 21.0029H4.69727L9.67773 16.0225H13.8555C14.452 16.0223 15.0244 15.7851 15.4463 15.3633C15.8681 14.9413 16.1055 14.3691 16.1055 13.7725V9.59766H21Z" />
<path d="M19.3027 3L14.4902 7.8125H10.1445C9.54796 7.81262 8.97556 8.04983 8.55371 8.47168C8.132 8.89351 7.89464 9.4631 7.89453 10.0596V14.3877H3V7.30469L7.30469 3H19.3027Z" />
<path d="M12 9.90723C12.555 9.90723 13.09 10.1281 13.4824 10.5205C13.8747 10.9129 14.0947 11.4451 14.0947 12C14.0947 12.555 13.8748 13.09 13.4824 13.4824C13.09 13.8748 12.5549 14.0947 12 14.0947C11.4451 14.0947 10.9129 13.8747 10.5205 13.4824C10.1281 13.09 9.90723 12.555 9.90723 12C9.90723 11.4451 10.1281 10.9129 10.5205 10.5205C10.9129 10.1281 11.4451 9.90725 12 9.90723Z" />
</svg>
