<svg xmlns="http://www.w3.org/2000/svg" width="24" height="24" viewBox="0 0 24 24" fill="none">
<path d="M6 19.75C4.26667 19.3 2.83333 18.3667 1.7 16.95C0.566667 15.5333 0 13.8833 0 12C0 10.1167 0.566667 8.46667 1.7 7.05C2.83333 5.63333 4.26667 4.7 6 4.25V6.35C4.81667 6.75 3.85433 7.46667 3.113 8.5C2.37167 9.53333 2.00067 10.7 2 12C1.99933 13.3 2.37033 14.4667 3.113 15.5C3.85567 16.5333 4.818 17.25 6 17.65V19.75ZM14 20C11.7833 20 9.89567 19.221 8.337 17.663C6.77833 16.105 5.99933 14.2173 6 12C6.00067 9.78267 6.78 7.895 8.338 6.337C9.896 4.779 11.7833 4 14 4C15.1 4 16.1333 4.20833 17.1 4.625C18.0667 5.04167 18.9167 5.61667 19.65 6.35L18.25 7.75C17.7 7.2 17.0627 6.771 16.338 6.463C15.6133 6.155 14.834 6.00067 14 6C12.3333 6 10.9167 6.58333 9.75 7.75C8.58333 8.91667 8 10.3333 8 12C8 13.6667 8.58333 15.0833 9.75 16.25C10.9167 17.4167 12.3333 18 14 18C14.8333 18 15.6127 17.846 16.338 17.538C17.0633 17.23 17.7007 16.8007 18.25 16.25L19.65 17.65C18.9167 18.3833 18.0667 18.9583 17.1 19.375C16.1333 19.7917 15.1 20 14 20ZM20 16L18.6 14.6L20.2 13H13V11H20.2L18.6 9.4L20 8L24 12L20 16Z" fill="currentColor"/>
</svg>
