<svg xmlns="http://www.w3.org/2000/svg" width="24" height="24" viewBox="0 0 24 24" fill="none">
  <path d="M20.9963 10.05V16H22V22H2V16H2.99633V10.05C2.613 9.7 2.31733 9.25 2.10933 8.7C1.90133 8.15 1.897 7.55 2.09633 6.9L3.62133 2H20.3713L21.8963 6.9C22.0963 7.55 22.092 8.14167 21.8833 8.675C21.6747 9.20833 21.379 9.66667 20.9963 10.05ZM14.1963 9C14.6463 9 14.988 8.846 15.2213 8.538C15.4547 8.23 15.5463 7.884 15.4963 7.5L14.9463 4H12.9963V7.7C12.9963 8.05 13.113 8.35433 13.3463 8.613C13.5797 8.87167 13.863 9.00067 14.1963 9ZM9.69633 9C10.0797 9 10.3923 8.87067 10.6343 8.612C10.8763 8.35333 10.997 8.04933 10.9963 7.7V4H9.04633L8.49633 7.5C8.42966 7.9 8.517 8.25 8.75833 8.55C8.99966 8.85 9.31233 9 9.69633 9ZM5.24633 9C5.54633 9 5.80866 8.89167 6.03333 8.675C6.258 8.45833 6.39566 8.18333 6.44633 7.85L6.99633 4H5.04633L4.04633 7.35C3.94633 7.68333 4.00033 8.04167 4.20833 8.425C4.41633 8.80833 4.76233 9 5.24633 9ZM18.7463 9C19.2297 9 19.5797 8.80833 19.7963 8.425C20.013 8.04167 20.063 7.68333 19.9463 7.35L18.8963 4H16.9963L17.5463 7.85C17.5963 8.18333 17.734 8.45833 17.9593 8.675C18.1847 8.89167 18.447 9 18.7463 9ZM4.99633 16H18.9963V10.95C18.913 10.9833 18.859 11 18.8343 11H18.7463C18.2963 11 17.9007 10.925 17.5593 10.775C17.218 10.625 16.8803 10.3833 16.5463 10.05C16.2463 10.35 15.9047 10.5833 15.5213 10.75C15.138 10.9167 14.7297 11 14.2963 11C13.8463 11 13.4253 10.9167 13.0333 10.75C12.6413 10.5833 12.2957 10.35 11.9963 10.05C11.713 10.35 11.384 10.5833 11.0093 10.75C10.6347 10.9167 10.2303 11 9.79633 11C9.313 11 8.87566 10.9167 8.48433 10.75C8.093 10.5833 7.747 10.35 7.44633 10.05C7.09633 10.4 6.75066 10.646 6.40933 10.788C6.068 10.93 5.68033 11.0007 5.24633 11H5.13433C5.09233 11 5.04633 10.9833 4.99633 10.95V16Z" fill="currentColor"/>
</svg>
