<svg xmlns="http://www.w3.org/2000/svg" width="24" height="24" viewBox="0 0 24 24" fill="none">
<g clip-path="url(#clip0_1629_104118)">
<path d="M12 24C18.6274 24 24 18.6274 24 12C24 5.37258 18.6274 0 12 0C5.37258 0 0 5.37258 0 12C0 18.6274 5.37258 24 12 24Z" fill="#635BFF"/>
<path d="M12.3499 8.0769C11.4455 8.0769 10.8996 8.32423 10.8996 8.96701C10.8996 10.8132 17.3996 9.93965 17.4167 14.8517C17.4167 17.8023 14.977 19.5 11.4285 19.5C9.9613 19.5 8.35761 19.2199 6.77095 18.5605V14.6374C8.20407 15.3956 10.0125 15.9561 11.4285 15.9561C12.3839 15.9561 13.0662 15.7088 13.0662 14.9507C13.0662 12.9891 6.58334 13.7143 6.58334 9.16497C6.58334 6.24731 8.8865 4.5 12.3499 4.5C13.7658 4.5 15.1647 4.7143 16.5807 5.25822V9.13194C15.2841 8.45613 13.6463 8.0769 12.3499 8.0769Z" fill="white"/>
</g>
<defs>
<clipPath id="clip0_1629_104118">
<rect width="24" height="24" fill="white"/>
</clipPath>
</defs>
</svg>
