<svg xmlns="http://www.w3.org/2000/svg" width="24" height="24" viewBox="0 0 24 24" fill="none">
  <path d="M12.4198 7.29228C11.3346 7.29228 10.6795 7.58908 10.6795 8.36042C10.6795 10.5758 18.4796 9.52758 18.5 15.4221C18.5 18.9628 15.5724 21 11.3142 21C9.55355 21 7.62912 20.6638 5.72513 19.8726V15.1649C7.44487 16.0748 9.61501 16.7474 11.3142 16.7474C12.4607 16.7474 13.2795 16.4506 13.2795 15.5408C13.2795 13.1869 5.5 14.0571 5.5 8.59797C5.5 5.09677 8.26378 3 12.4198 3C14.119 3 15.7977 3.25716 17.4968 3.90986V8.55833C15.9409 7.74735 13.9756 7.29228 12.4198 7.29228Z" fill="currentColor"/>
</svg>
