<svg xmlns="http://www.w3.org/2000/svg" width="32" height="32" viewBox="0 0 32 32" fill="none">
<path fill-rule="evenodd" clip-rule="evenodd" d="M9.33333 4C6.38781 4 4 6.38781 4 9.33333C4 12.2789 6.38781 14.6667 9.33333 14.6667C12.2789 14.6667 14.6667 12.2789 14.6667 9.33333C14.6667 6.38781 12.2789 4 9.33333 4ZM6.66667 9.33333C6.66667 7.86057 7.86057 6.66667 9.33333 6.66667C10.8061 6.66667 12 7.86057 12 9.33333C12 10.8061 10.8061 12 9.33333 12C7.86057 12 6.66667 10.8061 6.66667 9.33333Z" fill="currentColor"/>
<path fill-rule="evenodd" clip-rule="evenodd" d="M17.3333 22.6667C17.3333 19.7211 19.7211 17.3333 22.6667 17.3333C25.6122 17.3333 28 19.7211 28 22.6667C28 25.6122 25.6122 28 22.6667 28C19.7211 28 17.3333 25.6122 17.3333 22.6667ZM22.6667 20C21.1939 20 20 21.1939 20 22.6667C20 24.1394 21.1939 25.3333 22.6667 25.3333C24.1394 25.3333 25.3333 24.1394 25.3333 22.6667C25.3333 21.1939 24.1394 20 22.6667 20Z" fill="currentColor"/>
<path fill-rule="evenodd" clip-rule="evenodd" d="M9.33333 17.3333C6.38781 17.3333 4 19.7211 4 22.6667C4 25.6122 6.38781 28 9.33333 28C12.2789 28 14.6667 25.6122 14.6667 22.6667C14.6667 19.7211 12.2789 17.3333 9.33333 17.3333ZM6.66667 22.6667C6.66667 21.1939 7.86057 20 9.33333 20C10.8061 20 12 21.1939 12 22.6667C12 24.1394 10.8061 25.3333 9.33333 25.3333C7.86057 25.3333 6.66667 24.1394 6.66667 22.6667Z" fill="currentColor"/>
<path d="M20.9867 7.65333L22.6667 4L24.3333 7.65333L28 9.33333L24.3333 11L22.6667 14.6667L20.9867 11L17.3333 9.33333L20.9867 7.65333Z" fill="currentColor"/>
</svg>
