<svg width="24" height="24" viewBox="0 0 24 24" fill="currentColor" xmlns="http://www.w3.org/2000/svg">
<path d="M11 4V1H13V4H11ZM11 23V20H13V23H11ZM20 13V11H23V13H20ZM1 13V11H4V13H1ZM18.7 6.7L17.3 5.3L19.05 3.5L20.5 4.95L18.7 6.7ZM4.95 20.5L3.5 19.05L5.3 17.3L6.7 18.7L4.95 20.5ZM19.05 20.5L17.3 18.7L18.7 17.3L20.5 19.05L19.05 20.5ZM5.3 6.7L3.5 4.95L4.95 3.5L6.7 5.3L5.3 6.7ZM12 18C10.3333 18 8.91667 17.4167 7.75 16.25C6.58333 15.0833 6 13.6667 6 12C6 10.3333 6.58333 8.91667 7.75 7.75C8.91667 6.58333 10.3333 6 12 6C13.6667 6 15.0833 6.58333 16.25 7.75C17.4167 8.91667 18 10.3333 18 12C18 13.6667 17.4167 15.0833 16.25 16.25C15.0833 17.4167 13.6667 18 12 18Z" />
</svg>
