<svg xmlns="http://www.w3.org/2000/svg" width="24" height="24" viewBox="0 0 24 24" fill="none">
  <path d="M22 7H17V5.5H19.9C18.8 4.53333 17.575 3.79167 16.225 3.275C14.875 2.75833 13.4667 2.5 12 2.5C10.5333 2.5 9.125 2.75833 7.775 3.275C6.425 3.79167 5.2 4.53333 4.1 5.5H7V7H2V2H3.5V4.025C4.7 3.04167 6.025 2.29167 7.475 1.775C8.925 1.25833 10.4333 1 12 1C13.5667 1 15.075 1.25833 16.525 1.775C17.975 2.29167 19.3 3.04167 20.5 4.025V2H22V7Z" fill="currentColor"/>
  <path d="M4.59998 16L10.575 22H20V13H18V20H11.425L8.57498 17.15L11 17.825V6H8.99998V15.175L6.17498 14.375L4.59998 16Z" fill="currentColor"/>
  <path d="M12 10V15H14V10H12Z" fill="currentColor"/>
  <path d="M15 11V15H17V11H15Z" fill="currentColor"/>
</svg>
