<svg width="24" height="24" viewBox="0 0 24 24" fill="currentColor" xmlns="http://www.w3.org/2000/svg">
<path d="M22 7H17V5.5H19.9C18.8 4.53333 17.575 3.79167 16.225 3.275C14.875 2.75833 13.4667 2.5 12 2.5C10.5333 2.5 9.125 2.75833 7.775 3.275C6.425 3.79167 5.2 4.53333 4.1 5.5H7V7H2V2H3.5V4.025C4.7 3.04167 6.025 2.29167 7.475 1.775C8.925 1.25833 10.4333 1 12 1C13.5667 1 15.075 1.25833 16.525 1.775C17.975 2.29167 19.3 3.04167 20.5 4.025V2H22V7ZM11.825 22C11.425 22 11.0417 21.925 10.675 21.775C10.3083 21.625 9.98333 21.4083 9.7 21.125L4.6 16L5.35 15.225C5.61667 14.9583 5.92933 14.7793 6.288 14.688C6.64667 14.5967 7.00067 14.6007 7.35 14.7L9 15.175V7C9 6.71667 9.096 6.47933 9.288 6.288C9.48 6.09667 9.71733 6.00067 10 6C10.2827 5.99933 10.5203 6.09533 10.713 6.288C10.9057 6.48067 11.0013 6.718 11 7V14H12V11C12 10.7167 12.096 10.4793 12.288 10.288C12.48 10.0967 12.7173 10.0007 13 10C13.2827 9.99933 13.5203 10.0953 13.713 10.288C13.9057 10.4807 14.0013 10.718 14 11V14H15V12C15 11.7167 15.096 11.4793 15.288 11.288C15.48 11.0967 15.7173 11.0007 16 11C16.2827 10.9993 16.5203 11.0953 16.713 11.288C16.9057 11.4807 17.0013 11.718 17 12V14H18C18 13.7167 18.096 13.4793 18.288 13.288C18.48 13.0967 18.7173 13.0007 19 13C19.2827 12.9993 19.5203 13.0953 19.713 13.288C19.9057 13.4807 20.0013 13.718 20 14V18C20 19.1 19.6083 20.0417 18.825 20.825C18.0417 21.6083 17.1 22 16 22H11.825Z" />
</svg>
