<svg width="24" height="24" viewBox="0 0 24 24" fill="currentColor" xmlns="http://www.w3.org/2000/svg">
<path d="M17.0829 7.33437C17.6759 7.11937 17.9709 7.04237 18.1329 7.01437C18.1342 7.0677 18.1336 7.10837 18.1309 7.13637C17.8989 9.58037 16.8799 15.5934 16.3559 18.3914C16.2339 19.0464 16.1399 19.3584 15.5059 18.9864C15.0899 18.7414 14.7139 18.4334 14.3099 18.1694C12.9849 17.3004 11.0889 16.0074 11.2449 16.0854C9.94089 15.2254 10.4869 14.6994 11.2149 13.9974C11.3319 13.8844 11.4549 13.7664 11.5749 13.6414C11.6289 13.5854 11.8919 13.3414 12.2619 12.9964C13.4499 11.8924 15.7459 9.75737 15.8039 9.51037C15.8139 9.47037 15.8219 9.31837 15.7329 9.23937C15.6429 9.15937 15.5099 9.18637 15.4149 9.20837C15.2796 9.23903 13.1216 10.6654 8.94089 13.4874C8.32889 13.9074 7.77422 14.112 7.27689 14.1014L7.28189 14.1044C6.62689 13.8734 5.97389 13.6744 5.31789 13.4744C4.88318 13.3438 4.44982 13.2088 4.01789 13.0694L3.70989 12.9714C8.23689 10.9994 11.2519 9.70137 12.7629 9.07237C14.9569 8.15937 16.2589 7.63437 17.0829 7.33437ZM19.5059 5.40637C19.2931 5.23776 19.0449 5.11947 18.7799 5.06037C18.5799 5.01237 18.3899 4.99737 18.2469 5.00037C17.7699 5.00837 17.2589 5.14337 16.4009 5.45437C15.5259 5.77237 14.1819 6.31637 11.9949 7.22537C10.4516 7.86737 7.38422 9.1887 2.79289 11.1894C2.38889 11.3504 2.01989 11.5334 1.72789 11.7494C1.45789 11.9504 1.08089 12.3094 1.01189 12.8594C0.959891 13.2754 1.08089 13.6594 1.32689 13.9624C1.54089 14.2254 1.81489 14.3854 2.02389 14.4864C2.33389 14.6364 2.75189 14.7674 3.11889 14.8824C3.69189 15.0624 4.26289 15.2454 4.83789 15.4214C6.61589 15.9654 8.07989 16.4134 9.68989 17.4754C10.8709 18.2534 12.0299 19.0654 13.2129 19.8414C13.6449 20.1244 14.0479 20.4494 14.4929 20.7114C14.9809 20.9964 15.5989 21.2574 16.3529 21.1884C17.4909 21.0834 18.0829 20.0364 18.3229 18.7584C18.8439 15.9684 19.8799 9.87237 20.1229 7.32637C20.1451 7.03093 20.1327 6.73392 20.0859 6.44137C20.0267 6.0367 19.8201 5.66814 19.5059 5.40637Z" />
</svg>
