<svg xmlns="http://www.w3.org/2000/svg" width="24" height="24" viewBox="0 0 24 24" fill="none">
<path d="M16.875 8.125C17.4583 8.70833 18.1667 9 19 9C19.8333 9 20.5417 8.70833 21.125 8.125C21.7083 7.54167 22 6.83333 22 6C22 5.16667 21.7083 4.45833 21.125 3.875C20.5417 3.29167 19.8333 3 19 3C18.1667 3 17.4583 3.29167 16.875 3.875C16.2917 4.45833 16 5.16667 16 6C16 6.83333 16.2917 7.54167 16.875 8.125Z" fill="white"/>
<path d="M19 11C18.7051 11 18.4196 10.9781 18.1435 10.9343C18.0482 11.2749 18.0003 11.6301 18 12C17.9993 12.7173 18.1783 13.38 18.537 13.988C18.8957 14.596 19.3833 15.0833 20 15.45V18H4V15.45C4.618 15.0847 5.10567 14.5973 5.463 13.988C5.82033 13.3787 5.99933 12.716 6 12C6.00067 11.284 5.82167 10.6217 5.463 10.013C5.10433 9.40433 4.61667 8.91667 4 8.55V6H14C14 5.27686 14.1318 4.61019 14.3953 4H2V10C2.55133 10.0013 3.02233 10.1973 3.413 10.588C3.80367 10.9787 3.99933 11.4493 4 12C4.00067 12.5507 3.805 13.0217 3.413 13.413C3.021 13.8043 2.55 14 2 14V20H22V14C21.4513 14.0013 20.9807 13.8057 20.588 13.413C20.1953 13.0203 19.9993 12.5493 20 12C20.0005 11.5552 20.1292 11.1619 20.3859 10.8202C19.9496 10.9401 19.4876 11 19 11Z" fill="currentColor"/>
<path d="M12 17C12.2833 17 12.521 16.904 12.713 16.712C12.905 16.52 13.0007 16.2827 13 16C12.9993 15.7173 12.9033 15.48 12.712 15.288C12.5207 15.096 12.2833 15 12 15C11.7167 15 11.4793 15.096 11.288 15.288C11.0967 15.48 11.0007 15.7173 11 16C10.9993 16.2827 11.0953 16.5203 11.288 16.713C11.4807 16.9057 11.718 17.0013 12 17Z" fill="white"/>
<path d="M12.713 12.712C12.521 12.904 12.2833 13 12 13C11.718 13.0013 11.4807 12.9057 11.288 12.713C11.0953 12.5203 10.9993 12.2827 11 12C11.0007 11.7173 11.0967 11.48 11.288 11.288C11.4793 11.096 11.7167 11 12 11C12.2833 11 12.5207 11.096 12.712 11.288C12.9033 11.48 12.9993 11.7173 13 12C13.0007 12.2827 12.905 12.52 12.713 12.712Z" fill="white"/>
<path d="M12 9C12.2833 9 12.521 8.904 12.713 8.712C12.905 8.52 13.0007 8.28267 13 8C12.9993 7.71733 12.9033 7.48 12.712 7.288C12.5207 7.096 12.2833 7 12 7C11.7167 7 11.4793 7.096 11.288 7.288C11.0967 7.48 11.0007 7.71733 11 8C10.9993 8.28267 11.0953 8.52033 11.288 8.713C11.4807 8.90567 11.718 9.00133 12 9Z" fill="white"/>
</svg>