<svg xmlns="http://www.w3.org/2000/svg" width="24" height="24" viewBox="0 0 24 24" fill="none">
<path d="M6.382 5.968C7.97566 4.69092 9.95778 3.99658 12 4C14.125 4 16.078 4.736 17.618 5.968L19.071 4.515L20.485 5.929L19.032 7.382C19.9292 8.50526 20.5443 9.82713 20.8258 11.2369C21.1073 12.6467 21.0469 14.1034 20.6498 15.4851C20.2527 16.8668 19.5304 18.1333 18.5433 19.1785C17.5562 20.2237 16.3331 21.0172 14.9764 21.4926C13.6196 21.9681 12.1687 22.1116 10.7452 21.9111C9.32158 21.7107 7.96672 21.1721 6.79402 20.3405C5.62132 19.509 4.66489 18.4085 4.00479 17.1314C3.3447 15.8543 3.00016 14.4376 3 13C3 10.875 3.736 8.922 4.968 7.382L3.515 5.93L4.929 4.516L6.382 5.968ZM12 20C12.9193 20 13.8295 19.8189 14.6788 19.4672C15.5281 19.1154 16.2997 18.5998 16.9497 17.9497C17.5998 17.2997 18.1154 16.5281 18.4672 15.6788C18.8189 14.8295 19 13.9193 19 13C19 12.0807 18.8189 11.1705 18.4672 10.3212C18.1154 9.47194 17.5998 8.70026 16.9497 8.05025C16.2997 7.40024 15.5281 6.88463 14.6788 6.53284C13.8295 6.18106 12.9193 6 12 6C10.1435 6 8.36301 6.7375 7.05025 8.05025C5.7375 9.36301 5 11.1435 5 13C5 14.8565 5.7375 16.637 7.05025 17.9497C8.36301 19.2625 10.1435 20 12 20ZM13 12H16L11 18.5V14H8L13 7.495V12ZM8 1H16V3H8V1Z" fill="currentColor"/>
</svg>
