<svg width="32" height="32" viewBox="0 0 32 32" fill="none" xmlns="http://www.w3.org/2000/svg">
<path d="M24.0026 18.6673V14.6673H20.0026V12.0007H24.0026V8.00065H26.6693V12.0007H30.6693V14.6673H26.6693V18.6673H24.0026ZM12.0026 16.0007C10.5359 16.0007 9.28038 15.4784 8.23594 14.434C7.19149 13.3895 6.66927 12.134 6.66927 10.6673C6.66927 9.20065 7.19149 7.9451 8.23594 6.90065C9.28038 5.85621 10.5359 5.33398 12.0026 5.33398C13.4693 5.33398 14.7248 5.85621 15.7693 6.90065C16.8137 7.9451 17.3359 9.20065 17.3359 10.6673C17.3359 12.134 16.8137 13.3895 15.7693 14.434C14.7248 15.4784 13.4693 16.0007 12.0026 16.0007ZM1.33594 26.6673V22.934C1.33594 22.1784 1.5306 21.4842 1.91994 20.8513C2.30927 20.2184 2.82572 19.7349 3.46927 19.4007C4.84705 18.7118 6.24705 18.1953 7.66927 17.8513C9.09149 17.5073 10.5359 17.3349 12.0026 17.334C13.4693 17.3331 14.9137 17.5055 16.3359 17.8513C17.7582 18.1971 19.1582 18.7135 20.5359 19.4007C21.1804 19.734 21.6973 20.2175 22.0866 20.8513C22.4759 21.4851 22.6702 22.1793 22.6693 22.934V26.6673H1.33594ZM4.0026 24.0007H20.0026V22.934C20.0026 22.6895 19.9417 22.4673 19.8199 22.2673C19.6982 22.0673 19.5368 21.9118 19.3359 21.8006C18.1359 21.2007 16.9248 20.7509 15.7026 20.4513C14.4804 20.1518 13.247 20.0015 12.0026 20.0007C10.7582 19.9998 9.52483 20.15 8.3026 20.4513C7.08038 20.7527 5.86927 21.2024 4.66927 21.8006C4.46927 21.9118 4.30794 22.0673 4.18527 22.2673C4.0626 22.4673 4.00172 22.6895 4.0026 22.934V24.0007ZM12.0026 13.334C12.7359 13.334 13.3639 13.0731 13.8866 12.5513C14.4093 12.0295 14.6702 11.4015 14.6693 10.6673C14.6684 9.93309 14.4075 9.30554 13.8866 8.78465C13.3657 8.26376 12.7377 8.00243 12.0026 8.00065C11.2675 7.99887 10.6399 8.26021 10.1199 8.78465C9.59994 9.3091 9.3386 9.93665 9.33594 10.6673C9.33327 11.398 9.5946 12.026 10.1199 12.5513C10.6453 13.0767 11.2728 13.3375 12.0026 13.334Z" fill="white" fill-opacity="0.56"/>
</svg>
