<svg width="24" height="24" viewBox="0 0 24 24" fill="currentColor" xmlns="http://www.w3.org/2000/svg">
<path d="M10.275 12C9.80833 12 9.425 11.825 9.125 11.475C8.825 11.125 8.71667 10.7167 8.8 10.25L9.1 8.45C9.23333 7.73333 9.571 7.14567 10.113 6.687C10.655 6.22833 11.284 5.99933 12 6C12.7333 6 13.371 6.22933 13.913 6.688C14.455 7.14667 14.7923 7.734 14.925 8.45L15.225 10.25C15.3083 10.7167 15.2 11.125 14.9 11.475C14.6 11.825 14.2167 12 13.75 12H10.275ZM10.875 10H13.15L12.95 8.775C12.9167 8.54167 12.8083 8.35434 12.625 8.213C12.4417 8.07167 12.2333 8.00067 12 8C11.7667 7.99933 11.5627 8.07034 11.388 8.213C11.2133 8.35567 11.109 8.543 11.075 8.775L10.875 10ZM3.1 12.975C2.71667 12.9917 2.38733 12.9167 2.112 12.75C1.83667 12.5833 1.65767 12.325 1.575 11.975C1.54167 11.825 1.53333 11.675 1.55 11.525C1.56667 11.375 1.60833 11.2333 1.675 11.1C1.675 11.1167 1.66667 11.0833 1.65 11C1.61667 10.9667 1.53333 10.7667 1.4 10.4C1.36667 10.2 1.39167 10.0083 1.475 9.825C1.55833 9.64167 1.66667 9.48334 1.8 9.35L1.85 9.3C1.88333 8.98334 2.01267 8.71667 2.238 8.5C2.46333 8.28333 2.74233 8.175 3.075 8.175C3.125 8.175 3.28333 8.20833 3.55 8.275L3.625 8.25C3.70833 8.16667 3.81667 8.10433 3.95 8.063C4.08333 8.02167 4.225 8.00067 4.375 8C4.55833 8 4.721 8.02934 4.863 8.088C5.005 8.14667 5.11733 8.234 5.2 8.35C5.21667 8.35 5.22933 8.35433 5.238 8.363C5.24667 8.37167 5.259 8.37567 5.275 8.375C5.50833 8.39167 5.71233 8.46233 5.887 8.587C6.06167 8.71167 6.191 8.88267 6.275 9.1C6.30833 9.21667 6.321 9.32933 6.313 9.438C6.305 9.54667 6.284 9.65067 6.25 9.75C6.25 9.76667 6.25833 9.8 6.275 9.85C6.39167 9.96667 6.48333 10.096 6.55 10.238C6.61667 10.38 6.65 10.5257 6.65 10.675C6.65 10.7417 6.6 10.9167 6.5 11.2C6.48333 11.2333 6.48333 11.2667 6.5 11.3L6.55 11.7C6.55 12.05 6.40433 12.35 6.113 12.6C5.82167 12.85 5.46733 12.975 5.05 12.975H3.1ZM20 13C19.45 13 18.9793 12.8043 18.588 12.413C18.1967 12.0217 18.0007 11.5507 18 11C18 10.8 18.0293 10.6127 18.088 10.438C18.1467 10.2633 18.2257 10.0923 18.325 9.925L17.625 9.3C17.4583 9.16667 17.429 9 17.537 8.8C17.645 8.6 17.7993 8.5 18 8.5H20C20.55 8.5 21.021 8.696 21.413 9.088C21.805 9.48 22.0007 9.95067 22 10.5V11C22 11.55 21.8043 12.021 21.413 12.413C21.0217 12.805 20.5507 13.0007 20 13ZM0 18V16.425C0 15.6917 0.371 15.104 1.113 14.662C1.855 14.22 2.81733 13.9993 4 14C4.21667 14 4.425 14.0043 4.625 14.013C4.825 14.0217 5.01667 14.0423 5.2 14.075C4.96667 14.4083 4.79167 14.7667 4.675 15.15C4.55833 15.5333 4.5 15.9417 4.5 16.375V18H0ZM6 18V16.375C6 15.2917 6.55433 14.4167 7.663 13.75C8.77167 13.0833 10.2173 12.75 12 12.75C13.8 12.75 15.25 13.0833 16.35 13.75C17.45 14.4167 18 15.2917 18 16.375V18H6ZM20 14C21.2 14 22.1667 14.221 22.9 14.663C23.6333 15.105 24 15.6923 24 16.425V18H19.5V16.375C19.5 15.9417 19.446 15.5333 19.338 15.15C19.23 14.7667 19.0673 14.4083 18.85 14.075C19.0333 14.0417 19.221 14.021 19.413 14.013C19.605 14.005 19.8007 14.0007 20 14ZM12 14.75C11.05 14.75 10.2 14.875 9.45 15.125C8.7 15.375 8.25833 15.6667 8.125 16H15.9C15.75 15.6667 15.304 15.375 14.562 15.125C13.82 14.875 12.966 14.75 12 14.75Z" />
</svg>
