<svg xmlns="http://www.w3.org/2000/svg" width="24" height="24" viewBox="0 0 24 24" fill="none">
  <path d="M21 7.5H19V5H5V19H19V16.5H21V21H3V3H21V7.5ZM11 17V7H22V17H11ZM16 13.5C16.4167 13.5 16.771 13.3543 17.063 13.063C17.355 12.7717 17.5007 12.4173 17.5 12C17.4993 11.5827 17.3537 11.2287 17.063 10.938C16.7723 10.6473 16.418 10.5013 16 10.5C15.582 10.4987 15.228 10.6447 14.938 10.938C14.648 11.2313 14.502 11.5853 14.5 12C14.498 12.4147 14.644 12.769 14.938 13.063C15.232 13.357 15.586 13.5027 16 13.5ZM20 15V9H13V15H20Z" fill="currentColor"/>
</svg>