<svg width="24" height="24" viewBox="0 0 24 24" fill="currentColor" xmlns="http://www.w3.org/2000/svg">
<path d="M8.27501 7.72501L5.27501 4.72501L6.70001 3.30001L9.70001 6.30001L8.27501 7.72501ZM12 5.35001V1.10001H14V5.35001H12ZM19.275 18.725L16.275 15.725L17.7 14.3L20.7 17.3L19.275 18.725ZM17.7 7.72501L16.275 6.30001L19.275 3.30001L20.7 4.72501L17.7 7.72501ZM18.65 12V10H22.9V12H18.65ZM5.82501 22.425L1.57501 18.175L11.375 8.37501C11.9583 7.79167 12.6667 7.50001 13.5 7.50001C14.3333 7.50001 15.0417 7.79167 15.625 8.37501C16.2083 8.95834 16.5 9.66667 16.5 10.5C16.5 11.3333 16.2083 12.0417 15.625 12.625L5.82501 22.425ZM12.1 13.325L11.737 12.975L11.375 12.625L11.025 12.275L10.675 11.925L11.375 12.625L12.1 13.325ZM5.82501 19.6L12.1 13.325L10.675 11.925L4.42501 18.175L5.82501 19.6Z" />
</svg>
