<svg width="24" height="24" viewBox="0 0 24 24" fill="currentColor" xmlns="http://www.w3.org/2000/svg">
<path fill-rule="evenodd" clip-rule="evenodd" d="M7 3C4.79086 3 3 4.79086 3 7C3 9.20914 4.79086 11 7 11C9.20914 11 11 9.20914 11 7C11 4.79086 9.20914 3 7 3Z" />
<path fill-rule="evenodd" clip-rule="evenodd" d="M17 3C14.7909 3 13 4.79086 13 7C13 9.20914 14.7909 11 17 11C19.2091 11 21 9.20914 21 7C21 4.79086 19.2091 3 17 3Z" />
<path fill-rule="evenodd" clip-rule="evenodd" d="M13 17C13 14.7909 14.7909 13 17 13C19.2091 13 21 14.7909 21 17C21 19.2091 19.2091 21 17 21C14.7909 21 13 19.2091 13 17Z" />
<path fill-rule="evenodd" clip-rule="evenodd" d="M7 13C4.79086 13 3 14.7909 3 17C3 19.2091 4.79086 21 7 21C9.20914 21 11 19.2091 11 17C11 14.7909 9.20914 13 7 13Z" />
</svg>
