<svg xmlns="http://www.w3.org/2000/svg" width="24" height="24" viewBox="0 0 24 24" fill="none">
<path d="M13.0978 13.4062L13.2541 22C12.758 21.9141 12.3361 21.8477 11.9923 21.8477C11.6642 21.8477 11.2423 21.9141 10.7306 22L10.8869 13.4062C8.73843 9.70312 6.57437 5.71875 4.09 2C4.55484 2.12109 4.98843 2.15234 5.38687 2.15234C5.73843 2.15234 6.18375 2.12109 6.7189 2C8.31656 4.82031 9.92593 7.41797 11.9923 10.8086C13.4494 8.40234 15.5509 5.17969 17.2619 2C17.6955 2.11328 18.1212 2.15234 18.547 2.15234C18.9962 2.15234 19.4533 2.11328 19.9142 2C18.5705 3.87109 14.7736 10.4727 13.0978 13.4062Z" fill="currentColor"/>
</svg>
