<svg width="320" height="320" viewBox="0 0 320 320" fill="none" xmlns="http://www.w3.org/2000/svg">
<path d="M160 256C177.673 256 192 270.327 192 288C192 305.673 177.673 320 160 320C142.327 320 128 305.673 128 288C128 270.327 142.327 256 160 256Z" fill="black"/>
<path d="M46.8594 227.891C59.3562 215.394 79.6282 215.394 92.125 227.891C104.616 240.387 104.618 260.645 92.125 273.141C79.6282 285.637 59.3562 285.637 46.8594 273.141C34.3668 260.645 34.3688 240.387 46.8594 227.891Z" fill="black"/>
<path d="M227.875 227.891C240.372 215.394 260.644 215.394 273.141 227.891C285.631 240.387 285.633 260.645 273.141 273.141C260.644 285.637 240.372 285.637 227.875 273.141C215.382 260.645 215.384 240.387 227.875 227.891Z" fill="black"/>
<path d="M32 128C49.6731 128 64 142.327 64 160C64 177.673 49.6731 192 32 192C14.3269 192 0 177.673 0 160C0 142.327 14.3269 128 32 128Z" fill="black"/>
<path d="M288 128C305.673 128 320 142.327 320 160C320 177.673 305.673 192 288 192C270.327 192 256 177.673 256 160C256 142.327 270.327 128 288 128Z" fill="black"/>
<path d="M46.8594 46.8594C59.3562 34.3626 79.6282 34.3626 92.125 46.8594C104.618 59.3542 104.615 79.6126 92.125 92.1094C79.6282 104.606 59.3562 104.606 46.8594 92.1094C34.3694 79.6126 34.3662 59.3542 46.8594 46.8594Z" fill="black"/>
<path d="M227.875 46.8594C240.372 34.3626 260.644 34.3626 273.141 46.8594C285.634 59.3542 285.631 79.6126 273.141 92.1094C260.644 104.606 240.372 104.606 227.875 92.1094C215.385 79.6126 215.382 59.3542 227.875 46.8594Z" fill="black"/>
<path d="M160 0C177.673 0 192 14.3269 192 32C192 49.6731 177.673 64 160 64C142.327 64 128 49.6731 128 32C128 14.3269 142.327 0 160 0Z" fill="black"/>
</svg>
