<svg width="51" height="12" viewBox="0 0 51 12" fill="none" xmlns="http://www.w3.org/2000/svg">
<path fill-rule="evenodd" clip-rule="evenodd" d="M13.9031 3.32999C14.5108 2.76762 15.3081 2.41906 16.1967 2.41875C18.1712 2.41941 19.7709 4.02044 19.7709 5.99638C19.7709 7.70584 18.0793 9.16768 17.6564 9.50431C15.6788 11.0791 13.103 12 10.3229 12C7.54288 12 4.96702 11.0791 2.98949 9.50431C2.569 9.16768 0.875 7.70343 0.875 5.99638C0.875 4.02003 2.47529 2.41875 4.44801 2.41875C5.33706 2.41875 6.1348 2.76738 6.74272 3.32999L6.80519 3.29873C6.94455 1.45461 8.44391 0 10.3229 0C12.202 0 13.7013 1.45461 13.8407 3.29873L13.9031 3.32999ZM14.6168 6.88672C14.8883 7.15841 15.083 7.48537 15.1911 7.84362H15.1935C15.244 8.00713 15.131 8.17785 14.9628 8.20666C14.821 8.23073 14.6841 8.14177 14.6408 8.00233C14.5591 7.73785 14.415 7.49498 14.2131 7.29305C13.8863 6.96608 13.4514 6.7857 12.9877 6.7857C12.9697 6.7857 12.9522 6.78693 12.9348 6.78816C12.9174 6.78933 12.9 6.79056 12.8819 6.79056C13.1415 6.91073 13.3241 7.17281 13.3241 7.47817C13.3241 7.8989 12.9853 8.23794 12.5648 8.23794C12.1443 8.23794 11.8055 7.8965 11.8055 7.47817C11.8055 7.38201 11.8247 7.28825 11.8583 7.20409C11.8247 7.23296 11.791 7.26177 11.7598 7.29305C11.558 7.49498 11.4139 7.73785 11.3321 8.00233C11.2913 8.14177 11.1543 8.23073 11.0101 8.20666C10.8419 8.17785 10.729 8.00713 10.7795 7.84362C10.8876 7.48537 11.0822 7.15841 11.3538 6.88672C11.7886 6.45153 12.3702 6.21112 12.9853 6.21112C13.6004 6.21112 14.1819 6.45153 14.6168 6.88672ZM7.61023 6.78816C7.62765 6.78699 7.64507 6.78576 7.66311 6.78576C8.12686 6.78576 8.56174 6.96608 8.88851 7.29311C9.09037 7.49504 9.23455 7.73791 9.31624 8.00239C9.35946 8.14183 9.49644 8.23079 9.63822 8.20672C9.8064 8.17791 9.91937 8.00719 9.86889 7.84368C9.76079 7.48544 9.56613 7.15847 9.29464 6.88679C8.8597 6.45159 8.27824 6.21118 7.66311 6.21118C7.04798 6.21118 6.46648 6.45159 6.03157 6.88679C5.76005 7.15847 5.56542 7.48544 5.45729 7.84368C5.40683 8.00719 5.51976 8.17791 5.68796 8.20672C5.83213 8.23079 5.96909 8.14183 6.00994 8.00239C6.09163 7.73791 6.23581 7.49504 6.43764 7.29311C6.46888 7.26184 6.50252 7.23296 6.53616 7.20415C6.50252 7.28831 6.4833 7.38207 6.4833 7.47823C6.4833 7.89656 6.82209 8.238 7.24258 8.238C7.66311 8.238 8.00189 7.89896 8.00189 7.47823C8.00189 7.17287 7.81929 6.9108 7.55975 6.79062H7.55735C7.57538 6.79062 7.59281 6.78939 7.61023 6.78816ZM10.3256 9.56507C10.7677 9.56507 11.1714 9.39682 11.4789 9.12267C11.5919 9.02411 11.7577 9.01931 11.8682 9.11787C11.9932 9.2285 12.0004 9.42803 11.8754 9.54106C11.4669 9.91371 10.9215 10.1421 10.3256 10.1421C9.7297 10.1421 9.18666 9.91371 8.77573 9.54106C8.65082 9.42803 8.65802 9.2309 8.78293 9.11787C8.8959 9.01691 9.06168 9.02411 9.17219 9.12267C9.47735 9.39682 9.88348 9.56507 10.3256 9.56507Z" fill="white" fill-opacity="0.24"/>
<path d="M46.7617 10.2559C48.7204 10.2559 50.1266 9.45229 50.1266 7.84516C50.1266 6.69003 49.3974 5.87641 47.8164 5.28378L47.4146 5.1331C46.7838 4.89656 46.4102 4.68109 46.4102 4.27931C46.4102 3.37529 48.4191 3.72685 49.4737 3.97797L50.0261 2.27037C49.3733 2.06948 48.6702 1.91881 47.6657 1.91881C45.6569 1.91881 44.3511 2.92328 44.3511 4.32953C44.3511 5.38422 45.0964 6.05518 46.1089 6.48915L46.812 6.7905C47.7215 7.1802 48.1679 7.34292 48.1679 7.74475C48.1679 8.09628 47.6657 8.39764 46.812 8.39764C46.1591 8.39764 45.4559 8.29716 44.7027 8.14652L44.4515 9.95453C45.0039 10.1052 45.7573 10.2559 46.7617 10.2559ZM37.0187 10.1555H39.0275V5.334C39.0275 4.27931 39.58 3.67662 40.484 3.67662C41.388 3.67662 41.8902 4.32953 41.8902 5.38422V10.1555H43.8991V5.23355C43.8991 3.22461 42.7942 1.81836 40.484 1.81836C38.4249 1.81836 37.0187 3.22461 37.0187 5.23355V10.1555ZM28.1796 10.2559C28.8827 10.2559 29.4352 10.1555 29.9374 9.95453L29.7365 8.09628C28.3303 8.39764 26.673 8.44787 26.673 6.7905V2.16992H24.6641V6.99139C24.6641 9.151 25.9196 10.2559 28.1796 10.2559ZM29.6361 5.98691C29.6361 9.23786 31.9423 10.2976 34.0084 10.2976C34.8275 10.2976 35.6752 10.1309 36.3045 9.86816L36.058 8.09326C35.394 8.28362 34.7025 8.34839 34.0721 8.34839C32.7855 8.34839 31.6002 7.9215 31.6002 6.17326V5.83623C31.6002 4.4576 32.2817 3.72785 33.2917 3.72785C33.9546 3.72785 34.5081 4.10955 34.5081 4.83177C34.5081 5.70917 33.3424 6.10696 31.2437 6.03714L31.3441 7.19227C33.9823 7.94262 36.4667 7.13348 36.4667 4.78154C36.4667 3.12316 35.1992 1.96702 33.3676 1.96702C31.1638 1.96702 29.6361 3.53902 29.6361 5.98691Z" fill="white" fill-opacity="0.24"/>
</svg>
