<svg xmlns="http://www.w3.org/2000/svg" width="50" height="13" viewBox="0 0 50 13" fill="none">
<path fill-rule="evenodd" clip-rule="evenodd" d="M13.0281 3.82999C13.6358 3.26762 14.4331 2.91906 15.3217 2.91875C17.2962 2.91941 18.8959 4.52044 18.8959 6.49638C18.8959 8.20584 17.2043 9.66768 16.7814 10.0043C14.8038 11.5791 12.228 12.5 9.44791 12.5C6.66788 12.5 4.09202 11.5791 2.11449 10.0043C1.694 9.66768 0 8.20343 0 6.49638C0 4.52003 1.60029 2.91875 3.57301 2.91875C4.46206 2.91875 5.2598 3.26738 5.86772 3.82999L5.93019 3.79873C6.06955 1.95461 7.56891 0.5 9.44791 0.5C11.327 0.5 12.8263 1.95461 12.9657 3.79873L13.0281 3.82999ZM13.7418 7.38672C14.0133 7.65841 14.208 7.98537 14.3161 8.34362H14.3185C14.369 8.50713 14.256 8.67785 14.0878 8.70666C13.946 8.73073 13.8091 8.64177 13.7658 8.50233C13.6841 8.23785 13.54 7.99498 13.3381 7.79305C13.0113 7.46608 12.5764 7.2857 12.1127 7.2857C12.0947 7.2857 12.0772 7.28693 12.0598 7.28816C12.0424 7.28933 12.025 7.29056 12.0069 7.29056C12.2665 7.41073 12.4491 7.67281 12.4491 7.97817C12.4491 8.3989 12.1103 8.73794 11.6898 8.73794C11.2693 8.73794 10.9305 8.3965 10.9305 7.97817C10.9305 7.88201 10.9497 7.78825 10.9833 7.70409C10.9497 7.73296 10.916 7.76177 10.8848 7.79305C10.683 7.99498 10.5389 8.23785 10.4571 8.50233C10.4163 8.64177 10.2793 8.73073 10.1351 8.70666C9.96694 8.67785 9.85404 8.50713 9.90446 8.34362C10.0126 7.98537 10.2072 7.65841 10.4788 7.38672C10.9136 6.95153 11.4952 6.71112 12.1103 6.71112C12.7254 6.71112 13.3069 6.95153 13.7418 7.38672ZM6.73523 7.28816C6.75265 7.28699 6.77007 7.28576 6.78811 7.28576C7.25186 7.28576 7.68674 7.46608 8.01351 7.79311C8.21537 7.99504 8.35955 8.23791 8.44124 8.50239C8.48446 8.64183 8.62144 8.73079 8.76322 8.70672C8.9314 8.67791 9.04437 8.50719 8.99389 8.34368C8.88579 7.98544 8.69113 7.65847 8.41964 7.38679C7.9847 6.95159 7.40324 6.71118 6.78811 6.71118C6.17298 6.71118 5.59148 6.95159 5.15657 7.38679C4.88505 7.65847 4.69042 7.98544 4.58229 8.34368C4.53183 8.50719 4.64476 8.67791 4.81296 8.70672C4.95713 8.73079 5.09409 8.64183 5.13494 8.50239C5.21663 8.23791 5.36081 7.99504 5.56264 7.79311C5.59388 7.76184 5.62752 7.73296 5.66116 7.70415C5.62752 7.78831 5.6083 7.88207 5.6083 7.97823C5.6083 8.39656 5.94709 8.738 6.36758 8.738C6.78811 8.738 7.12689 8.39896 7.12689 7.97823C7.12689 7.67287 6.94429 7.4108 6.68475 7.29062H6.68235C6.70038 7.29062 6.71781 7.28939 6.73523 7.28816ZM9.45056 10.0651C9.8927 10.0651 10.2964 9.89682 10.6039 9.62267C10.7169 9.52411 10.8827 9.51931 10.9932 9.61787C11.1182 9.7285 11.1254 9.92803 11.0004 10.0411C10.5919 10.4137 10.0465 10.6421 9.45056 10.6421C8.8547 10.6421 8.31166 10.4137 7.90073 10.0411C7.77582 9.92803 7.78302 9.7309 7.90793 9.61787C8.0209 9.51691 8.18668 9.52411 8.29719 9.62267C8.60235 9.89682 9.00848 10.0651 9.45056 10.0651Z" fill="white" fill-opacity="0.56"/>
<path d="M45.8867 10.7539C47.8454 10.7539 49.2516 9.95034 49.2516 8.34321C49.2516 7.18808 48.5224 6.37446 46.9414 5.78182L46.5396 5.63115C45.9088 5.3946 45.5352 5.17914 45.5352 4.77735C45.5352 3.87333 47.5441 4.2249 48.5987 4.47602L49.1511 2.76842C48.4983 2.56753 47.7952 2.41685 46.7907 2.41685C44.7819 2.41685 43.4761 3.42132 43.4761 4.82758C43.4761 5.88227 44.2214 6.55323 45.2339 6.98719L45.937 7.28855C46.8465 7.67825 47.2929 7.84097 47.2929 8.2428C47.2929 8.59433 46.7907 8.89568 45.937 8.89568C45.2841 8.89568 44.5809 8.79521 43.8277 8.64456L43.5765 10.4526C44.1289 10.6033 44.8823 10.7539 45.8867 10.7539ZM36.1437 10.6535H38.1525V5.83205C38.1525 4.77735 38.705 4.17467 39.609 4.17467C40.513 4.17467 41.0152 4.82758 41.0152 5.88227V10.6535H43.0241V5.7316C43.0241 3.72266 41.9192 2.31641 39.609 2.31641C37.5499 2.31641 36.1437 3.72266 36.1437 5.7316V10.6535ZM27.3046 10.7539C28.0077 10.7539 28.5602 10.6535 29.0624 10.4526L28.8615 8.59433C27.4553 8.89568 25.798 8.94592 25.798 7.28855V2.66797H23.7891V7.48943C23.7891 9.64904 25.0446 10.7539 27.3046 10.7539ZM28.7611 6.48495C28.7611 9.73591 31.0673 10.7956 33.1334 10.7956C33.9525 10.7956 34.8002 10.6289 35.4295 10.3662L35.183 8.59131C34.519 8.78167 33.8275 8.84643 33.1971 8.84643C31.9105 8.84643 30.7252 8.41955 30.7252 6.67131V6.33428C30.7252 4.95565 31.4067 4.2259 32.4167 4.2259C33.0796 4.2259 33.6331 4.6076 33.6331 5.32981C33.6331 6.20721 32.4674 6.605 30.3687 6.53519L30.4691 7.69032C33.1073 8.44066 35.5917 7.63153 35.5917 5.27959C35.5917 3.62121 34.3242 2.46507 32.4926 2.46507C30.2888 2.46507 28.7611 4.03706 28.7611 6.48495Z" fill="white" fill-opacity="0.56"/>
</svg>
