<svg width="369" height="32" viewBox="0 0 369 32" fill="none" xmlns="http://www.w3.org/2000/svg">
<path d="M82.9976 6.39448V31.9693H76.6133V0H89.3819V6.39448H82.9976ZM89.3819 12.789V6.39448H95.7632V12.789H89.3819ZM95.7632 19.1834V12.789H102.148V19.1834H95.7632ZM108.532 25.5748H102.148V19.1834H108.532V25.5748ZM114.916 19.1834H108.532V12.789H114.916V19.1834ZM121.313 12.789H114.916V6.39448H121.313V12.789ZM134.081 31.9693H127.685V6.39448H121.313V0H134.081V31.9693Z" fill="#BCFA24"/>
<path d="M31.9185 31.9693H6.38432V25.5748H0V0H19.153V25.5748H31.9185V31.9693Z" fill="#BCFA24"/>
<path d="M44.6935 12.789H63.8464V19.1834H44.6935V25.5748H38.2969V6.39448H44.6812L44.6935 12.789ZM70.2307 6.39448H44.6935V0H70.2307V6.39448ZM70.2307 25.5748V31.9693H44.6935V25.5748H70.2307Z" fill="#BCFA24"/>
<path d="M210.688 31.9693H204.304V27.7074H202.193V25.5595H200.049V23.4454H197.904V21.2975H195.778V19.1834H193.634V17.0356H191.504V14.8877H189.378V12.789H187.249V10.6411H185.123V31.954H178.77V0H185.154V2.14786H187.28V4.2773H189.409V6.42516H191.535V8.55461H193.664V10.6871H195.809V12.835H197.935V14.9644H200.079V17.1123H202.224V19.2601H204.35V0H210.734L210.688 31.9693Z" fill="#BCFA24"/>
<path d="M140.457 25.5748V6.39448H146.841V25.5748H140.457ZM146.841 0H165.994V6.39448H146.841V0ZM165.994 31.9693H146.841V25.5748H165.994V31.9693ZM172.379 25.5748H165.994V6.39448H172.379V25.5748Z" fill="#BCFA24"/>
<path d="M329.865 6.39448V25.5748H327.739V27.7227H325.594V29.8706H323.465V32H306.441V0H323.465V2.14786H325.594V4.2773H327.739V6.42516L329.865 6.39448ZM323.481 23.4454V8.52392H321.361V6.39448H312.847V25.5748H321.361V23.4454H323.481Z" fill="#BCFA24"/>
<path d="M368.172 6.39448H355.403V12.789H368.172V25.5748H361.8V31.9693H336.266V25.5748H349.034V19.1834H336.266V6.39448H342.65V0H368.184L368.172 6.39448Z" fill="#BCFA24"/>
<path d="M236.227 31.9693H229.843V19.1834H223.459V31.9693H217.074V0H223.459V12.789H229.843V0H236.227V31.9693Z" fill="#BCFA24"/>
<path d="M248.998 12.789H261.766V19.1834H248.998V25.5748H242.613V6.39448H248.998V12.789ZM261.766 6.39448H248.998V0H261.766V6.39448ZM261.766 25.5748V31.9693H248.998V25.5748H261.766Z" fill="#BCFA24"/>
<path d="M300.071 31.9693H293.687V25.5748H274.534V31.9693H268.152V6.39448H274.534V19.1834H293.687V6.39448H300.071V31.9693ZM274.534 0H293.687V6.39448H274.534V0Z" fill="#BCFA24"/>
</svg>
