<svg xmlns="http://www.w3.org/2000/svg" width="16" height="16" viewBox="0 0 16 16" fill="none">
  <path d="M6.78467 10.0205C7.15314 10.0206 7.44775 10.3182 7.44775 10.6851C7.44763 11.0518 7.15306 11.3491 6.78467 11.3491C6.41905 11.3491 6.12121 11.0518 6.12109 10.6851C6.12109 10.3182 6.41898 10.0205 6.78467 10.0205Z" fill="white" fill-opacity="0.56"/>
  <path d="M9.17188 10.001C9.54037 10.001 9.83786 10.2982 9.83789 10.665C9.83789 11.0319 9.54039 11.3296 9.17188 11.3296C8.80618 11.3296 8.5083 11.0319 8.5083 10.665C8.50833 10.2982 8.8062 10.001 9.17188 10.001Z" fill="white" fill-opacity="0.56"/>
  <path d="M6.9126 4.40918C7.21043 5.21494 7.98772 7.49733 8.04443 7.62451C8.05931 7.55875 8.8413 5.07344 9.0625 4.42334H10.7075V10.0981C10.5033 9.98506 10.2989 9.87186 10.0776 9.74463C9.92456 9.66696 9.78286 9.58213 9.62695 9.51855C9.61277 8.41609 9.59849 7.32064 9.56445 6.17578C9.34324 6.83301 8.58051 9.1511 8.51807 9.21484H7.49951C7.49951 9.21484 6.50986 6.40273 6.46143 6.2749C6.44726 7.35606 6.43335 8.43722 6.39648 9.55371C5.7896 9.86462 5.4294 10.0416 5.31592 10.084V4.40918H6.9126Z" fill="white" fill-opacity="0.56"/>
  <path fill-rule="evenodd" clip-rule="evenodd" d="M8.00146 2C11.3141 2.00003 14 4.68555 14 8C14 11.3145 11.3141 14 8.00146 14C4.68595 14 2.00001 11.3145 2 8C2 4.68553 4.68594 2 8.00146 2ZM8.00146 2.9541C5.21631 2.9541 2.95557 5.21555 2.95557 8C2.95557 10.7845 5.21631 13.0459 8.00146 13.0459C10.7866 13.0459 13.0469 10.7844 13.0469 8C13.0469 5.21557 10.7781 2.95413 8.00146 2.9541Z" fill="white" fill-opacity="0.56"/>
</svg>
