<svg width="96" height="96" viewBox="0 0 96 96" fill="none" xmlns="http://www.w3.org/2000/svg">
<path d="M61.0502 21.2376C64.7012 29.2866 69.1802 39.1626 72.5402 43.0866C73.2002 41.5626 73.1282 39.0066 73.8782 32.7666C74.5562 27.1386 79.2002 26.6016 81.1952 27.0006C85.6052 27.9216 86.9462 32.3886 86.7992 34.0356C86.5652 36.6606 86.5532 36.5706 86.0732 42.9216C85.3682 52.2066 88.9532 59.2176 89.2832 67.1676C89.2832 82.1496 76.1522 89.5116 66.9632 89.5116C59.6102 89.5116 52.2512 84.8076 49.4942 82.4556L35.7062 69.8616C34.0202 68.5506 29.8472 64.2186 28.0172 61.7256C23.0252 54.9366 30.2432 50.2596 34.2992 51.4356C33.9812 51.1896 32.0552 48.0636 31.1342 46.5336C28.6592 41.5626 31.1342 38.2536 32.9642 37.3416C37.1132 35.2776 40.1642 37.5996 41.1242 38.8656C40.7552 38.2416 39.6032 35.7156 37.7462 31.0806C35.8892 26.4486 38.8802 23.5866 40.6082 22.7346C44.3582 20.9976 47.9222 23.2026 48.8132 25.1736C49.2512 26.1366 51.6032 31.2936 52.6292 33.5646C51.8552 31.6806 50.4572 27.9336 49.9622 26.2026C48.9782 22.1226 51.3452 19.3266 52.8482 18.6066C54.9332 17.6076 59.2862 17.3466 61.0082 21.1386L61.0502 21.2376Z" fill="url(#paint0_radial_12551_586773)"/>
<path d="M61.0515 21.2376C64.7025 29.2866 69.1815 39.1626 72.5415 43.0866C73.2015 41.5626 73.1295 39.0066 73.8795 32.7666C74.5575 27.1386 79.2015 26.6016 81.1965 27.0006C85.6065 27.9216 86.9475 32.3886 86.8005 34.0356C86.5665 36.6606 86.5545 36.5706 86.0745 42.9216C85.3695 52.2066 88.9545 59.2176 89.2845 67.1676C89.2845 82.1496 76.1535 89.5116 66.9645 89.5116C59.6115 89.5116 52.2525 84.8076 49.4955 82.4556L35.7075 69.8616C34.0185 68.5506 29.8485 64.2186 28.0155 61.7256C23.0265 54.9366 30.2445 50.2596 34.3005 51.4356C33.9825 51.1896 32.0565 48.0636 31.1355 46.5336C28.6605 41.5626 31.1355 38.2536 32.9655 37.3416C37.1145 35.2776 40.1655 37.5996 41.1255 38.8656C40.7565 38.2416 39.6045 35.7156 37.7475 31.0806C35.8905 26.4486 38.8815 23.5866 40.6095 22.7346C44.3595 20.9976 47.9235 23.2026 48.8145 25.1736C49.2525 26.1366 51.6045 31.2936 52.6305 33.5646C51.8565 31.6806 50.4585 27.9336 49.9635 26.2026C48.9795 22.1226 51.3465 19.3266 52.8465 18.6066C54.9345 17.6076 59.2875 17.3466 61.0065 21.1386L61.0515 21.2376Z" fill="url(#paint1_radial_12551_586773)"/>
<path d="M86.799 34.0361C86.565 36.6611 86.553 36.5711 86.073 42.9221C85.824 46.2041 87.606 58.2851 87.606 58.2851C83.271 59.7011 73.878 57.8261 72.543 43.0871C73.2 41.5631 73.128 39.0071 73.878 32.7671C74.556 27.1391 79.2 26.6021 81.195 27.0011C85.605 27.9221 86.946 32.3891 86.799 34.0361Z" fill="url(#paint2_radial_12551_586773)"/>
<path d="M86.799 34.0361C86.565 36.6611 86.553 36.5711 86.073 42.9221C85.824 46.2041 87.606 58.2851 87.606 58.2851C83.271 59.7011 73.878 57.8261 72.543 43.0871C73.2 41.5631 73.128 39.0071 73.878 32.7671C74.556 27.1391 79.2 26.6021 81.195 27.0011C85.605 27.9221 86.946 32.3891 86.799 34.0361Z" fill="url(#paint3_radial_12551_586773)"/>
<path d="M86.799 34.0361C86.565 36.6611 86.553 36.5711 86.073 42.9221C85.824 46.2041 87.606 58.2851 87.606 58.2851C83.271 59.7011 73.878 57.8261 72.543 43.0871C73.2 41.5631 73.128 39.0071 73.878 32.7671C74.556 27.1391 79.2 26.6021 81.195 27.0011C85.605 27.9221 86.946 32.3891 86.799 34.0361Z" fill="url(#paint4_radial_12551_586773)"/>
<path d="M61.0508 21.2376C64.7018 29.2866 69.1808 39.1626 72.5408 43.0866C72.0158 47.5746 68.0048 49.7226 64.5488 48.9186C60.1898 47.6526 58.5338 44.5596 58.5338 44.5596C58.5338 44.5596 57.3938 42.7956 56.2838 40.8546C54.9998 38.6106 55.2338 38.6616 53.0828 34.5996C52.6598 33.8016 50.5898 28.3896 49.9628 26.2026C48.9788 22.1226 51.3458 19.3266 52.8488 18.6066C54.9338 17.6076 59.2868 17.3466 61.0088 21.1386L61.0508 21.2376Z" fill="url(#paint5_radial_12551_586773)"/>
<path d="M61.0508 21.2376C64.7018 29.2866 69.1808 39.1626 72.5408 43.0866C72.0158 47.5746 68.0048 49.7226 64.5488 48.9186C60.1898 47.6526 58.5338 44.5596 58.5338 44.5596C58.5338 44.5596 57.3938 42.7956 56.2838 40.8546C54.9998 38.6106 55.2338 38.6616 53.0828 34.5996C52.6598 33.8016 50.5898 28.3896 49.9628 26.2026C48.9788 22.1226 51.3458 19.3266 52.8488 18.6066C54.9338 17.6076 59.2868 17.3466 61.0088 21.1386L61.0508 21.2376Z" fill="url(#paint6_linear_12551_586773)"/>
<path d="M61.0508 21.2376C64.7018 29.2866 69.1808 39.1626 72.5408 43.0866C72.0158 47.5746 68.0048 49.7226 64.5488 48.9186C60.1898 47.6526 58.5338 44.5596 58.5338 44.5596C58.5338 44.5596 57.3938 42.7956 56.2838 40.8546C54.9998 38.6106 55.2338 38.6616 53.0828 34.5996C52.6598 33.8016 50.5898 28.3896 49.9628 26.2026C48.9788 22.1226 51.3458 19.3266 52.8488 18.6066C54.9338 17.6076 59.2868 17.3466 61.0088 21.1386L61.0508 21.2376Z" fill="url(#paint7_radial_12551_586773)"/>
<path d="M61.0508 21.2376C64.7018 29.2866 69.1808 39.1626 72.5408 43.0866C72.0158 47.5746 68.0048 49.7226 64.5488 48.9186C60.1898 47.6526 58.5338 44.5596 58.5338 44.5596C58.5338 44.5596 57.3938 42.7956 56.2838 40.8546C54.9998 38.6106 55.2338 38.6616 53.0828 34.5996C52.6598 33.8016 50.5898 28.3896 49.9628 26.2026C48.9788 22.1226 51.3458 19.3266 52.8488 18.6066C54.9338 17.6076 59.2868 17.3466 61.0088 21.1386L61.0508 21.2376Z" fill="url(#paint8_radial_12551_586773)"/>
<path d="M61.0508 21.2376C64.7018 29.2866 69.1808 39.1626 72.5408 43.0866C72.0158 47.5746 68.0048 49.7226 64.5488 48.9186C60.1898 47.6526 58.5338 44.5596 58.5338 44.5596C58.5338 44.5596 57.3938 42.7956 56.2838 40.8546C54.9998 38.6106 55.2338 38.6616 53.0828 34.5996C52.6598 33.8016 50.5898 28.3896 49.9628 26.2026C48.9788 22.1226 51.3458 19.3266 52.8488 18.6066C54.9338 17.6076 59.2868 17.3466 61.0088 21.1386L61.0508 21.2376Z" fill="url(#paint9_linear_12551_586773)"/>
<path d="M48.8102 25.1774C49.3982 26.4734 53.4542 35.3534 53.0792 34.6034C54.1682 37.0634 57.5492 43.0634 58.5302 44.7044C60.7022 48.3224 58.2512 51.3314 56.6702 52.2494C52.1192 54.8894 49.5062 51.5234 49.5062 51.5234C47.1062 48.0074 45.1022 45.0794 41.1392 38.8454C40.1852 37.0454 38.4452 33.0314 37.7432 31.0844C36.0122 26.2784 38.8772 23.5904 40.6052 22.7384C44.3552 21.0014 47.9192 23.2064 48.8102 25.1774Z" fill="url(#paint10_radial_12551_586773)"/>
<path d="M48.8102 25.1774C49.3982 26.4734 53.4542 35.3534 53.0792 34.6034C54.1682 37.0634 57.5492 43.0634 58.5302 44.7044C60.7022 48.3224 58.2512 51.3314 56.6702 52.2494C52.1192 54.8894 49.5062 51.5234 49.5062 51.5234C47.1062 48.0074 45.1022 45.0794 41.1392 38.8454C40.1852 37.0454 38.4452 33.0314 37.7432 31.0844C36.0122 26.2784 38.8772 23.5904 40.6052 22.7384C44.3552 21.0014 47.9192 23.2064 48.8102 25.1774Z" fill="url(#paint11_linear_12551_586773)"/>
<path d="M48.8102 25.1774C49.3982 26.4734 53.4542 35.3534 53.0792 34.6034C54.1682 37.0634 57.5492 43.0634 58.5302 44.7044C60.7022 48.3224 58.2512 51.3314 56.6702 52.2494C52.1192 54.8894 49.5062 51.5234 49.5062 51.5234C47.1062 48.0074 45.1022 45.0794 41.1392 38.8454C40.1852 37.0454 38.4452 33.0314 37.7432 31.0844C36.0122 26.2784 38.8772 23.5904 40.6052 22.7384C44.3552 21.0014 47.9192 23.2064 48.8102 25.1774Z" fill="url(#paint12_radial_12551_586773)"/>
<path d="M48.8102 25.1774C49.3982 26.4734 53.4542 35.3534 53.0792 34.6034C54.1682 37.0634 57.5492 43.0634 58.5302 44.7044C60.7022 48.3224 58.2512 51.3314 56.6702 52.2494C52.1192 54.8894 49.5062 51.5234 49.5062 51.5234C47.1062 48.0074 45.1022 45.0794 41.1392 38.8454C40.1852 37.0454 38.4452 33.0314 37.7432 31.0844C36.0122 26.2784 38.8772 23.5904 40.6052 22.7384C44.3552 21.0014 47.9192 23.2064 48.8102 25.1774Z" fill="url(#paint13_radial_12551_586773)"/>
<path d="M48.8102 25.1774C49.3982 26.4734 53.4542 35.3534 53.0792 34.6034C54.1682 37.0634 57.5492 43.0634 58.5302 44.7044C60.7022 48.3224 58.2512 51.3314 56.6702 52.2494C52.1192 54.8894 49.5062 51.5234 49.5062 51.5234C47.1062 48.0074 45.1022 45.0794 41.1392 38.8454C40.1852 37.0454 38.4452 33.0314 37.7432 31.0844C36.0122 26.2784 38.8772 23.5904 40.6052 22.7384C44.3552 21.0014 47.9192 23.2064 48.8102 25.1774Z" fill="url(#paint14_radial_12551_586773)"/>
<path d="M48.8102 25.1774C49.3982 26.4734 53.4542 35.3534 53.0792 34.6034C54.1682 37.0634 57.5492 43.0634 58.5302 44.7044C60.7022 48.3224 58.2512 51.3314 56.6702 52.2494C52.1192 54.8894 49.5062 51.5234 49.5062 51.5234C47.1062 48.0074 45.1022 45.0794 41.1392 38.8454C40.1852 37.0454 38.4452 33.0314 37.7432 31.0844C36.0122 26.2784 38.8772 23.5904 40.6052 22.7384C44.3552 21.0014 47.9192 23.2064 48.8102 25.1774Z" fill="url(#paint15_linear_12551_586773)"/>
<path d="M32.9619 37.3376C37.1109 35.2736 40.1619 37.5956 41.1219 38.8616C44.1189 43.3826 47.6919 48.5216 49.3419 51.2576C53.7519 58.5476 44.7279 61.7096 44.7279 61.7096C36.4299 52.3586 34.8939 51.8876 34.2969 51.4286C33.9789 51.1856 32.0529 48.0596 31.1319 46.5296C28.6569 41.5586 31.1319 38.2466 32.9619 37.3376Z" fill="url(#paint16_radial_12551_586773)"/>
<path d="M32.9619 37.3376C37.1109 35.2736 40.1619 37.5956 41.1219 38.8616C44.1189 43.3826 47.6919 48.5216 49.3419 51.2576C53.7519 58.5476 44.7279 61.7096 44.7279 61.7096C36.4299 52.3586 34.8939 51.8876 34.2969 51.4286C33.9789 51.1856 32.0529 48.0596 31.1319 46.5296C28.6569 41.5586 31.1319 38.2466 32.9619 37.3376Z" fill="url(#paint17_linear_12551_586773)"/>
<path d="M32.9619 37.3376C37.1109 35.2736 40.1619 37.5956 41.1219 38.8616C44.1189 43.3826 47.6919 48.5216 49.3419 51.2576C53.7519 58.5476 44.7279 61.7096 44.7279 61.7096C36.4299 52.3586 34.8939 51.8876 34.2969 51.4286C33.9789 51.1856 32.0529 48.0596 31.1319 46.5296C28.6569 41.5586 31.1319 38.2466 32.9619 37.3376Z" fill="url(#paint18_radial_12551_586773)"/>
<path d="M32.9619 37.3376C37.1109 35.2736 40.1619 37.5956 41.1219 38.8616C44.1189 43.3826 47.6919 48.5216 49.3419 51.2576C53.7519 58.5476 44.7279 61.7096 44.7279 61.7096C36.4299 52.3586 34.8939 51.8876 34.2969 51.4286C33.9789 51.1856 32.0529 48.0596 31.1319 46.5296C28.6569 41.5586 31.1319 38.2466 32.9619 37.3376Z" fill="url(#paint19_radial_12551_586773)"/>
<path d="M32.9619 37.3376C37.1109 35.2736 40.1619 37.5956 41.1219 38.8616C44.1189 43.3826 47.6919 48.5216 49.3419 51.2576C53.7519 58.5476 44.7279 61.7096 44.7279 61.7096C36.4299 52.3586 34.8939 51.8876 34.2969 51.4286C33.9789 51.1856 32.0529 48.0596 31.1319 46.5296C28.6569 41.5586 31.1319 38.2466 32.9619 37.3376Z" fill="url(#paint20_radial_12551_586773)"/>
<path d="M32.9619 37.3376C37.1109 35.2736 40.1619 37.5956 41.1219 38.8616C44.1189 43.3826 47.6919 48.5216 49.3419 51.2576C53.7519 58.5476 44.7279 61.7096 44.7279 61.7096C36.4299 52.3586 34.8939 51.8876 34.2969 51.4286C33.9789 51.1856 32.0529 48.0596 31.1319 46.5296C28.6569 41.5586 31.1319 38.2466 32.9619 37.3376Z" fill="url(#paint21_radial_12551_586773)"/>
<path d="M28.0155 61.729C23.0265 54.94 30.2445 50.263 34.3005 51.439C36.2205 52.624 39.1905 55.597 40.4535 56.938C48.4995 64.783 47.1585 67.204 44.9085 69.868C42.7275 71.674 39.8925 73.123 35.7075 69.868C34.0185 68.554 29.8485 64.222 28.0155 61.729Z" fill="url(#paint22_radial_12551_586773)"/>
<path d="M28.0155 61.729C23.0265 54.94 30.2445 50.263 34.3005 51.439C36.2205 52.624 39.1905 55.597 40.4535 56.938C48.4995 64.783 47.1585 67.204 44.9085 69.868C42.7275 71.674 39.8925 73.123 35.7075 69.868C34.0185 68.554 29.8485 64.222 28.0155 61.729Z" fill="url(#paint23_radial_12551_586773)"/>
<path d="M28.0155 61.729C23.0265 54.94 30.2445 50.263 34.3005 51.439C36.2205 52.624 39.1905 55.597 40.4535 56.938C48.4995 64.783 47.1585 67.204 44.9085 69.868C42.7275 71.674 39.8925 73.123 35.7075 69.868C34.0185 68.554 29.8485 64.222 28.0155 61.729Z" fill="url(#paint24_radial_12551_586773)"/>
<path d="M28.0155 61.729C23.0265 54.94 30.2445 50.263 34.3005 51.439C36.2205 52.624 39.1905 55.597 40.4535 56.938C48.4995 64.783 47.1585 67.204 44.9085 69.868C42.7275 71.674 39.8925 73.123 35.7075 69.868C34.0185 68.554 29.8485 64.222 28.0155 61.729Z" fill="url(#paint25_radial_12551_586773)"/>
<path d="M28.0155 61.729C23.0265 54.94 30.2445 50.263 34.3005 51.439C36.2205 52.624 39.1905 55.597 40.4535 56.938C48.4995 64.783 47.1585 67.204 44.9085 69.868C42.7275 71.674 39.8925 73.123 35.7075 69.868C34.0185 68.554 29.8485 64.222 28.0155 61.729Z" fill="url(#paint26_linear_12551_586773)"/>
<path d="M61.0515 21.2376C64.7025 29.2866 69.1815 39.1626 72.5415 43.0866C73.2015 41.5626 73.1295 39.0066 73.8795 32.7666C74.5575 27.1386 79.2015 26.6016 81.1965 27.0006C85.6065 27.9216 86.9475 32.3886 86.8005 34.0356C86.5665 36.6606 86.5545 36.5706 86.0745 42.9216C85.3695 52.2066 88.9545 59.2176 89.2845 67.1676C89.2845 82.1496 76.1535 89.5116 66.9645 89.5116C59.6115 89.5116 52.2525 84.8076 49.4955 82.4556L35.7075 69.8616C34.0185 68.5506 29.8485 64.2186 28.0155 61.7256C23.0265 54.9366 30.2445 50.2596 34.3005 51.4356C33.9825 51.1896 32.0565 48.0636 31.1355 46.5336C28.6605 41.5626 31.1355 38.2536 32.9655 37.3416C37.1145 35.2776 40.1655 37.5996 41.1255 38.8656C40.7565 38.2416 39.6045 35.7156 37.7475 31.0806C35.8905 26.4486 38.8815 23.5866 40.6095 22.7346C44.3595 20.9976 47.9235 23.2026 48.8145 25.1736C49.2525 26.1366 51.6045 31.2936 52.6305 33.5646C51.8565 31.6806 50.4585 27.9336 49.9635 26.2026C48.9795 22.1226 51.3465 19.3266 52.8465 18.6066C54.9345 17.6076 59.2875 17.3466 61.0065 21.1386L61.0515 21.2376Z" fill="url(#paint27_radial_12551_586773)"/>
<path d="M61.0515 21.2376C64.7025 29.2866 69.1815 39.1626 72.5415 43.0866C73.2015 41.5626 73.1295 39.0066 73.8795 32.7666C74.5575 27.1386 79.2015 26.6016 81.1965 27.0006C85.6065 27.9216 86.9475 32.3886 86.8005 34.0356C86.5665 36.6606 86.5545 36.5706 86.0745 42.9216C85.3695 52.2066 88.9545 59.2176 89.2845 67.1676C89.2845 82.1496 76.1535 89.5116 66.9645 89.5116C59.6115 89.5116 52.2525 84.8076 49.4955 82.4556L35.7075 69.8616C34.0185 68.5506 29.8485 64.2186 28.0155 61.7256C23.0265 54.9366 30.2445 50.2596 34.3005 51.4356C33.9825 51.1896 32.0565 48.0636 31.1355 46.5336C28.6605 41.5626 31.1355 38.2536 32.9655 37.3416C37.1145 35.2776 40.1655 37.5996 41.1255 38.8656C40.7565 38.2416 39.6045 35.7156 37.7475 31.0806C35.8905 26.4486 38.8815 23.5866 40.6095 22.7346C44.3595 20.9976 47.9235 23.2026 48.8145 25.1736C49.2525 26.1366 51.6045 31.2936 52.6305 33.5646C51.8565 31.6806 50.4585 27.9336 49.9635 26.2026C48.9795 22.1226 51.3465 19.3266 52.8465 18.6066C54.9345 17.6076 59.2875 17.3466 61.0065 21.1386L61.0515 21.2376Z" fill="url(#paint28_radial_12551_586773)"/>
<path d="M61.0515 21.2376C64.7025 29.2866 69.1815 39.1626 72.5415 43.0866C73.2015 41.5626 73.1295 39.0066 73.8795 32.7666C74.5575 27.1386 79.2015 26.6016 81.1965 27.0006C85.6065 27.9216 86.9475 32.3886 86.8005 34.0356C86.5665 36.6606 86.5545 36.5706 86.0745 42.9216C85.3695 52.2066 88.9545 59.2176 89.2845 67.1676C89.2845 82.1496 76.1535 89.5116 66.9645 89.5116C59.6115 89.5116 52.2525 84.8076 49.4955 82.4556L35.7075 69.8616C34.0185 68.5506 29.8485 64.2186 28.0155 61.7256C23.0265 54.9366 30.2445 50.2596 34.3005 51.4356C33.9825 51.1896 32.0565 48.0636 31.1355 46.5336C28.6605 41.5626 31.1355 38.2536 32.9655 37.3416C37.1145 35.2776 40.1655 37.5996 41.1255 38.8656C40.7565 38.2416 39.6045 35.7156 37.7475 31.0806C35.8905 26.4486 38.8815 23.5866 40.6095 22.7346C44.3595 20.9976 47.9235 23.2026 48.8145 25.1736C49.2525 26.1366 51.6045 31.2936 52.6305 33.5646C51.8565 31.6806 50.4585 27.9336 49.9635 26.2026C48.9795 22.1226 51.3465 19.3266 52.8465 18.6066C54.9345 17.6076 59.2875 17.3466 61.0065 21.1386L61.0515 21.2376Z" fill="url(#paint29_radial_12551_586773)"/>
<path d="M66.138 32.0078C68.391 36.6098 70.641 40.7348 72.543 42.9938C72.738 45.0038 72.912 46.1498 73.392 47.8838C69.597 44.0858 65.922 35.7848 66.138 32.0078Z" fill="url(#paint30_radial_12551_586773)"/>
<path fill-rule="evenodd" clip-rule="evenodd" d="M12.3787 50.7031C12.8078 50.7039 13.2191 50.8749 13.5223 51.1787C13.8255 51.4824 13.9957 51.894 13.9957 52.3231C13.9957 55.0231 15.0877 58.6381 17.4427 61.5571C19.7527 64.4281 23.2627 66.6001 28.1827 66.6001C28.6116 66.6001 29.0229 66.7705 29.3261 67.0737C29.6294 67.377 29.7997 67.7883 29.7997 68.2171C29.7997 68.646 29.6294 69.0573 29.3261 69.3605C29.0229 69.6638 28.6116 69.8341 28.1827 69.8341C22.1767 69.8341 17.7817 67.1341 14.9227 63.5881C12.1087 60.0961 10.7617 55.7611 10.7617 52.3201C10.7625 51.8915 10.9331 51.4807 11.2362 51.1776C11.5393 50.8745 11.9501 50.7039 12.3787 50.7031Z" fill="url(#paint31_radial_12551_586773)"/>
<path fill-rule="evenodd" clip-rule="evenodd" d="M12.3787 50.7031C12.8078 50.7039 13.2191 50.8749 13.5223 51.1787C13.8255 51.4824 13.9957 51.894 13.9957 52.3231C13.9957 55.0231 15.0877 58.6381 17.4427 61.5571C19.7527 64.4281 23.2627 66.6001 28.1827 66.6001C28.6116 66.6001 29.0229 66.7705 29.3261 67.0737C29.6294 67.377 29.7997 67.7883 29.7997 68.2171C29.7997 68.646 29.6294 69.0573 29.3261 69.3605C29.0229 69.6638 28.6116 69.8341 28.1827 69.8341C22.1767 69.8341 17.7817 67.1341 14.9227 63.5881C12.1087 60.0961 10.7617 55.7611 10.7617 52.3201C10.7625 51.8915 10.9331 51.4807 11.2362 51.1776C11.5393 50.8745 11.9501 50.7039 12.3787 50.7031Z" fill="url(#paint32_radial_12551_586773)"/>
<path fill-rule="evenodd" clip-rule="evenodd" d="M12.3787 50.7031C12.8078 50.7039 13.2191 50.8749 13.5223 51.1787C13.8255 51.4824 13.9957 51.894 13.9957 52.3231C13.9957 55.0231 15.0877 58.6381 17.4427 61.5571C19.7527 64.4281 23.2627 66.6001 28.1827 66.6001C28.6116 66.6001 29.0229 66.7705 29.3261 67.0737C29.6294 67.377 29.7997 67.7883 29.7997 68.2171C29.7997 68.646 29.6294 69.0573 29.3261 69.3605C29.0229 69.6638 28.6116 69.8341 28.1827 69.8341C22.1767 69.8341 17.7817 67.1341 14.9227 63.5881C12.1087 60.0961 10.7617 55.7611 10.7617 52.3201C10.7625 51.8915 10.9331 51.4807 11.2362 51.1776C11.5393 50.8745 11.9501 50.7039 12.3787 50.7031Z" fill="url(#paint33_radial_12551_586773)"/>
<path fill-rule="evenodd" clip-rule="evenodd" d="M7.34356 56.4766C7.77321 56.4766 8.18527 56.6472 8.48908 56.9511C8.79288 57.2549 8.96356 57.6669 8.96356 58.0966C8.96356 63.8266 13.2536 71.4826 22.2716 71.4826C22.7004 71.4826 23.1117 71.6529 23.415 71.9562C23.7182 72.2594 23.8886 72.6707 23.8886 73.0996C23.8886 73.5284 23.7182 73.9397 23.415 74.243C23.1117 74.5462 22.7004 74.7166 22.2716 74.7166C10.9316 74.7166 5.72656 65.0266 5.72656 58.0966C5.72656 57.6669 5.89724 57.2549 6.20105 56.9511C6.50486 56.6472 6.91391 56.4766 7.34356 56.4766Z" fill="url(#paint34_radial_12551_586773)"/>
<path fill-rule="evenodd" clip-rule="evenodd" d="M7.34356 56.4766C7.77321 56.4766 8.18527 56.6472 8.48908 56.9511C8.79288 57.2549 8.96356 57.6669 8.96356 58.0966C8.96356 63.8266 13.2536 71.4826 22.2716 71.4826C22.7004 71.4826 23.1117 71.6529 23.415 71.9562C23.7182 72.2594 23.8886 72.6707 23.8886 73.0996C23.8886 73.5284 23.7182 73.9397 23.415 74.243C23.1117 74.5462 22.7004 74.7166 22.2716 74.7166C10.9316 74.7166 5.72656 65.0266 5.72656 58.0966C5.72656 57.6669 5.89724 57.2549 6.20105 56.9511C6.50486 56.6472 6.91391 56.4766 7.34356 56.4766Z" fill="url(#paint35_radial_12551_586773)"/>
<path fill-rule="evenodd" clip-rule="evenodd" d="M67.9073 29.5607C67.4787 29.5623 67.0669 29.3939 66.7621 29.0926C66.4573 28.7912 66.2844 28.3813 66.2813 27.9527C66.2633 25.2527 65.1473 21.6437 62.7743 18.7397C60.4433 15.8837 56.9243 13.7357 52.0013 13.7657C51.5892 13.7434 51.2011 13.5647 50.9163 13.266C50.6315 12.9673 50.4715 12.5712 50.4688 12.1586C50.4661 11.7459 50.621 11.3477 50.9019 11.0454C51.1828 10.743 51.5685 10.5593 51.9803 10.5317C57.9863 10.4927 62.3993 13.1687 65.2793 16.6937C68.1173 20.1677 69.4913 24.4937 69.5153 27.9317C69.5177 28.3608 69.3497 28.7734 69.0482 29.0788C68.7467 29.3842 68.3364 29.5575 67.9073 29.5607Z" fill="url(#paint36_radial_12551_586773)"/>
<path fill-rule="evenodd" clip-rule="evenodd" d="M67.9073 29.5607C67.4787 29.5623 67.0669 29.3939 66.7621 29.0926C66.4573 28.7912 66.2844 28.3813 66.2813 27.9527C66.2633 25.2527 65.1473 21.6437 62.7743 18.7397C60.4433 15.8837 56.9243 13.7357 52.0013 13.7657C51.5892 13.7434 51.2011 13.5647 50.9163 13.266C50.6315 12.9673 50.4715 12.5712 50.4688 12.1586C50.4661 11.7459 50.621 11.3477 50.9019 11.0454C51.1828 10.743 51.5685 10.5593 51.9803 10.5317C57.9863 10.4927 62.3993 13.1687 65.2793 16.6937C68.1173 20.1677 69.4913 24.4937 69.5153 27.9317C69.5177 28.3608 69.3497 28.7734 69.0482 29.0788C68.7467 29.3842 68.3364 29.5575 67.9073 29.5607Z" fill="url(#paint37_radial_12551_586773)"/>
<path fill-rule="evenodd" clip-rule="evenodd" d="M72.9015 23.7616C72.4729 23.7632 72.0611 23.5949 71.7564 23.2935C71.4516 22.9921 71.2787 22.5822 71.2755 22.1536C71.2365 16.4236 66.8955 8.79162 57.8775 8.85162C57.4487 8.85441 57.0363 8.68671 56.7311 8.38544C56.4258 8.08416 56.2528 7.67398 56.25 7.24512C56.2472 6.81627 56.4149 6.40387 56.7162 6.09865C57.0175 5.79344 57.4277 5.62041 57.8565 5.61762C69.1965 5.54262 74.4615 15.2026 74.5065 22.1326C74.5089 22.5612 74.3414 22.9733 74.0405 23.2787C73.7397 23.584 73.3301 23.7577 72.9015 23.7616Z" fill="url(#paint38_radial_12551_586773)"/>
<path fill-rule="evenodd" clip-rule="evenodd" d="M72.9015 23.7616C72.4729 23.7632 72.0611 23.5949 71.7564 23.2935C71.4516 22.9921 71.2787 22.5822 71.2755 22.1536C71.2365 16.4236 66.8955 8.79162 57.8775 8.85162C57.4487 8.85441 57.0363 8.68671 56.7311 8.38544C56.4258 8.08416 56.2528 7.67398 56.25 7.24512C56.2472 6.81627 56.4149 6.40387 56.7162 6.09865C57.0175 5.79344 57.4277 5.62041 57.8565 5.61762C69.1965 5.54262 74.4615 15.2026 74.5065 22.1326C74.5089 22.5612 74.3414 22.9733 74.0405 23.2787C73.7397 23.584 73.3301 23.7577 72.9015 23.7616Z" fill="url(#paint39_radial_12551_586773)"/>
<g filter="url(#filter0_f_12551_586773)">
<path d="M67.5935 43.2969C61.7825 45.6399 48.6335 53.3379 44.7695 70.4889" stroke="#FFC339" stroke-width="2.4" stroke-linecap="round"/>
</g>
<defs>
<filter id="filter0_f_12551_586773" x="41.1703" y="39.6937" width="30.0227" height="34.3938" filterUnits="userSpaceOnUse" color-interpolation-filters="sRGB">
<feFlood flood-opacity="0" result="BackgroundImageFix"/>
<feBlend mode="normal" in="SourceGraphic" in2="BackgroundImageFix" result="shape"/>
<feGaussianBlur stdDeviation="1.2" result="effect1_foregroundBlur_12551_586773"/>
</filter>
<radialGradient id="paint0_radial_12551_586773" cx="0" cy="0" r="1" gradientUnits="userSpaceOnUse" gradientTransform="translate(57.8012 41.5116) rotate(60.1006) scale(63.156 41.259)">
<stop offset="0.003" stop-color="#FFC133"/>
<stop offset="0.698" stop-color="#FFC53F"/>
<stop offset="0.797" stop-color="#FFAD3E"/>
<stop offset="0.945" stop-color="#EC7D58"/>
</radialGradient>
<radialGradient id="paint1_radial_12551_586773" cx="0" cy="0" r="1" gradientUnits="userSpaceOnUse" gradientTransform="translate(89.2845 55.3866) rotate(-93.012) scale(37.4703 14.3547)">
<stop offset="0.003" stop-color="#FFE849"/>
<stop offset="1" stop-color="#FFE647" stop-opacity="0"/>
</radialGradient>
<radialGradient id="paint2_radial_12551_586773" cx="0" cy="0" r="1" gradientUnits="userSpaceOnUse" gradientTransform="translate(84.7834 28.5734) rotate(99.682) scale(20.0671 7.68765)">
<stop offset="0.003" stop-color="#FFE849"/>
<stop offset="1" stop-color="#FFE647" stop-opacity="0"/>
</radialGradient>
<radialGradient id="paint3_radial_12551_586773" cx="0" cy="0" r="1" gradientUnits="userSpaceOnUse" gradientTransform="translate(72.54 40.6571) scale(8.11641 32.9151)">
<stop stop-color="#EE9F2C"/>
<stop offset="1" stop-color="#EE9F2C" stop-opacity="0"/>
</radialGradient>
<radialGradient id="paint4_radial_12551_586773" cx="0" cy="0" r="1" gradientUnits="userSpaceOnUse" gradientTransform="translate(76.104 53.4191) rotate(-94.0856) scale(13.6611 9.48872)">
<stop stop-color="#FFC93D"/>
<stop offset="1" stop-color="#FFC33A" stop-opacity="0"/>
</radialGradient>
<radialGradient id="paint5_radial_12551_586773" cx="0" cy="0" r="1" gradientUnits="userSpaceOnUse" gradientTransform="translate(68.4728 32.6796) rotate(151.024) scale(14.36 28.8465)">
<stop offset="0.563" stop-color="#F09D2E" stop-opacity="0"/>
<stop offset="1" stop-color="#F09D2E"/>
</radialGradient>
<linearGradient id="paint6_linear_12551_586773" x1="61.1378" y1="47.3916" x2="61.1378" y2="39.6366" gradientUnits="userSpaceOnUse">
<stop stop-color="#FFC337"/>
<stop offset="1" stop-color="#FFC337" stop-opacity="0"/>
</linearGradient>
<radialGradient id="paint7_radial_12551_586773" cx="0" cy="0" r="1" gradientUnits="userSpaceOnUse" gradientTransform="translate(65.4728 21.2616) rotate(-13.4957) scale(9.64122 21.3203)">
<stop stop-color="#FFEC4C"/>
<stop offset="1" stop-color="#FFEC4C" stop-opacity="0"/>
</radialGradient>
<radialGradient id="paint8_radial_12551_586773" cx="0" cy="0" r="1" gradientUnits="userSpaceOnUse" gradientTransform="translate(49.7318 17.9676) rotate(33.3063) scale(9.41234 7.29746)">
<stop stop-color="#D99F2B"/>
<stop offset="1" stop-color="#D99F2B" stop-opacity="0"/>
</radialGradient>
<linearGradient id="paint9_linear_12551_586773" x1="51.2228" y1="36.9186" x2="55.9088" y2="34.6686" gradientUnits="userSpaceOnUse">
<stop stop-color="#A85300"/>
<stop offset="0.825" stop-color="#A85300" stop-opacity="0"/>
</linearGradient>
<radialGradient id="paint10_radial_12551_586773" cx="0" cy="0" r="1" gradientUnits="userSpaceOnUse" gradientTransform="translate(54.9362 37.1204) rotate(149.148) scale(13.8424 28.8865)">
<stop offset="0.563" stop-color="#F09D2E" stop-opacity="0"/>
<stop offset="1" stop-color="#F09D2E"/>
</radialGradient>
<linearGradient id="paint11_linear_12551_586773" x1="47.9972" y1="52.1354" x2="47.9972" y2="44.2214" gradientUnits="userSpaceOnUse">
<stop stop-color="#FFC337"/>
<stop offset="1" stop-color="#FFC337" stop-opacity="0"/>
</linearGradient>
<radialGradient id="paint12_radial_12551_586773" cx="0" cy="0" r="1" gradientUnits="userSpaceOnUse" gradientTransform="translate(53.3402 28.2974) rotate(-33.8929) scale(9.18643 27.9681)">
<stop stop-color="#FFEC4C"/>
<stop offset="1" stop-color="#FFEC4C" stop-opacity="0"/>
</radialGradient>
<radialGradient id="paint13_radial_12551_586773" cx="0" cy="0" r="1" gradientUnits="userSpaceOnUse" gradientTransform="translate(46.3442 39.6404) rotate(-24.9048) scale(11.5765 52.8597)">
<stop offset="0.598" stop-color="#F09D2E" stop-opacity="0"/>
<stop offset="1" stop-color="#F09D2E"/>
</radialGradient>
<radialGradient id="paint14_radial_12551_586773" cx="0" cy="0" r="1" gradientUnits="userSpaceOnUse" gradientTransform="translate(35.8442 22.1084) rotate(32.6006) scale(9.57034 7.6277)">
<stop stop-color="#D99F2B"/>
<stop offset="1" stop-color="#D99F2B" stop-opacity="0"/>
</radialGradient>
<linearGradient id="paint15_linear_12551_586773" x1="40.0622" y1="41.5154" x2="43.1822" y2="39.3344" gradientUnits="userSpaceOnUse">
<stop stop-color="#A85300"/>
<stop offset="0.825" stop-color="#A85300" stop-opacity="0"/>
</linearGradient>
<radialGradient id="paint16_radial_12551_586773" cx="0" cy="0" r="1" gradientUnits="userSpaceOnUse" gradientTransform="translate(46.9029 49.1126) rotate(137.351) scale(11.4677 22.456)">
<stop offset="0.563" stop-color="#F09D2E" stop-opacity="0"/>
<stop offset="1" stop-color="#F09D2E"/>
</radialGradient>
<linearGradient id="paint17_linear_12551_586773" x1="40.3239" y1="61.7096" x2="40.3239" y2="55.0706" gradientUnits="userSpaceOnUse">
<stop stop-color="#FFC337"/>
<stop offset="1" stop-color="#FFC337" stop-opacity="0"/>
</linearGradient>
<radialGradient id="paint18_radial_12551_586773" cx="0" cy="0" r="1" gradientUnits="userSpaceOnUse" gradientTransform="translate(44.0919 39.2726) rotate(-12.2959) scale(8.73403 18.5011)">
<stop stop-color="#FFEC4C"/>
<stop offset="1" stop-color="#FFEC4C" stop-opacity="0"/>
</radialGradient>
<radialGradient id="paint19_radial_12551_586773" cx="0" cy="0" r="1" gradientUnits="userSpaceOnUse" gradientTransform="translate(38.7579 51.2276) rotate(-40.217) scale(12.1488 62.1087)">
<stop offset="0.598" stop-color="#F09D2E" stop-opacity="0"/>
<stop offset="1" stop-color="#F09D2E"/>
</radialGradient>
<radialGradient id="paint20_radial_12551_586773" cx="0" cy="0" r="1" gradientUnits="userSpaceOnUse" gradientTransform="translate(28.7979 36.5156) rotate(29.5035) scale(8.78595 6.61254)">
<stop stop-color="#D99F2B"/>
<stop offset="1" stop-color="#D99F2B" stop-opacity="0"/>
</radialGradient>
<radialGradient id="paint21_radial_12551_586773" cx="0" cy="0" r="1" gradientUnits="userSpaceOnUse" gradientTransform="translate(33.4059 53.7896) rotate(-45.7639) scale(4.97229 22.4504)">
<stop stop-color="#A85300"/>
<stop offset="0.825" stop-color="#A85300" stop-opacity="0"/>
</radialGradient>
<radialGradient id="paint22_radial_12551_586773" cx="0" cy="0" r="1" gradientUnits="userSpaceOnUse" gradientTransform="translate(44.3565 62.164) rotate(143.369) scale(11.2741 21.2128)">
<stop offset="0.563" stop-color="#F09D2E" stop-opacity="0"/>
<stop offset="1" stop-color="#F09D2E"/>
</radialGradient>
<radialGradient id="paint23_radial_12551_586773" cx="0" cy="0" r="1" gradientUnits="userSpaceOnUse" gradientTransform="translate(41.3385 53.641) rotate(-9.97762) scale(9.29417 16.1462)">
<stop stop-color="#FFEC4C"/>
<stop offset="1" stop-color="#FFEC4C" stop-opacity="0"/>
</radialGradient>
<radialGradient id="paint24_radial_12551_586773" cx="0" cy="0" r="1" gradientUnits="userSpaceOnUse" gradientTransform="translate(35.6152 63.9937) rotate(-34.314) scale(12.0475 58.1643)">
<stop offset="0.598" stop-color="#F09D2E" stop-opacity="0"/>
<stop offset="1" stop-color="#F09D2E"/>
</radialGradient>
<radialGradient id="paint25_radial_12551_586773" cx="0" cy="0" r="1" gradientUnits="userSpaceOnUse" gradientTransform="translate(24.9315 51.259) rotate(24.5479) scale(9.01711 5.98355)">
<stop stop-color="#D99F2B"/>
<stop offset="1" stop-color="#D99F2B" stop-opacity="0"/>
</radialGradient>
<linearGradient id="paint26_linear_12551_586773" x1="44.8485" y1="82.765" x2="37.2975" y2="67.321" gradientUnits="userSpaceOnUse">
<stop stop-color="#FFC337"/>
<stop offset="1" stop-color="#FFC337" stop-opacity="0"/>
</linearGradient>
<radialGradient id="paint27_radial_12551_586773" cx="0" cy="0" r="1" gradientUnits="userSpaceOnUse" gradientTransform="translate(71.8485 37.5756) rotate(129.014) scale(52.1241 84.2958)">
<stop offset="0.872" stop-color="#F6814F" stop-opacity="0"/>
<stop offset="1" stop-color="#F7814F"/>
</radialGradient>
<radialGradient id="paint28_radial_12551_586773" cx="0" cy="0" r="1" gradientUnits="userSpaceOnUse" gradientTransform="translate(60.9735 38.1366) rotate(76.293) scale(55.3899 60.7749)">
<stop offset="0.853" stop-color="#F6814F" stop-opacity="0"/>
<stop offset="1" stop-color="#F7814F"/>
</radialGradient>
<radialGradient id="paint29_radial_12551_586773" cx="0" cy="0" r="1" gradientUnits="userSpaceOnUse" gradientTransform="translate(73.5345 24.0756) rotate(64.44) scale(9.56066 8.5232)">
<stop stop-color="#D99F2B"/>
<stop offset="1" stop-color="#D99F2B" stop-opacity="0"/>
</radialGradient>
<radialGradient id="paint30_radial_12551_586773" cx="0" cy="0" r="1" gradientUnits="userSpaceOnUse" gradientTransform="translate(73.3948 42.3507) rotate(149.254) scale(3.6408 11.266)">
<stop offset="0.201" stop-color="#B4813D"/>
<stop offset="1" stop-color="#B4813D" stop-opacity="0"/>
</radialGradient>
<radialGradient id="paint31_radial_12551_586773" cx="0" cy="0" r="1" gradientUnits="userSpaceOnUse" gradientTransform="translate(14.6797 51.5731) rotate(62.071) scale(15.9365 23.6345)">
<stop stop-color="white"/>
<stop offset="1" stop-color="#A093EB"/>
</radialGradient>
<radialGradient id="paint32_radial_12551_586773" cx="0" cy="0" r="1" gradientUnits="userSpaceOnUse" gradientTransform="translate(10.1707 52.7581) rotate(2.38594) scale(2.25195 4.73925)">
<stop stop-color="#5486C7"/>
<stop offset="1" stop-color="#5486C7" stop-opacity="0"/>
</radialGradient>
<radialGradient id="paint33_radial_12551_586773" cx="0" cy="0" r="1" gradientUnits="userSpaceOnUse" gradientTransform="translate(27.0487 65.6011) rotate(111.801) scale(2.27188 6.68241)">
<stop stop-color="#5486C7"/>
<stop offset="1" stop-color="#5486C7" stop-opacity="0"/>
</radialGradient>
<radialGradient id="paint34_radial_12551_586773" cx="0" cy="0" r="1" gradientUnits="userSpaceOnUse" gradientTransform="translate(15.8455 59.886) rotate(94.712) scale(12.6051 21.1943)">
<stop stop-color="white"/>
<stop offset="1" stop-color="#A093EB"/>
</radialGradient>
<radialGradient id="paint35_radial_12551_586773" cx="0" cy="0" r="1" gradientUnits="userSpaceOnUse" gradientTransform="translate(5.16556 58.4356) rotate(2.38521) scale(2.14812 4.51855)">
<stop stop-color="#5486C7"/>
<stop offset="1" stop-color="#5486C7" stop-opacity="0"/>
</radialGradient>
<radialGradient id="paint36_radial_12551_586773" cx="0" cy="0" r="1" gradientUnits="userSpaceOnUse" gradientTransform="translate(55.5233 7.04267) rotate(60.196) scale(13.3896 19.8573)">
<stop stop-color="white"/>
<stop offset="1" stop-color="#A093EB"/>
</radialGradient>
<radialGradient id="paint37_radial_12551_586773" cx="0" cy="0" r="1" gradientUnits="userSpaceOnUse" gradientTransform="translate(50.0063 11.8913) rotate(18.861) scale(1.92633 3.10053)">
<stop stop-color="#4D8AC1"/>
<stop offset="1" stop-color="#4D8AC1" stop-opacity="0"/>
</radialGradient>
<radialGradient id="paint38_radial_12551_586773" cx="0" cy="0" r="1" gradientUnits="userSpaceOnUse" gradientTransform="translate(61.1625 2.29062) rotate(60.69) scale(16.6339 24.6751)">
<stop stop-color="white"/>
<stop offset="1" stop-color="#A093EB"/>
</radialGradient>
<radialGradient id="paint39_radial_12551_586773" cx="0" cy="0" r="1" gradientUnits="userSpaceOnUse" gradientTransform="translate(55.9035 6.91487) rotate(18.853) scale(1.83741 2.95629)">
<stop stop-color="#4D8AC1"/>
<stop offset="1" stop-color="#4D8AC1" stop-opacity="0"/>
</radialGradient>
</defs>
</svg>
